G04*
G04 #@! TF.GenerationSoftware,Altium Limited,Altium Designer,18.1.7 (191)*
G04*
G04 Layer_Color=32896*
%FSLAX44Y44*%
%MOMM*%
G71*
G01*
G75*
%ADD10C,0.2540*%
%ADD12C,0.2000*%
%ADD15C,0.1520*%
%ADD16C,0.3000*%
%ADD30C,0.6000*%
%ADD31C,0.2500*%
G36*
X27513Y192521D02*
X27818Y192465D01*
X28095Y192382D01*
X28331Y192299D01*
X28525Y192215D01*
X28664Y192132D01*
X28719Y192105D01*
X28761Y192077D01*
X28775Y192063D01*
X28789D01*
X29025Y191883D01*
X29233Y191661D01*
X29413Y191453D01*
X29565Y191245D01*
X29676Y191051D01*
X29760Y190898D01*
X29787Y190842D01*
X29815Y190801D01*
X29829Y190773D01*
Y190759D01*
X29954Y190440D01*
X30037Y190121D01*
X30106Y189816D01*
X30148Y189539D01*
X30176Y189289D01*
Y189192D01*
X30189Y189095D01*
Y189026D01*
Y188970D01*
Y188943D01*
Y188929D01*
X30176Y188665D01*
X30162Y188402D01*
X30065Y187930D01*
X30009Y187708D01*
X29940Y187514D01*
X29871Y187320D01*
X29801Y187153D01*
X29732Y186987D01*
X29662Y186848D01*
X29593Y186737D01*
X29538Y186627D01*
X29482Y186557D01*
X29441Y186488D01*
X29427Y186460D01*
X29413Y186446D01*
X29260Y186266D01*
X29094Y186113D01*
X28914Y185975D01*
X28733Y185850D01*
X28539Y185753D01*
X28359Y185670D01*
X28179Y185600D01*
X27998Y185545D01*
X27832Y185503D01*
X27679Y185476D01*
X27541Y185448D01*
X27416Y185434D01*
X27319D01*
X27249Y185420D01*
X27180D01*
X26972Y185434D01*
X26764Y185462D01*
X26570Y185503D01*
X26390Y185559D01*
X26071Y185711D01*
X25779Y185878D01*
X25668Y185961D01*
X25557Y186044D01*
X25460Y186127D01*
X25391Y186197D01*
X25336Y186252D01*
X25294Y186294D01*
X25266Y186321D01*
X25252Y186335D01*
Y186127D01*
Y185947D01*
X25266Y185767D01*
Y185614D01*
Y185476D01*
X25280Y185351D01*
Y185240D01*
X25294Y185143D01*
X25308Y185004D01*
X25322Y184893D01*
X25336Y184837D01*
Y184824D01*
X25405Y184616D01*
X25502Y184435D01*
X25599Y184283D01*
X25696Y184144D01*
X25793Y184047D01*
X25876Y183964D01*
X25932Y183922D01*
X25946Y183908D01*
X26126Y183797D01*
X26334Y183714D01*
X26542Y183659D01*
X26736Y183617D01*
X26930Y183589D01*
X27069Y183575D01*
X27208D01*
X27471Y183589D01*
X27721Y183631D01*
X27929Y183686D01*
X28095Y183756D01*
X28234Y183811D01*
X28331Y183867D01*
X28387Y183908D01*
X28414Y183922D01*
X28525Y184019D01*
X28609Y184144D01*
X28678Y184269D01*
X28733Y184394D01*
X28761Y184519D01*
X28789Y184616D01*
X28803Y184671D01*
Y184699D01*
X29954Y184851D01*
Y184643D01*
X29926Y184463D01*
X29898Y184283D01*
X29857Y184116D01*
X29732Y183825D01*
X29593Y183589D01*
X29454Y183409D01*
X29344Y183284D01*
X29246Y183201D01*
X29233Y183187D01*
X29219Y183173D01*
X28914Y182979D01*
X28581Y182840D01*
X28248Y182743D01*
X27929Y182674D01*
X27776Y182646D01*
X27638Y182633D01*
X27527Y182619D01*
X27416D01*
X27333Y182605D01*
X27208D01*
X26833Y182619D01*
X26487Y182674D01*
X26181Y182729D01*
X25932Y182813D01*
X25724Y182882D01*
X25641Y182910D01*
X25571Y182951D01*
X25516Y182965D01*
X25474Y182993D01*
X25460Y183007D01*
X25447D01*
X25197Y183160D01*
X24975Y183340D01*
X24795Y183520D01*
X24642Y183686D01*
X24531Y183839D01*
X24462Y183964D01*
X24406Y184047D01*
X24392Y184061D01*
Y184075D01*
X24337Y184213D01*
X24281Y184366D01*
X24240Y184532D01*
X24198Y184713D01*
X24143Y185101D01*
X24101Y185476D01*
X24087Y185656D01*
X24074Y185822D01*
Y185975D01*
X24060Y186100D01*
Y186210D01*
Y186294D01*
Y186349D01*
Y186363D01*
Y192382D01*
X25141D01*
Y191522D01*
X25294Y191702D01*
X25460Y191855D01*
X25627Y191994D01*
X25793Y192105D01*
X25973Y192202D01*
X26140Y192285D01*
X26306Y192354D01*
X26459Y192410D01*
X26611Y192451D01*
X26750Y192479D01*
X26875Y192507D01*
X26972Y192521D01*
X27055Y192535D01*
X27180D01*
X27513Y192521D01*
D02*
G37*
G36*
X34586D02*
X34877Y192493D01*
X35154Y192451D01*
X35376Y192410D01*
X35570Y192368D01*
X35709Y192327D01*
X35765Y192313D01*
X35806Y192299D01*
X35820Y192285D01*
X35834D01*
X36070Y192188D01*
X36278Y192063D01*
X36458Y191952D01*
X36611Y191841D01*
X36721Y191730D01*
X36805Y191647D01*
X36860Y191591D01*
X36874Y191578D01*
X36999Y191397D01*
X37110Y191203D01*
X37193Y191009D01*
X37262Y190829D01*
X37318Y190648D01*
X37359Y190524D01*
X37373Y190468D01*
Y190427D01*
X37387Y190413D01*
Y190399D01*
X36236Y190246D01*
X36153Y190496D01*
X36070Y190718D01*
X35973Y190898D01*
X35889Y191037D01*
X35806Y191148D01*
X35737Y191217D01*
X35681Y191259D01*
X35668Y191273D01*
X35501Y191369D01*
X35307Y191439D01*
X35099Y191494D01*
X34905Y191522D01*
X34711Y191550D01*
X34572Y191564D01*
X34433D01*
X34114Y191550D01*
X33837Y191508D01*
X33615Y191439D01*
X33421Y191369D01*
X33282Y191286D01*
X33171Y191231D01*
X33102Y191175D01*
X33088Y191161D01*
X32977Y191037D01*
X32894Y190884D01*
X32824Y190718D01*
X32783Y190551D01*
X32755Y190399D01*
X32741Y190260D01*
Y190177D01*
Y190163D01*
Y190149D01*
Y190121D01*
Y190066D01*
Y189969D01*
X32755Y189886D01*
Y189858D01*
Y189844D01*
X32894Y189802D01*
X33046Y189761D01*
X33365Y189678D01*
X33726Y189608D01*
X34059Y189539D01*
X34225Y189511D01*
X34378Y189497D01*
X34516Y189470D01*
X34627Y189456D01*
X34724Y189442D01*
X34794D01*
X34849Y189428D01*
X34863D01*
X35113Y189400D01*
X35321Y189359D01*
X35501Y189331D01*
X35640Y189303D01*
X35751Y189289D01*
X35834Y189261D01*
X35889Y189248D01*
X35903D01*
X36084Y189192D01*
X36236Y189137D01*
X36389Y189067D01*
X36514Y189012D01*
X36624Y188956D01*
X36694Y188901D01*
X36749Y188873D01*
X36763Y188859D01*
X36902Y188762D01*
X37013Y188651D01*
X37124Y188540D01*
X37207Y188429D01*
X37276Y188332D01*
X37332Y188249D01*
X37359Y188194D01*
X37373Y188180D01*
X37443Y188027D01*
X37498Y187861D01*
X37540Y187708D01*
X37568Y187556D01*
X37581Y187431D01*
X37595Y187334D01*
Y187278D01*
Y187251D01*
X37581Y187084D01*
X37568Y186945D01*
X37498Y186654D01*
X37401Y186418D01*
X37290Y186210D01*
X37179Y186044D01*
X37082Y185919D01*
X37013Y185850D01*
X36985Y185822D01*
X36735Y185642D01*
X36458Y185503D01*
X36153Y185406D01*
X35875Y185337D01*
X35626Y185295D01*
X35515Y185281D01*
X35418D01*
X35335Y185267D01*
X35224D01*
X34974Y185281D01*
X34724Y185309D01*
X34502Y185337D01*
X34308Y185378D01*
X34156Y185420D01*
X34031Y185462D01*
X33948Y185476D01*
X33920Y185489D01*
X33684Y185586D01*
X33462Y185711D01*
X33254Y185850D01*
X33046Y185975D01*
X32880Y186100D01*
X32755Y186197D01*
X32672Y186266D01*
X32658Y186294D01*
X32644D01*
X32616Y186113D01*
X32589Y185947D01*
X32561Y185794D01*
X32519Y185670D01*
X32478Y185559D01*
X32450Y185489D01*
X32436Y185434D01*
X32422Y185420D01*
X31188D01*
X31257Y185573D01*
X31327Y185725D01*
X31382Y185864D01*
X31410Y185989D01*
X31451Y186100D01*
X31465Y186183D01*
X31479Y186238D01*
Y186252D01*
X31493Y186349D01*
X31507Y186474D01*
Y186613D01*
X31521Y186765D01*
X31535Y187112D01*
Y187459D01*
X31549Y187792D01*
Y187944D01*
Y188069D01*
Y188180D01*
Y188263D01*
Y188319D01*
Y188332D01*
Y189913D01*
Y190177D01*
X31562Y190413D01*
X31576Y190593D01*
Y190746D01*
X31590Y190856D01*
X31604Y190940D01*
X31618Y190981D01*
Y190995D01*
X31660Y191175D01*
X31715Y191328D01*
X31771Y191453D01*
X31840Y191578D01*
X31895Y191661D01*
X31937Y191730D01*
X31965Y191772D01*
X31978Y191786D01*
X32089Y191896D01*
X32214Y192008D01*
X32353Y192091D01*
X32492Y192174D01*
X32616Y192229D01*
X32713Y192271D01*
X32783Y192299D01*
X32811Y192313D01*
X33033Y192382D01*
X33268Y192437D01*
X33504Y192479D01*
X33740Y192507D01*
X33948Y192521D01*
X34100Y192535D01*
X34253D01*
X34586Y192521D01*
D02*
G37*
G36*
X48260Y185420D02*
X47040D01*
Y193589D01*
X44266Y185420D01*
X43129D01*
X40327Y193450D01*
Y185420D01*
X39107D01*
Y195017D01*
X40813D01*
X43115Y188332D01*
X43240Y187972D01*
X43337Y187667D01*
X43434Y187403D01*
X43503Y187181D01*
X43559Y187015D01*
X43600Y186890D01*
X43614Y186821D01*
X43628Y186793D01*
X43683Y186987D01*
X43753Y187209D01*
X43836Y187445D01*
X43905Y187680D01*
X43975Y187889D01*
X44030Y188055D01*
X44058Y188124D01*
X44072Y188166D01*
X44086Y188194D01*
Y188207D01*
X46360Y195017D01*
X48260D01*
Y185420D01*
D02*
G37*
G36*
X7154Y194102D02*
Y192382D01*
X8028D01*
Y191467D01*
X7154D01*
Y187445D01*
Y187251D01*
Y187084D01*
X7140Y186932D01*
X7126Y186779D01*
Y186654D01*
X7113Y186543D01*
X7085Y186363D01*
X7057Y186224D01*
X7043Y186127D01*
X7015Y186072D01*
Y186058D01*
X6960Y185933D01*
X6877Y185836D01*
X6794Y185739D01*
X6724Y185670D01*
X6641Y185600D01*
X6586Y185559D01*
X6544Y185531D01*
X6530Y185517D01*
X6377Y185448D01*
X6225Y185406D01*
X6058Y185364D01*
X5892Y185351D01*
X5753Y185337D01*
X5642Y185323D01*
X5531D01*
X5226Y185337D01*
X5074Y185351D01*
X4935Y185378D01*
X4810Y185392D01*
X4713Y185406D01*
X4658Y185420D01*
X4630D01*
X4783Y186460D01*
X4893Y186446D01*
X5005Y186432D01*
X5102D01*
X5171Y186418D01*
X5310D01*
X5490Y186432D01*
X5615Y186460D01*
X5684Y186488D01*
X5712Y186502D01*
X5809Y186571D01*
X5864Y186640D01*
X5906Y186696D01*
X5920Y186724D01*
X5934Y186793D01*
X5947Y186890D01*
X5961Y187112D01*
X5975Y187209D01*
Y187292D01*
Y187348D01*
Y187375D01*
Y191467D01*
X4783D01*
Y192382D01*
X5975D01*
Y194809D01*
X7154Y194102D01*
D02*
G37*
G36*
X12230Y192521D02*
X12479Y192493D01*
X12715Y192451D01*
X12937Y192382D01*
X13145Y192313D01*
X13339Y192229D01*
X13520Y192146D01*
X13672Y192049D01*
X13825Y191966D01*
X13950Y191869D01*
X14060Y191786D01*
X14144Y191716D01*
X14213Y191647D01*
X14269Y191605D01*
X14296Y191578D01*
X14310Y191564D01*
X14463Y191369D01*
X14601Y191161D01*
X14726Y190954D01*
X14837Y190732D01*
X14920Y190496D01*
X14990Y190274D01*
X15101Y189830D01*
X15142Y189636D01*
X15170Y189442D01*
X15184Y189275D01*
X15198Y189123D01*
X15212Y188998D01*
Y188915D01*
Y188846D01*
Y188832D01*
X15198Y188526D01*
X15170Y188235D01*
X15128Y187958D01*
X15073Y187708D01*
X15004Y187472D01*
X14934Y187251D01*
X14851Y187057D01*
X14768Y186876D01*
X14685Y186724D01*
X14601Y186585D01*
X14532Y186474D01*
X14463Y186377D01*
X14407Y186294D01*
X14366Y186238D01*
X14338Y186210D01*
X14324Y186197D01*
X14144Y186030D01*
X13963Y185891D01*
X13769Y185767D01*
X13561Y185656D01*
X13367Y185573D01*
X13159Y185489D01*
X12771Y185378D01*
X12591Y185351D01*
X12424Y185323D01*
X12271Y185295D01*
X12147Y185281D01*
X12050Y185267D01*
X11897D01*
X11467Y185295D01*
X11079Y185364D01*
X10732Y185448D01*
X10593Y185503D01*
X10455Y185559D01*
X10330Y185614D01*
X10219Y185670D01*
X10136Y185711D01*
X10053Y185753D01*
X9997Y185794D01*
X9955Y185822D01*
X9928Y185850D01*
X9914D01*
X9636Y186100D01*
X9415Y186363D01*
X9220Y186640D01*
X9082Y186904D01*
X8971Y187140D01*
X8929Y187251D01*
X8888Y187334D01*
X8860Y187417D01*
X8846Y187472D01*
X8832Y187500D01*
Y187514D01*
X10053Y187667D01*
X10164Y187403D01*
X10288Y187181D01*
X10413Y186987D01*
X10524Y186835D01*
X10621Y186724D01*
X10704Y186640D01*
X10774Y186585D01*
X10788Y186571D01*
X10968Y186460D01*
X11148Y186377D01*
X11342Y186321D01*
X11509Y186280D01*
X11661Y186252D01*
X11786Y186238D01*
X11897D01*
X12063Y186252D01*
X12216Y186266D01*
X12493Y186335D01*
X12743Y186432D01*
X12965Y186543D01*
X13131Y186640D01*
X13256Y186737D01*
X13339Y186807D01*
X13353Y186835D01*
X13367D01*
X13561Y187084D01*
X13714Y187362D01*
X13825Y187667D01*
X13908Y187944D01*
X13950Y188194D01*
X13977Y188305D01*
X13991Y188402D01*
Y188485D01*
X14005Y188540D01*
Y188582D01*
Y188596D01*
X8804D01*
X8791Y188734D01*
Y188832D01*
Y188887D01*
Y188901D01*
X8804Y189220D01*
X8832Y189511D01*
X8874Y189788D01*
X8929Y190052D01*
X8999Y190288D01*
X9068Y190510D01*
X9151Y190704D01*
X9234Y190884D01*
X9317Y191051D01*
X9401Y191189D01*
X9470Y191300D01*
X9539Y191397D01*
X9595Y191481D01*
X9636Y191536D01*
X9664Y191564D01*
X9678Y191578D01*
X9844Y191744D01*
X10025Y191896D01*
X10219Y192021D01*
X10413Y192132D01*
X10607Y192229D01*
X10788Y192299D01*
X10982Y192368D01*
X11148Y192410D01*
X11329Y192451D01*
X11481Y192479D01*
X11620Y192507D01*
X11731Y192521D01*
X11828Y192535D01*
X11966D01*
X12230Y192521D01*
D02*
G37*
G36*
X-19002D02*
X-18697Y192465D01*
X-18405Y192396D01*
X-18170Y192327D01*
X-17962Y192243D01*
X-17878Y192202D01*
X-17809Y192174D01*
X-17754Y192146D01*
X-17712Y192118D01*
X-17684Y192105D01*
X-17670D01*
X-17407Y191938D01*
X-17171Y191730D01*
X-16977Y191522D01*
X-16810Y191314D01*
X-16686Y191134D01*
X-16602Y190981D01*
X-16575Y190926D01*
X-16547Y190884D01*
X-16533Y190856D01*
Y190842D01*
X-16408Y190510D01*
X-16325Y190177D01*
X-16256Y189844D01*
X-16214Y189539D01*
X-16200Y189400D01*
X-16186Y189275D01*
Y189165D01*
X-16173Y189067D01*
Y188984D01*
Y188929D01*
Y188887D01*
Y188873D01*
X-16186Y188554D01*
X-16214Y188263D01*
X-16256Y187972D01*
X-16311Y187722D01*
X-16367Y187472D01*
X-16450Y187264D01*
X-16519Y187057D01*
X-16602Y186876D01*
X-16686Y186724D01*
X-16755Y186585D01*
X-16838Y186460D01*
X-16894Y186363D01*
X-16949Y186294D01*
X-16991Y186238D01*
X-17019Y186210D01*
X-17032Y186197D01*
X-17199Y186030D01*
X-17379Y185891D01*
X-17559Y185767D01*
X-17754Y185656D01*
X-17948Y185573D01*
X-18128Y185489D01*
X-18503Y185378D01*
X-18669Y185351D01*
X-18822Y185323D01*
X-18960Y185295D01*
X-19085Y185281D01*
X-19182Y185267D01*
X-19321D01*
X-19529Y185281D01*
X-19737Y185295D01*
X-20097Y185378D01*
X-20430Y185476D01*
X-20708Y185600D01*
X-20819Y185670D01*
X-20929Y185725D01*
X-21026Y185781D01*
X-21096Y185836D01*
X-21151Y185878D01*
X-21193Y185905D01*
X-21221Y185919D01*
X-21235Y185933D01*
X-21373Y186072D01*
X-21498Y186210D01*
X-21720Y186516D01*
X-21900Y186835D01*
X-22025Y187126D01*
X-22122Y187403D01*
X-22150Y187514D01*
X-22178Y187625D01*
X-22192Y187708D01*
X-22205Y187764D01*
X-22219Y187805D01*
Y187819D01*
X-21054Y187972D01*
X-20999Y187667D01*
X-20916Y187389D01*
X-20805Y187167D01*
X-20708Y186987D01*
X-20610Y186835D01*
X-20527Y186737D01*
X-20486Y186668D01*
X-20458Y186654D01*
X-20278Y186516D01*
X-20083Y186418D01*
X-19889Y186335D01*
X-19709Y186294D01*
X-19556Y186266D01*
X-19418Y186252D01*
X-19335Y186238D01*
X-19307D01*
X-19154Y186252D01*
X-19002Y186266D01*
X-18724Y186335D01*
X-18489Y186432D01*
X-18281Y186557D01*
X-18128Y186668D01*
X-18003Y186765D01*
X-17934Y186835D01*
X-17906Y186862D01*
X-17809Y186987D01*
X-17726Y187140D01*
X-17601Y187445D01*
X-17504Y187792D01*
X-17449Y188124D01*
X-17407Y188429D01*
X-17393Y188554D01*
Y188679D01*
X-17379Y188762D01*
Y188846D01*
Y188887D01*
Y188901D01*
Y189151D01*
X-17407Y189386D01*
X-17435Y189608D01*
X-17462Y189802D01*
X-17504Y189983D01*
X-17559Y190149D01*
X-17601Y190302D01*
X-17657Y190440D01*
X-17712Y190551D01*
X-17754Y190648D01*
X-17809Y190732D01*
X-17851Y190801D01*
X-17878Y190856D01*
X-17906Y190898D01*
X-17934Y190912D01*
Y190926D01*
X-18045Y191037D01*
X-18156Y191134D01*
X-18391Y191300D01*
X-18641Y191411D01*
X-18863Y191481D01*
X-19071Y191536D01*
X-19224Y191550D01*
X-19293Y191564D01*
X-19376D01*
X-19584Y191550D01*
X-19778Y191508D01*
X-19945Y191453D01*
X-20097Y191383D01*
X-20208Y191314D01*
X-20305Y191259D01*
X-20361Y191217D01*
X-20375Y191203D01*
X-20513Y191064D01*
X-20638Y190898D01*
X-20749Y190718D01*
X-20819Y190551D01*
X-20888Y190399D01*
X-20929Y190274D01*
X-20943Y190191D01*
X-20957Y190177D01*
Y190163D01*
X-22108Y190343D01*
X-22011Y190718D01*
X-21872Y191037D01*
X-21720Y191314D01*
X-21567Y191536D01*
X-21415Y191716D01*
X-21290Y191841D01*
X-21207Y191924D01*
X-21193Y191952D01*
X-21179D01*
X-20888Y192146D01*
X-20583Y192285D01*
X-20278Y192396D01*
X-19986Y192465D01*
X-19723Y192507D01*
X-19612Y192521D01*
X-19529D01*
X-19446Y192535D01*
X-19335D01*
X-19002Y192521D01*
D02*
G37*
G36*
X-40733Y192521D02*
X-40484Y192493D01*
X-40248Y192451D01*
X-40026Y192382D01*
X-39818Y192313D01*
X-39624Y192229D01*
X-39444Y192146D01*
X-39291Y192049D01*
X-39139Y191966D01*
X-39014Y191869D01*
X-38903Y191786D01*
X-38820Y191716D01*
X-38750Y191647D01*
X-38695Y191605D01*
X-38667Y191577D01*
X-38653Y191564D01*
X-38501Y191369D01*
X-38362Y191161D01*
X-38237Y190954D01*
X-38126Y190732D01*
X-38043Y190496D01*
X-37974Y190274D01*
X-37863Y189830D01*
X-37821Y189636D01*
X-37793Y189442D01*
X-37780Y189275D01*
X-37766Y189123D01*
X-37752Y188998D01*
Y188915D01*
Y188846D01*
Y188832D01*
X-37766Y188526D01*
X-37793Y188235D01*
X-37835Y187958D01*
X-37891Y187708D01*
X-37960Y187472D01*
X-38029Y187251D01*
X-38112Y187056D01*
X-38196Y186876D01*
X-38279Y186724D01*
X-38362Y186585D01*
X-38431Y186474D01*
X-38501Y186377D01*
X-38556Y186294D01*
X-38598Y186238D01*
X-38626Y186210D01*
X-38639Y186197D01*
X-38820Y186030D01*
X-39000Y185891D01*
X-39194Y185767D01*
X-39402Y185656D01*
X-39596Y185572D01*
X-39804Y185489D01*
X-40193Y185378D01*
X-40373Y185351D01*
X-40539Y185323D01*
X-40692Y185295D01*
X-40817Y185281D01*
X-40914Y185267D01*
X-41066D01*
X-41496Y185295D01*
X-41885Y185364D01*
X-42231Y185448D01*
X-42370Y185503D01*
X-42509Y185559D01*
X-42634Y185614D01*
X-42744Y185670D01*
X-42828Y185711D01*
X-42911Y185753D01*
X-42966Y185794D01*
X-43008Y185822D01*
X-43036Y185850D01*
X-43050D01*
X-43327Y186099D01*
X-43549Y186363D01*
X-43743Y186640D01*
X-43882Y186904D01*
X-43993Y187140D01*
X-44034Y187251D01*
X-44076Y187334D01*
X-44103Y187417D01*
X-44117Y187472D01*
X-44131Y187500D01*
Y187514D01*
X-42911Y187667D01*
X-42800Y187403D01*
X-42675Y187181D01*
X-42550Y186987D01*
X-42439Y186835D01*
X-42342Y186724D01*
X-42259Y186640D01*
X-42190Y186585D01*
X-42176Y186571D01*
X-41996Y186460D01*
X-41815Y186377D01*
X-41621Y186321D01*
X-41455Y186280D01*
X-41302Y186252D01*
X-41177Y186238D01*
X-41066D01*
X-40900Y186252D01*
X-40747Y186266D01*
X-40470Y186335D01*
X-40220Y186432D01*
X-39999Y186543D01*
X-39832Y186640D01*
X-39707Y186737D01*
X-39624Y186807D01*
X-39610Y186835D01*
X-39596D01*
X-39402Y187084D01*
X-39250Y187362D01*
X-39139Y187667D01*
X-39055Y187944D01*
X-39014Y188194D01*
X-38986Y188305D01*
X-38972Y188402D01*
Y188485D01*
X-38958Y188540D01*
Y188582D01*
Y188596D01*
X-44159D01*
X-44173Y188734D01*
Y188832D01*
Y188887D01*
Y188901D01*
X-44159Y189220D01*
X-44131Y189511D01*
X-44090Y189788D01*
X-44034Y190052D01*
X-43965Y190288D01*
X-43896Y190510D01*
X-43812Y190704D01*
X-43729Y190884D01*
X-43646Y191050D01*
X-43563Y191189D01*
X-43493Y191300D01*
X-43424Y191397D01*
X-43369Y191481D01*
X-43327Y191536D01*
X-43299Y191564D01*
X-43285Y191577D01*
X-43119Y191744D01*
X-42939Y191896D01*
X-42744Y192021D01*
X-42550Y192132D01*
X-42356Y192229D01*
X-42176Y192299D01*
X-41982Y192368D01*
X-41815Y192410D01*
X-41635Y192451D01*
X-41482Y192479D01*
X-41344Y192507D01*
X-41233Y192521D01*
X-41136Y192535D01*
X-40997D01*
X-40733Y192521D01*
D02*
G37*
G36*
X19275Y192521D02*
X19525Y192479D01*
X19747Y192423D01*
X19969Y192354D01*
X20163Y192271D01*
X20343Y192174D01*
X20509Y192063D01*
X20648Y191966D01*
X20787Y191855D01*
X20898Y191744D01*
X20995Y191647D01*
X21078Y191564D01*
X21133Y191494D01*
X21175Y191439D01*
X21203Y191397D01*
X21217Y191383D01*
Y192382D01*
X22271D01*
Y185420D01*
X21092D01*
Y189206D01*
Y189442D01*
X21064Y189678D01*
X21036Y189872D01*
X21009Y190052D01*
X20967Y190219D01*
X20925Y190371D01*
X20870Y190510D01*
X20814Y190621D01*
X20773Y190718D01*
X20717Y190801D01*
X20676Y190870D01*
X20634Y190926D01*
X20579Y190995D01*
X20551Y191023D01*
X20343Y191189D01*
X20121Y191300D01*
X19899Y191383D01*
X19705Y191453D01*
X19525Y191481D01*
X19386Y191494D01*
X19331Y191508D01*
X19261D01*
X19095Y191494D01*
X18928Y191481D01*
X18790Y191439D01*
X18679Y191397D01*
X18582Y191356D01*
X18498Y191328D01*
X18457Y191300D01*
X18443Y191286D01*
X18318Y191203D01*
X18207Y191106D01*
X18124Y191009D01*
X18055Y190926D01*
X18013Y190842D01*
X17971Y190773D01*
X17944Y190732D01*
Y190718D01*
X17902Y190565D01*
X17860Y190399D01*
X17833Y190219D01*
X17819Y190038D01*
X17805Y189886D01*
Y189761D01*
Y189664D01*
Y189650D01*
Y189636D01*
Y185420D01*
X16626D01*
Y189692D01*
Y189983D01*
X16640Y190219D01*
X16654Y190413D01*
Y190579D01*
X16668Y190690D01*
X16682Y190773D01*
X16695Y190829D01*
Y190842D01*
X16737Y191023D01*
X16806Y191189D01*
X16862Y191328D01*
X16917Y191467D01*
X16987Y191564D01*
X17028Y191633D01*
X17056Y191688D01*
X17070Y191702D01*
X17181Y191841D01*
X17306Y191952D01*
X17430Y192063D01*
X17569Y192146D01*
X17680Y192215D01*
X17777Y192257D01*
X17833Y192285D01*
X17860Y192299D01*
X18055Y192382D01*
X18263Y192437D01*
X18457Y192479D01*
X18637Y192507D01*
X18790Y192521D01*
X18901Y192535D01*
X19011D01*
X19275Y192521D01*
D02*
G37*
G36*
X-279Y185420D02*
X-7449D01*
Y186557D01*
X-1555D01*
Y189816D01*
X-6867D01*
Y190954D01*
X-1555D01*
Y193880D01*
X-7228D01*
Y195017D01*
X-279D01*
Y185420D01*
D02*
G37*
G36*
X-12054Y192521D02*
X-11804Y192479D01*
X-11582Y192423D01*
X-11360Y192354D01*
X-11166Y192271D01*
X-10986Y192174D01*
X-10819Y192063D01*
X-10681Y191966D01*
X-10542Y191855D01*
X-10431Y191744D01*
X-10334Y191647D01*
X-10251Y191564D01*
X-10195Y191494D01*
X-10154Y191439D01*
X-10126Y191397D01*
X-10112Y191383D01*
Y192382D01*
X-9058D01*
Y185420D01*
X-10237D01*
Y189206D01*
Y189442D01*
X-10265Y189678D01*
X-10292Y189872D01*
X-10320Y190052D01*
X-10362Y190219D01*
X-10403Y190371D01*
X-10459Y190510D01*
X-10514Y190621D01*
X-10556Y190718D01*
X-10611Y190801D01*
X-10653Y190870D01*
X-10695Y190926D01*
X-10750Y190995D01*
X-10778Y191023D01*
X-10986Y191189D01*
X-11208Y191300D01*
X-11430Y191383D01*
X-11624Y191453D01*
X-11804Y191481D01*
X-11943Y191494D01*
X-11998Y191508D01*
X-12068D01*
X-12234Y191494D01*
X-12400Y191481D01*
X-12539Y191439D01*
X-12650Y191397D01*
X-12747Y191356D01*
X-12830Y191328D01*
X-12872Y191300D01*
X-12886Y191286D01*
X-13011Y191203D01*
X-13122Y191106D01*
X-13205Y191009D01*
X-13274Y190926D01*
X-13316Y190842D01*
X-13357Y190773D01*
X-13385Y190732D01*
Y190718D01*
X-13427Y190565D01*
X-13468Y190399D01*
X-13496Y190219D01*
X-13510Y190038D01*
X-13524Y189886D01*
Y189761D01*
Y189664D01*
Y189650D01*
Y189636D01*
Y185420D01*
X-14703D01*
Y189692D01*
Y189983D01*
X-14689Y190219D01*
X-14675Y190413D01*
Y190579D01*
X-14661Y190690D01*
X-14647Y190773D01*
X-14633Y190829D01*
Y190842D01*
X-14592Y191023D01*
X-14522Y191189D01*
X-14467Y191328D01*
X-14411Y191467D01*
X-14342Y191564D01*
X-14300Y191633D01*
X-14273Y191688D01*
X-14259Y191702D01*
X-14148Y191841D01*
X-14023Y191952D01*
X-13898Y192063D01*
X-13759Y192146D01*
X-13649Y192215D01*
X-13551Y192257D01*
X-13496Y192285D01*
X-13468Y192299D01*
X-13274Y192382D01*
X-13066Y192437D01*
X-12872Y192479D01*
X-12692Y192507D01*
X-12539Y192521D01*
X-12428Y192535D01*
X-12317D01*
X-12054Y192521D01*
D02*
G37*
G36*
X-48014Y192521D02*
X-47876Y192493D01*
X-47737Y192451D01*
X-47626Y192410D01*
X-47543Y192368D01*
X-47460Y192326D01*
X-47418Y192299D01*
X-47404Y192285D01*
X-47279Y192174D01*
X-47155Y192035D01*
X-47030Y191869D01*
X-46919Y191716D01*
X-46808Y191564D01*
X-46739Y191439D01*
X-46683Y191342D01*
X-46669Y191328D01*
Y192382D01*
X-45601D01*
Y185420D01*
X-46780D01*
Y189053D01*
X-46794Y189331D01*
X-46808Y189580D01*
X-46836Y189816D01*
X-46877Y190024D01*
X-46919Y190191D01*
X-46947Y190315D01*
X-46960Y190399D01*
X-46974Y190427D01*
X-47030Y190579D01*
X-47099Y190704D01*
X-47168Y190815D01*
X-47238Y190912D01*
X-47307Y190981D01*
X-47349Y191037D01*
X-47390Y191064D01*
X-47404Y191078D01*
X-47515Y191161D01*
X-47640Y191217D01*
X-47765Y191259D01*
X-47862Y191286D01*
X-47959Y191300D01*
X-48028Y191314D01*
X-48098D01*
X-48250Y191300D01*
X-48403Y191272D01*
X-48555Y191231D01*
X-48680Y191189D01*
X-48791Y191148D01*
X-48874Y191106D01*
X-48930Y191078D01*
X-48944Y191064D01*
X-49373Y192146D01*
X-49138Y192271D01*
X-48916Y192368D01*
X-48722Y192437D01*
X-48541Y192493D01*
X-48389Y192521D01*
X-48264Y192535D01*
X-48167D01*
X-48014Y192521D01*
D02*
G37*
G36*
X-25811D02*
X-25589Y192507D01*
X-25159Y192410D01*
X-24785Y192285D01*
X-24618Y192215D01*
X-24466Y192146D01*
X-24327Y192077D01*
X-24216Y192008D01*
X-24105Y191938D01*
X-24022Y191883D01*
X-23953Y191827D01*
X-23897Y191786D01*
X-23870Y191772D01*
X-23856Y191758D01*
X-23661Y191578D01*
X-23509Y191369D01*
X-23356Y191148D01*
X-23245Y190926D01*
X-23135Y190690D01*
X-23051Y190440D01*
X-22982Y190205D01*
X-22926Y189983D01*
X-22871Y189761D01*
X-22843Y189567D01*
X-22816Y189373D01*
X-22802Y189220D01*
Y189081D01*
X-22788Y188984D01*
Y188929D01*
Y188901D01*
X-22802Y188582D01*
X-22829Y188277D01*
X-22871Y187999D01*
X-22926Y187736D01*
X-22996Y187500D01*
X-23065Y187278D01*
X-23148Y187070D01*
X-23232Y186890D01*
X-23315Y186724D01*
X-23398Y186585D01*
X-23467Y186474D01*
X-23537Y186377D01*
X-23592Y186294D01*
X-23634Y186238D01*
X-23661Y186210D01*
X-23675Y186197D01*
X-23856Y186030D01*
X-24036Y185891D01*
X-24230Y185767D01*
X-24424Y185656D01*
X-24618Y185572D01*
X-24827Y185489D01*
X-25201Y185378D01*
X-25367Y185351D01*
X-25534Y185323D01*
X-25672Y185295D01*
X-25797Y185281D01*
X-25908Y185267D01*
X-26047D01*
X-26380Y185281D01*
X-26685Y185337D01*
X-26976Y185406D01*
X-27212Y185475D01*
X-27420Y185559D01*
X-27503Y185586D01*
X-27572Y185614D01*
X-27642Y185642D01*
X-27683Y185670D01*
X-27697Y185683D01*
X-27711D01*
X-27989Y185864D01*
X-28224Y186058D01*
X-28432Y186252D01*
X-28599Y186446D01*
X-28723Y186613D01*
X-28821Y186751D01*
X-28848Y186807D01*
X-28876Y186848D01*
X-28890Y186862D01*
Y186876D01*
X-29029Y187195D01*
X-29126Y187542D01*
X-29209Y187889D01*
X-29251Y188235D01*
X-29278Y188388D01*
Y188526D01*
X-29292Y188665D01*
X-29306Y188776D01*
Y188873D01*
Y188943D01*
Y188984D01*
Y188998D01*
X-29292Y189303D01*
X-29264Y189580D01*
X-29223Y189844D01*
X-29167Y190094D01*
X-29098Y190329D01*
X-29015Y190537D01*
X-28932Y190745D01*
X-28848Y190912D01*
X-28765Y191064D01*
X-28682Y191203D01*
X-28599Y191328D01*
X-28529Y191425D01*
X-28474Y191494D01*
X-28432Y191550D01*
X-28405Y191577D01*
X-28391Y191591D01*
X-28210Y191758D01*
X-28030Y191896D01*
X-27836Y192035D01*
X-27642Y192132D01*
X-27448Y192229D01*
X-27253Y192299D01*
X-26879Y192423D01*
X-26699Y192451D01*
X-26546Y192479D01*
X-26407Y192507D01*
X-26283Y192521D01*
X-26186Y192535D01*
X-26047D01*
X-25811Y192521D01*
D02*
G37*
G36*
X-35103Y191577D02*
X-34978Y191730D01*
X-34839Y191855D01*
X-34715Y191980D01*
X-34576Y192077D01*
X-34465Y192146D01*
X-34382Y192215D01*
X-34326Y192243D01*
X-34299Y192257D01*
X-34118Y192354D01*
X-33924Y192423D01*
X-33730Y192465D01*
X-33550Y192507D01*
X-33397Y192521D01*
X-33286Y192535D01*
X-33175D01*
X-32870Y192521D01*
X-32579Y192465D01*
X-32315Y192396D01*
X-32094Y192313D01*
X-31899Y192215D01*
X-31761Y192146D01*
X-31705Y192118D01*
X-31664Y192091D01*
X-31650Y192077D01*
X-31636D01*
X-31386Y191896D01*
X-31178Y191675D01*
X-30998Y191467D01*
X-30859Y191259D01*
X-30748Y191064D01*
X-30665Y190912D01*
X-30637Y190856D01*
X-30610Y190815D01*
X-30596Y190787D01*
Y190773D01*
X-30485Y190454D01*
X-30402Y190121D01*
X-30332Y189802D01*
X-30291Y189511D01*
X-30263Y189261D01*
Y189151D01*
X-30249Y189067D01*
Y188984D01*
Y188929D01*
Y188901D01*
Y188887D01*
X-30263Y188499D01*
X-30305Y188138D01*
X-30374Y187819D01*
X-30443Y187542D01*
X-30471Y187417D01*
X-30499Y187320D01*
X-30540Y187223D01*
X-30568Y187140D01*
X-30596Y187084D01*
X-30610Y187043D01*
X-30624Y187015D01*
Y187001D01*
X-30776Y186710D01*
X-30956Y186460D01*
X-31137Y186238D01*
X-31317Y186058D01*
X-31469Y185919D01*
X-31594Y185808D01*
X-31677Y185753D01*
X-31691Y185725D01*
X-31705D01*
X-31969Y185572D01*
X-32232Y185462D01*
X-32496Y185378D01*
X-32731Y185323D01*
X-32926Y185295D01*
X-33092Y185281D01*
X-33147Y185267D01*
X-33231D01*
X-33466Y185281D01*
X-33688Y185309D01*
X-33896Y185364D01*
X-34077Y185434D01*
X-34257Y185503D01*
X-34423Y185586D01*
X-34562Y185683D01*
X-34687Y185781D01*
X-34812Y185878D01*
X-34909Y185975D01*
X-34992Y186058D01*
X-35061Y186127D01*
X-35117Y186197D01*
X-35158Y186252D01*
X-35172Y186280D01*
X-35186Y186294D01*
Y185420D01*
X-36282D01*
Y195017D01*
X-35103D01*
Y191577D01*
D02*
G37*
G36*
X33668Y-70399D02*
X34043Y-70469D01*
X34362Y-70580D01*
X34639Y-70690D01*
X34764Y-70760D01*
X34861Y-70815D01*
X34958Y-70871D01*
X35027Y-70926D01*
X35083Y-70968D01*
X35124Y-70995D01*
X35152Y-71009D01*
X35166Y-71023D01*
X35430Y-71287D01*
X35638Y-71578D01*
X35804Y-71883D01*
X35943Y-72188D01*
X36026Y-72452D01*
X36068Y-72563D01*
X36095Y-72660D01*
X36109Y-72743D01*
X36123Y-72798D01*
X36137Y-72840D01*
Y-72854D01*
X34958Y-73062D01*
X34903Y-72757D01*
X34819Y-72493D01*
X34722Y-72271D01*
X34625Y-72091D01*
X34528Y-71953D01*
X34445Y-71855D01*
X34390Y-71786D01*
X34376Y-71772D01*
X34195Y-71634D01*
X34001Y-71522D01*
X33821Y-71453D01*
X33641Y-71398D01*
X33474Y-71370D01*
X33349Y-71342D01*
X33238D01*
X32989Y-71356D01*
X32767Y-71412D01*
X32573Y-71481D01*
X32406Y-71550D01*
X32281Y-71634D01*
X32184Y-71703D01*
X32115Y-71758D01*
X32101Y-71772D01*
X31949Y-71939D01*
X31838Y-72119D01*
X31768Y-72299D01*
X31713Y-72466D01*
X31685Y-72618D01*
X31657Y-72729D01*
Y-72812D01*
Y-72826D01*
Y-72840D01*
Y-72993D01*
X31685Y-73131D01*
X31755Y-73367D01*
X31852Y-73575D01*
X31962Y-73755D01*
X32074Y-73880D01*
X32171Y-73977D01*
X32240Y-74033D01*
X32254Y-74047D01*
X32268D01*
X32503Y-74171D01*
X32725Y-74268D01*
X32961Y-74338D01*
X33169Y-74379D01*
X33349Y-74407D01*
X33502Y-74435D01*
X33682D01*
X33738Y-74421D01*
X33807D01*
X33946Y-75461D01*
X33765Y-75420D01*
X33599Y-75392D01*
X33460Y-75364D01*
X33335Y-75350D01*
X33238Y-75336D01*
X33114D01*
X32822Y-75364D01*
X32559Y-75420D01*
X32323Y-75503D01*
X32129Y-75600D01*
X31976Y-75697D01*
X31865Y-75780D01*
X31796Y-75836D01*
X31768Y-75863D01*
X31588Y-76071D01*
X31449Y-76293D01*
X31352Y-76515D01*
X31297Y-76737D01*
X31255Y-76917D01*
X31241Y-77070D01*
X31228Y-77125D01*
Y-77167D01*
Y-77195D01*
Y-77209D01*
X31255Y-77514D01*
X31325Y-77791D01*
X31408Y-78027D01*
X31519Y-78235D01*
X31630Y-78401D01*
X31713Y-78526D01*
X31782Y-78609D01*
X31810Y-78637D01*
X32032Y-78831D01*
X32268Y-78970D01*
X32503Y-79067D01*
X32725Y-79136D01*
X32919Y-79178D01*
X33072Y-79192D01*
X33128Y-79206D01*
X33211D01*
X33460Y-79192D01*
X33696Y-79136D01*
X33904Y-79067D01*
X34070Y-78984D01*
X34209Y-78914D01*
X34320Y-78845D01*
X34376Y-78790D01*
X34403Y-78776D01*
X34570Y-78582D01*
X34708Y-78360D01*
X34833Y-78124D01*
X34930Y-77874D01*
X35000Y-77666D01*
X35027Y-77569D01*
X35041Y-77486D01*
X35055Y-77417D01*
X35069Y-77361D01*
X35083Y-77333D01*
Y-77319D01*
X36262Y-77472D01*
X36234Y-77694D01*
X36192Y-77902D01*
X36068Y-78290D01*
X35915Y-78623D01*
X35832Y-78762D01*
X35749Y-78900D01*
X35665Y-79025D01*
X35582Y-79122D01*
X35513Y-79219D01*
X35443Y-79289D01*
X35402Y-79344D01*
X35360Y-79386D01*
X35333Y-79414D01*
X35319Y-79427D01*
X35152Y-79552D01*
X34986Y-79677D01*
X34819Y-79774D01*
X34639Y-79857D01*
X34292Y-79996D01*
X33960Y-80079D01*
X33807Y-80107D01*
X33668Y-80135D01*
X33544Y-80149D01*
X33433Y-80163D01*
X33349Y-80176D01*
X33225D01*
X32961Y-80163D01*
X32725Y-80135D01*
X32490Y-80093D01*
X32268Y-80038D01*
X32060Y-79968D01*
X31879Y-79899D01*
X31699Y-79816D01*
X31546Y-79733D01*
X31394Y-79663D01*
X31269Y-79580D01*
X31158Y-79511D01*
X31075Y-79441D01*
X31006Y-79386D01*
X30950Y-79344D01*
X30922Y-79317D01*
X30909Y-79303D01*
X30742Y-79136D01*
X30603Y-78956D01*
X30479Y-78776D01*
X30368Y-78595D01*
X30285Y-78429D01*
X30201Y-78249D01*
X30090Y-77916D01*
X30063Y-77763D01*
X30035Y-77625D01*
X30007Y-77500D01*
X29993Y-77389D01*
X29979Y-77306D01*
Y-77236D01*
Y-77195D01*
Y-77181D01*
X29993Y-76848D01*
X30049Y-76543D01*
X30132Y-76279D01*
X30215Y-76058D01*
X30298Y-75877D01*
X30382Y-75739D01*
X30437Y-75655D01*
X30451Y-75628D01*
X30645Y-75420D01*
X30853Y-75239D01*
X31075Y-75101D01*
X31297Y-74990D01*
X31491Y-74906D01*
X31644Y-74851D01*
X31699Y-74837D01*
X31741Y-74823D01*
X31768Y-74809D01*
X31782D01*
X31546Y-74685D01*
X31352Y-74560D01*
X31186Y-74421D01*
X31047Y-74296D01*
X30936Y-74185D01*
X30853Y-74088D01*
X30812Y-74033D01*
X30798Y-74005D01*
X30687Y-73811D01*
X30603Y-73617D01*
X30534Y-73422D01*
X30492Y-73242D01*
X30465Y-73090D01*
X30451Y-72979D01*
Y-72895D01*
Y-72868D01*
X30465Y-72632D01*
X30506Y-72396D01*
X30562Y-72188D01*
X30631Y-72008D01*
X30701Y-71855D01*
X30756Y-71731D01*
X30798Y-71661D01*
X30812Y-71634D01*
X30950Y-71425D01*
X31117Y-71245D01*
X31283Y-71093D01*
X31449Y-70954D01*
X31588Y-70857D01*
X31713Y-70774D01*
X31796Y-70732D01*
X31810Y-70718D01*
X31824D01*
X32074Y-70607D01*
X32323Y-70524D01*
X32573Y-70455D01*
X32795Y-70413D01*
X32975Y-70385D01*
X33128Y-70371D01*
X33474D01*
X33668Y-70399D01*
D02*
G37*
G36*
X-33482Y-70399D02*
X-33108Y-70469D01*
X-32789Y-70580D01*
X-32512Y-70690D01*
X-32387Y-70760D01*
X-32290Y-70815D01*
X-32193Y-70871D01*
X-32123Y-70926D01*
X-32068Y-70968D01*
X-32026Y-70996D01*
X-31999Y-71009D01*
X-31985Y-71023D01*
X-31721Y-71287D01*
X-31513Y-71578D01*
X-31347Y-71883D01*
X-31208Y-72188D01*
X-31125Y-72452D01*
X-31083Y-72563D01*
X-31056Y-72660D01*
X-31042Y-72743D01*
X-31028Y-72799D01*
X-31014Y-72840D01*
Y-72854D01*
X-32193Y-73062D01*
X-32248Y-72757D01*
X-32331Y-72493D01*
X-32428Y-72271D01*
X-32525Y-72091D01*
X-32623Y-71953D01*
X-32706Y-71855D01*
X-32761Y-71786D01*
X-32775Y-71772D01*
X-32955Y-71634D01*
X-33150Y-71523D01*
X-33330Y-71453D01*
X-33510Y-71398D01*
X-33677Y-71370D01*
X-33801Y-71342D01*
X-33912D01*
X-34162Y-71356D01*
X-34384Y-71412D01*
X-34578Y-71481D01*
X-34745Y-71550D01*
X-34869Y-71634D01*
X-34966Y-71703D01*
X-35036Y-71758D01*
X-35050Y-71772D01*
X-35202Y-71939D01*
X-35313Y-72119D01*
X-35382Y-72299D01*
X-35438Y-72466D01*
X-35466Y-72618D01*
X-35493Y-72729D01*
Y-72812D01*
Y-72826D01*
Y-72840D01*
Y-72993D01*
X-35466Y-73131D01*
X-35396Y-73367D01*
X-35299Y-73575D01*
X-35188Y-73755D01*
X-35077Y-73880D01*
X-34980Y-73977D01*
X-34911Y-74033D01*
X-34897Y-74047D01*
X-34883D01*
X-34647Y-74171D01*
X-34425Y-74268D01*
X-34190Y-74338D01*
X-33982Y-74380D01*
X-33801Y-74407D01*
X-33649Y-74435D01*
X-33469D01*
X-33413Y-74421D01*
X-33344D01*
X-33205Y-75461D01*
X-33385Y-75420D01*
X-33552Y-75392D01*
X-33691Y-75364D01*
X-33815Y-75350D01*
X-33912Y-75336D01*
X-34037D01*
X-34328Y-75364D01*
X-34592Y-75420D01*
X-34828Y-75503D01*
X-35022Y-75600D01*
X-35174Y-75697D01*
X-35285Y-75780D01*
X-35355Y-75836D01*
X-35382Y-75863D01*
X-35563Y-76071D01*
X-35701Y-76293D01*
X-35798Y-76515D01*
X-35854Y-76737D01*
X-35896Y-76917D01*
X-35909Y-77070D01*
X-35923Y-77125D01*
Y-77167D01*
Y-77195D01*
Y-77209D01*
X-35896Y-77514D01*
X-35826Y-77791D01*
X-35743Y-78027D01*
X-35632Y-78235D01*
X-35521Y-78401D01*
X-35438Y-78526D01*
X-35368Y-78609D01*
X-35341Y-78637D01*
X-35119Y-78831D01*
X-34883Y-78970D01*
X-34647Y-79067D01*
X-34425Y-79136D01*
X-34231Y-79178D01*
X-34079Y-79192D01*
X-34023Y-79206D01*
X-33940D01*
X-33691Y-79192D01*
X-33455Y-79136D01*
X-33247Y-79067D01*
X-33080Y-78984D01*
X-32942Y-78914D01*
X-32831Y-78845D01*
X-32775Y-78790D01*
X-32747Y-78776D01*
X-32581Y-78582D01*
X-32442Y-78360D01*
X-32318Y-78124D01*
X-32220Y-77874D01*
X-32151Y-77666D01*
X-32123Y-77569D01*
X-32109Y-77486D01*
X-32096Y-77417D01*
X-32082Y-77361D01*
X-32068Y-77333D01*
Y-77320D01*
X-30889Y-77472D01*
X-30917Y-77694D01*
X-30958Y-77902D01*
X-31083Y-78290D01*
X-31236Y-78623D01*
X-31319Y-78762D01*
X-31402Y-78901D01*
X-31485Y-79025D01*
X-31569Y-79122D01*
X-31638Y-79219D01*
X-31707Y-79289D01*
X-31749Y-79344D01*
X-31790Y-79386D01*
X-31818Y-79414D01*
X-31832Y-79428D01*
X-31999Y-79552D01*
X-32165Y-79677D01*
X-32331Y-79774D01*
X-32512Y-79858D01*
X-32858Y-79996D01*
X-33191Y-80079D01*
X-33344Y-80107D01*
X-33482Y-80135D01*
X-33607Y-80149D01*
X-33718Y-80163D01*
X-33801Y-80176D01*
X-33926D01*
X-34190Y-80163D01*
X-34425Y-80135D01*
X-34661Y-80093D01*
X-34883Y-80038D01*
X-35091Y-79968D01*
X-35271Y-79899D01*
X-35452Y-79816D01*
X-35604Y-79733D01*
X-35757Y-79663D01*
X-35882Y-79580D01*
X-35993Y-79511D01*
X-36076Y-79441D01*
X-36145Y-79386D01*
X-36201Y-79344D01*
X-36228Y-79317D01*
X-36242Y-79303D01*
X-36409Y-79136D01*
X-36547Y-78956D01*
X-36672Y-78776D01*
X-36783Y-78595D01*
X-36866Y-78429D01*
X-36950Y-78249D01*
X-37060Y-77916D01*
X-37088Y-77763D01*
X-37116Y-77625D01*
X-37144Y-77500D01*
X-37158Y-77389D01*
X-37171Y-77306D01*
Y-77236D01*
Y-77195D01*
Y-77181D01*
X-37158Y-76848D01*
X-37102Y-76543D01*
X-37019Y-76279D01*
X-36936Y-76058D01*
X-36853Y-75877D01*
X-36769Y-75739D01*
X-36714Y-75655D01*
X-36700Y-75628D01*
X-36506Y-75420D01*
X-36298Y-75239D01*
X-36076Y-75101D01*
X-35854Y-74990D01*
X-35660Y-74907D01*
X-35507Y-74851D01*
X-35452Y-74837D01*
X-35410Y-74823D01*
X-35382Y-74809D01*
X-35368D01*
X-35604Y-74685D01*
X-35798Y-74560D01*
X-35965Y-74421D01*
X-36104Y-74296D01*
X-36214Y-74185D01*
X-36298Y-74088D01*
X-36339Y-74033D01*
X-36353Y-74005D01*
X-36464Y-73811D01*
X-36547Y-73617D01*
X-36617Y-73422D01*
X-36658Y-73242D01*
X-36686Y-73090D01*
X-36700Y-72979D01*
Y-72895D01*
Y-72868D01*
X-36686Y-72632D01*
X-36644Y-72396D01*
X-36589Y-72188D01*
X-36520Y-72008D01*
X-36450Y-71855D01*
X-36395Y-71731D01*
X-36353Y-71661D01*
X-36339Y-71634D01*
X-36201Y-71425D01*
X-36034Y-71245D01*
X-35868Y-71093D01*
X-35701Y-70954D01*
X-35563Y-70857D01*
X-35438Y-70774D01*
X-35355Y-70732D01*
X-35341Y-70718D01*
X-35327D01*
X-35077Y-70607D01*
X-34828Y-70524D01*
X-34578Y-70455D01*
X-34356Y-70413D01*
X-34176Y-70385D01*
X-34023Y-70371D01*
X-33677D01*
X-33482Y-70399D01*
D02*
G37*
G36*
X10966Y-70385D02*
X11202Y-70399D01*
X11423Y-70441D01*
X11631Y-70482D01*
X11826Y-70538D01*
X12006Y-70593D01*
X12172Y-70663D01*
X12325Y-70732D01*
X12464Y-70801D01*
X12574Y-70871D01*
X12672Y-70926D01*
X12755Y-70982D01*
X12824Y-71023D01*
X12866Y-71065D01*
X12894Y-71079D01*
X12907Y-71093D01*
X13046Y-71231D01*
X13171Y-71384D01*
X13296Y-71550D01*
X13393Y-71717D01*
X13559Y-72049D01*
X13670Y-72382D01*
X13712Y-72535D01*
X13753Y-72688D01*
X13781Y-72812D01*
X13809Y-72923D01*
X13823Y-73020D01*
Y-73090D01*
X13836Y-73131D01*
Y-73145D01*
X12630Y-73270D01*
X12602Y-72951D01*
X12547Y-72674D01*
X12464Y-72424D01*
X12366Y-72230D01*
X12283Y-72063D01*
X12200Y-71953D01*
X12145Y-71883D01*
X12117Y-71855D01*
X11909Y-71689D01*
X11687Y-71564D01*
X11451Y-71467D01*
X11243Y-71412D01*
X11049Y-71370D01*
X10883Y-71356D01*
X10827Y-71342D01*
X10744D01*
X10453Y-71356D01*
X10189Y-71412D01*
X9967Y-71495D01*
X9773Y-71578D01*
X9621Y-71675D01*
X9524Y-71744D01*
X9454Y-71800D01*
X9426Y-71828D01*
X9260Y-72022D01*
X9135Y-72216D01*
X9038Y-72410D01*
X8983Y-72604D01*
X8941Y-72757D01*
X8927Y-72895D01*
X8913Y-72979D01*
Y-72993D01*
Y-73007D01*
X8941Y-73256D01*
X8996Y-73520D01*
X9094Y-73755D01*
X9191Y-73977D01*
X9302Y-74158D01*
X9399Y-74310D01*
X9426Y-74366D01*
X9454Y-74407D01*
X9482Y-74421D01*
Y-74435D01*
X9593Y-74587D01*
X9732Y-74740D01*
X9884Y-74906D01*
X10050Y-75073D01*
X10397Y-75406D01*
X10744Y-75739D01*
X10924Y-75891D01*
X11077Y-76030D01*
X11229Y-76155D01*
X11354Y-76266D01*
X11451Y-76349D01*
X11534Y-76418D01*
X11590Y-76460D01*
X11604Y-76474D01*
X11950Y-76765D01*
X12269Y-77042D01*
X12533Y-77292D01*
X12741Y-77500D01*
X12921Y-77680D01*
X13046Y-77805D01*
X13115Y-77888D01*
X13143Y-77902D01*
Y-77916D01*
X13337Y-78152D01*
X13490Y-78373D01*
X13628Y-78595D01*
X13740Y-78790D01*
X13823Y-78956D01*
X13878Y-79081D01*
X13906Y-79164D01*
X13920Y-79178D01*
Y-79192D01*
X13975Y-79344D01*
X14003Y-79483D01*
X14031Y-79622D01*
X14045Y-79746D01*
X14058Y-79857D01*
Y-79941D01*
Y-79996D01*
Y-80010D01*
X7693D01*
Y-78873D01*
X12422D01*
X12256Y-78637D01*
X12172Y-78540D01*
X12103Y-78443D01*
X12034Y-78360D01*
X11978Y-78304D01*
X11937Y-78263D01*
X11923Y-78249D01*
X11853Y-78179D01*
X11770Y-78110D01*
X11576Y-77930D01*
X11354Y-77722D01*
X11118Y-77514D01*
X10896Y-77333D01*
X10799Y-77250D01*
X10716Y-77167D01*
X10647Y-77112D01*
X10591Y-77070D01*
X10564Y-77042D01*
X10550Y-77028D01*
X10328Y-76834D01*
X10106Y-76654D01*
X9912Y-76474D01*
X9732Y-76321D01*
X9565Y-76168D01*
X9426Y-76030D01*
X9288Y-75905D01*
X9177Y-75794D01*
X9066Y-75683D01*
X8983Y-75600D01*
X8913Y-75531D01*
X8844Y-75461D01*
X8775Y-75378D01*
X8747Y-75350D01*
X8553Y-75114D01*
X8386Y-74906D01*
X8248Y-74698D01*
X8137Y-74532D01*
X8053Y-74379D01*
X7998Y-74268D01*
X7970Y-74199D01*
X7956Y-74171D01*
X7873Y-73963D01*
X7818Y-73755D01*
X7762Y-73561D01*
X7735Y-73395D01*
X7721Y-73242D01*
X7707Y-73131D01*
Y-73062D01*
Y-73034D01*
X7721Y-72826D01*
X7748Y-72632D01*
X7776Y-72438D01*
X7832Y-72271D01*
X7970Y-71939D01*
X8109Y-71675D01*
X8192Y-71550D01*
X8262Y-71453D01*
X8331Y-71356D01*
X8400Y-71287D01*
X8456Y-71231D01*
X8483Y-71176D01*
X8511Y-71162D01*
X8525Y-71148D01*
X8677Y-71009D01*
X8844Y-70885D01*
X9024Y-70788D01*
X9204Y-70704D01*
X9565Y-70566D01*
X9926Y-70469D01*
X10078Y-70441D01*
X10231Y-70413D01*
X10369Y-70399D01*
X10480Y-70385D01*
X10577Y-70371D01*
X10716D01*
X10966Y-70385D01*
D02*
G37*
G36*
X-3957D02*
X-3721Y-70399D01*
X-3499Y-70441D01*
X-3291Y-70482D01*
X-3097Y-70538D01*
X-2916Y-70593D01*
X-2750Y-70663D01*
X-2598Y-70732D01*
X-2459Y-70801D01*
X-2348Y-70871D01*
X-2251Y-70926D01*
X-2168Y-70982D01*
X-2098Y-71023D01*
X-2057Y-71065D01*
X-2029Y-71079D01*
X-2015Y-71093D01*
X-1876Y-71231D01*
X-1752Y-71384D01*
X-1627Y-71550D01*
X-1530Y-71717D01*
X-1363Y-72049D01*
X-1252Y-72382D01*
X-1211Y-72535D01*
X-1169Y-72688D01*
X-1141Y-72812D01*
X-1114Y-72923D01*
X-1100Y-73020D01*
Y-73090D01*
X-1086Y-73131D01*
Y-73145D01*
X-2292Y-73270D01*
X-2320Y-72951D01*
X-2376Y-72674D01*
X-2459Y-72424D01*
X-2556Y-72230D01*
X-2639Y-72063D01*
X-2722Y-71953D01*
X-2778Y-71883D01*
X-2806Y-71855D01*
X-3014Y-71689D01*
X-3235Y-71564D01*
X-3471Y-71467D01*
X-3679Y-71412D01*
X-3873Y-71370D01*
X-4040Y-71356D01*
X-4095Y-71342D01*
X-4178D01*
X-4470Y-71356D01*
X-4733Y-71412D01*
X-4955Y-71495D01*
X-5149Y-71578D01*
X-5302Y-71675D01*
X-5399Y-71744D01*
X-5468Y-71800D01*
X-5496Y-71828D01*
X-5662Y-72022D01*
X-5787Y-72216D01*
X-5884Y-72410D01*
X-5940Y-72604D01*
X-5981Y-72757D01*
X-5995Y-72895D01*
X-6009Y-72979D01*
Y-72993D01*
Y-73007D01*
X-5981Y-73256D01*
X-5926Y-73520D01*
X-5829Y-73755D01*
X-5732Y-73977D01*
X-5621Y-74158D01*
X-5524Y-74310D01*
X-5496Y-74366D01*
X-5468Y-74407D01*
X-5440Y-74421D01*
Y-74435D01*
X-5330Y-74587D01*
X-5191Y-74740D01*
X-5038Y-74906D01*
X-4872Y-75073D01*
X-4525Y-75406D01*
X-4178Y-75739D01*
X-3998Y-75891D01*
X-3846Y-76030D01*
X-3693Y-76155D01*
X-3568Y-76266D01*
X-3471Y-76349D01*
X-3388Y-76418D01*
X-3332Y-76460D01*
X-3319Y-76474D01*
X-2972Y-76765D01*
X-2653Y-77042D01*
X-2389Y-77292D01*
X-2182Y-77500D01*
X-2001Y-77680D01*
X-1876Y-77805D01*
X-1807Y-77888D01*
X-1779Y-77902D01*
Y-77916D01*
X-1585Y-78152D01*
X-1433Y-78373D01*
X-1294Y-78595D01*
X-1183Y-78790D01*
X-1100Y-78956D01*
X-1044Y-79081D01*
X-1016Y-79164D01*
X-1003Y-79178D01*
Y-79192D01*
X-947Y-79344D01*
X-919Y-79483D01*
X-892Y-79622D01*
X-878Y-79746D01*
X-864Y-79857D01*
Y-79941D01*
Y-79996D01*
Y-80010D01*
X-7230D01*
Y-78873D01*
X-2500D01*
X-2667Y-78637D01*
X-2750Y-78540D01*
X-2819Y-78443D01*
X-2889Y-78360D01*
X-2944Y-78304D01*
X-2986Y-78263D01*
X-3000Y-78249D01*
X-3069Y-78179D01*
X-3152Y-78110D01*
X-3346Y-77930D01*
X-3568Y-77722D01*
X-3804Y-77514D01*
X-4026Y-77333D01*
X-4123Y-77250D01*
X-4206Y-77167D01*
X-4276Y-77112D01*
X-4331Y-77070D01*
X-4359Y-77042D01*
X-4373Y-77028D01*
X-4595Y-76834D01*
X-4816Y-76654D01*
X-5011Y-76474D01*
X-5191Y-76321D01*
X-5357Y-76168D01*
X-5496Y-76030D01*
X-5635Y-75905D01*
X-5746Y-75794D01*
X-5857Y-75683D01*
X-5940Y-75600D01*
X-6009Y-75531D01*
X-6079Y-75461D01*
X-6148Y-75378D01*
X-6176Y-75350D01*
X-6370Y-75114D01*
X-6536Y-74906D01*
X-6675Y-74698D01*
X-6786Y-74532D01*
X-6869Y-74379D01*
X-6924Y-74268D01*
X-6952Y-74199D01*
X-6966Y-74171D01*
X-7049Y-73963D01*
X-7105Y-73755D01*
X-7160Y-73561D01*
X-7188Y-73395D01*
X-7202Y-73242D01*
X-7216Y-73131D01*
Y-73062D01*
Y-73034D01*
X-7202Y-72826D01*
X-7174Y-72632D01*
X-7146Y-72438D01*
X-7091Y-72271D01*
X-6952Y-71939D01*
X-6813Y-71675D01*
X-6730Y-71550D01*
X-6661Y-71453D01*
X-6592Y-71356D01*
X-6522Y-71287D01*
X-6467Y-71231D01*
X-6439Y-71176D01*
X-6411Y-71162D01*
X-6397Y-71148D01*
X-6245Y-71009D01*
X-6079Y-70885D01*
X-5898Y-70788D01*
X-5718Y-70704D01*
X-5357Y-70566D01*
X-4997Y-70469D01*
X-4844Y-70441D01*
X-4692Y-70413D01*
X-4553Y-70399D01*
X-4442Y-70385D01*
X-4345Y-70371D01*
X-4206D01*
X-3957Y-70385D01*
D02*
G37*
G36*
X-11418D02*
X-11182Y-70399D01*
X-10960Y-70441D01*
X-10752Y-70482D01*
X-10558Y-70538D01*
X-10378Y-70593D01*
X-10211Y-70663D01*
X-10059Y-70732D01*
X-9920Y-70801D01*
X-9809Y-70871D01*
X-9712Y-70926D01*
X-9629Y-70982D01*
X-9559Y-71023D01*
X-9518Y-71065D01*
X-9490Y-71079D01*
X-9476Y-71093D01*
X-9337Y-71231D01*
X-9213Y-71384D01*
X-9088Y-71550D01*
X-8991Y-71717D01*
X-8824Y-72049D01*
X-8713Y-72382D01*
X-8672Y-72535D01*
X-8630Y-72688D01*
X-8602Y-72812D01*
X-8575Y-72923D01*
X-8561Y-73020D01*
Y-73090D01*
X-8547Y-73131D01*
Y-73145D01*
X-9754Y-73270D01*
X-9781Y-72951D01*
X-9837Y-72674D01*
X-9920Y-72424D01*
X-10017Y-72230D01*
X-10100Y-72063D01*
X-10184Y-71953D01*
X-10239Y-71883D01*
X-10267Y-71855D01*
X-10475Y-71689D01*
X-10697Y-71564D01*
X-10932Y-71467D01*
X-11140Y-71412D01*
X-11335Y-71370D01*
X-11501Y-71356D01*
X-11557Y-71342D01*
X-11640D01*
X-11931Y-71356D01*
X-12194Y-71412D01*
X-12416Y-71495D01*
X-12610Y-71578D01*
X-12763Y-71675D01*
X-12860Y-71744D01*
X-12930Y-71800D01*
X-12957Y-71828D01*
X-13124Y-72022D01*
X-13248Y-72216D01*
X-13346Y-72410D01*
X-13401Y-72604D01*
X-13443Y-72757D01*
X-13456Y-72895D01*
X-13470Y-72979D01*
Y-72993D01*
Y-73007D01*
X-13443Y-73256D01*
X-13387Y-73520D01*
X-13290Y-73755D01*
X-13193Y-73977D01*
X-13082Y-74158D01*
X-12985Y-74310D01*
X-12957Y-74366D01*
X-12930Y-74407D01*
X-12902Y-74421D01*
Y-74435D01*
X-12791Y-74587D01*
X-12652Y-74740D01*
X-12500Y-74906D01*
X-12333Y-75073D01*
X-11986Y-75406D01*
X-11640Y-75739D01*
X-11459Y-75891D01*
X-11307Y-76030D01*
X-11154Y-76155D01*
X-11029Y-76266D01*
X-10932Y-76349D01*
X-10849Y-76418D01*
X-10794Y-76460D01*
X-10780Y-76474D01*
X-10433Y-76765D01*
X-10114Y-77042D01*
X-9851Y-77292D01*
X-9643Y-77500D01*
X-9462Y-77680D01*
X-9337Y-77805D01*
X-9268Y-77888D01*
X-9240Y-77902D01*
Y-77916D01*
X-9046Y-78152D01*
X-8894Y-78373D01*
X-8755Y-78595D01*
X-8644Y-78790D01*
X-8561Y-78956D01*
X-8505Y-79081D01*
X-8478Y-79164D01*
X-8464Y-79178D01*
Y-79192D01*
X-8408Y-79344D01*
X-8381Y-79483D01*
X-8353Y-79622D01*
X-8339Y-79746D01*
X-8325Y-79857D01*
Y-79941D01*
Y-79996D01*
Y-80010D01*
X-14691D01*
Y-78873D01*
X-9962D01*
X-10128Y-78637D01*
X-10211Y-78540D01*
X-10281Y-78443D01*
X-10350Y-78360D01*
X-10405Y-78304D01*
X-10447Y-78263D01*
X-10461Y-78249D01*
X-10530Y-78179D01*
X-10613Y-78110D01*
X-10808Y-77930D01*
X-11029Y-77722D01*
X-11265Y-77514D01*
X-11487Y-77333D01*
X-11584Y-77250D01*
X-11667Y-77167D01*
X-11737Y-77112D01*
X-11792Y-77070D01*
X-11820Y-77042D01*
X-11834Y-77028D01*
X-12056Y-76834D01*
X-12278Y-76654D01*
X-12472Y-76474D01*
X-12652Y-76321D01*
X-12818Y-76168D01*
X-12957Y-76030D01*
X-13096Y-75905D01*
X-13207Y-75794D01*
X-13318Y-75683D01*
X-13401Y-75600D01*
X-13470Y-75531D01*
X-13540Y-75461D01*
X-13609Y-75378D01*
X-13637Y-75350D01*
X-13831Y-75114D01*
X-13997Y-74906D01*
X-14136Y-74698D01*
X-14247Y-74532D01*
X-14330Y-74379D01*
X-14386Y-74268D01*
X-14413Y-74199D01*
X-14427Y-74171D01*
X-14511Y-73963D01*
X-14566Y-73755D01*
X-14621Y-73561D01*
X-14649Y-73395D01*
X-14663Y-73242D01*
X-14677Y-73131D01*
Y-73062D01*
Y-73034D01*
X-14663Y-72826D01*
X-14635Y-72632D01*
X-14607Y-72438D01*
X-14552Y-72271D01*
X-14413Y-71939D01*
X-14275Y-71675D01*
X-14191Y-71550D01*
X-14122Y-71453D01*
X-14053Y-71356D01*
X-13984Y-71287D01*
X-13928Y-71231D01*
X-13900Y-71176D01*
X-13872Y-71162D01*
X-13859Y-71148D01*
X-13706Y-71009D01*
X-13540Y-70885D01*
X-13359Y-70788D01*
X-13179Y-70704D01*
X-12818Y-70566D01*
X-12458Y-70469D01*
X-12305Y-70441D01*
X-12153Y-70413D01*
X-12014Y-70399D01*
X-11903Y-70385D01*
X-11806Y-70371D01*
X-11667D01*
X-11418Y-70385D01*
D02*
G37*
G36*
X-23622Y-75475D02*
X-24732Y-75628D01*
X-24829Y-75475D01*
X-24953Y-75350D01*
X-25064Y-75225D01*
X-25175Y-75128D01*
X-25286Y-75059D01*
X-25369Y-74990D01*
X-25425Y-74962D01*
X-25439Y-74948D01*
X-25619Y-74865D01*
X-25799Y-74795D01*
X-25966Y-74754D01*
X-26132Y-74712D01*
X-26271Y-74698D01*
X-26382Y-74685D01*
X-26645D01*
X-26812Y-74712D01*
X-27103Y-74782D01*
X-27353Y-74879D01*
X-27575Y-74976D01*
X-27741Y-75087D01*
X-27866Y-75184D01*
X-27935Y-75253D01*
X-27963Y-75267D01*
Y-75281D01*
X-28157Y-75517D01*
X-28296Y-75766D01*
X-28393Y-76030D01*
X-28462Y-76293D01*
X-28504Y-76515D01*
X-28517Y-76612D01*
Y-76695D01*
X-28531Y-76765D01*
Y-76820D01*
Y-76848D01*
Y-76862D01*
Y-77056D01*
X-28504Y-77236D01*
X-28434Y-77583D01*
X-28337Y-77874D01*
X-28240Y-78110D01*
X-28129Y-78304D01*
X-28032Y-78457D01*
X-27991Y-78498D01*
X-27963Y-78540D01*
X-27949Y-78554D01*
X-27935Y-78568D01*
X-27824Y-78679D01*
X-27713Y-78776D01*
X-27464Y-78942D01*
X-27228Y-79053D01*
X-26992Y-79122D01*
X-26798Y-79178D01*
X-26631Y-79192D01*
X-26576Y-79206D01*
X-26493D01*
X-26229Y-79192D01*
X-25993Y-79136D01*
X-25786Y-79067D01*
X-25619Y-78984D01*
X-25466Y-78900D01*
X-25356Y-78831D01*
X-25300Y-78776D01*
X-25272Y-78762D01*
X-25106Y-78568D01*
X-24967Y-78360D01*
X-24856Y-78124D01*
X-24773Y-77916D01*
X-24718Y-77708D01*
X-24676Y-77555D01*
X-24662Y-77486D01*
X-24648Y-77444D01*
Y-77417D01*
Y-77403D01*
X-23414Y-77500D01*
X-23442Y-77722D01*
X-23483Y-77930D01*
X-23608Y-78318D01*
X-23761Y-78651D01*
X-23844Y-78803D01*
X-23927Y-78928D01*
X-23996Y-79053D01*
X-24080Y-79164D01*
X-24149Y-79247D01*
X-24218Y-79317D01*
X-24274Y-79372D01*
X-24302Y-79427D01*
X-24329Y-79441D01*
X-24343Y-79455D01*
X-24510Y-79580D01*
X-24676Y-79691D01*
X-24856Y-79788D01*
X-25037Y-79871D01*
X-25383Y-79996D01*
X-25730Y-80079D01*
X-25882Y-80121D01*
X-26035Y-80135D01*
X-26160Y-80149D01*
X-26271Y-80163D01*
X-26368Y-80176D01*
X-26493D01*
X-26784Y-80163D01*
X-27061Y-80121D01*
X-27325Y-80065D01*
X-27561Y-79996D01*
X-27782Y-79899D01*
X-27991Y-79802D01*
X-28185Y-79705D01*
X-28351Y-79594D01*
X-28504Y-79483D01*
X-28642Y-79386D01*
X-28753Y-79275D01*
X-28850Y-79192D01*
X-28920Y-79122D01*
X-28975Y-79067D01*
X-29003Y-79025D01*
X-29017Y-79012D01*
X-29155Y-78831D01*
X-29266Y-78637D01*
X-29377Y-78457D01*
X-29461Y-78263D01*
X-29599Y-77888D01*
X-29683Y-77528D01*
X-29710Y-77375D01*
X-29738Y-77222D01*
X-29752Y-77098D01*
X-29766Y-76987D01*
X-29780Y-76890D01*
Y-76820D01*
Y-76779D01*
Y-76765D01*
X-29766Y-76515D01*
X-29738Y-76279D01*
X-29696Y-76044D01*
X-29641Y-75836D01*
X-29571Y-75641D01*
X-29502Y-75447D01*
X-29419Y-75281D01*
X-29350Y-75128D01*
X-29266Y-74990D01*
X-29183Y-74865D01*
X-29114Y-74768D01*
X-29044Y-74671D01*
X-28989Y-74601D01*
X-28948Y-74560D01*
X-28920Y-74532D01*
X-28906Y-74518D01*
X-28739Y-74366D01*
X-28573Y-74227D01*
X-28393Y-74116D01*
X-28212Y-74019D01*
X-28032Y-73922D01*
X-27852Y-73853D01*
X-27519Y-73755D01*
X-27366Y-73714D01*
X-27228Y-73686D01*
X-27103Y-73672D01*
X-26992Y-73658D01*
X-26909Y-73644D01*
X-26604D01*
X-26437Y-73672D01*
X-26104Y-73741D01*
X-25799Y-73839D01*
X-25522Y-73949D01*
X-25300Y-74061D01*
X-25203Y-74116D01*
X-25120Y-74158D01*
X-25050Y-74199D01*
X-25009Y-74227D01*
X-24981Y-74241D01*
X-24967Y-74255D01*
X-25480Y-71661D01*
X-29322Y-71661D01*
Y-70538D01*
X-24551Y-70538D01*
X-23622Y-75475D01*
D02*
G37*
G36*
X42017Y-80010D02*
X40686D01*
X36941Y-70413D01*
X38231D01*
X40838Y-77389D01*
X40949Y-77680D01*
X41046Y-77958D01*
X41130Y-78221D01*
X41199Y-78457D01*
X41268Y-78665D01*
X41310Y-78817D01*
X41324Y-78873D01*
X41338Y-78914D01*
X41351Y-78942D01*
Y-78956D01*
X41518Y-78401D01*
X41601Y-78138D01*
X41684Y-77902D01*
X41754Y-77694D01*
X41781Y-77611D01*
X41795Y-77528D01*
X41823Y-77472D01*
X41837Y-77431D01*
X41851Y-77403D01*
Y-77389D01*
X44347Y-70413D01*
X45734D01*
X42017Y-80010D01*
D02*
G37*
G36*
X28149D02*
X26804D01*
Y-78665D01*
X28149D01*
Y-80010D01*
D02*
G37*
G36*
X22324Y-70399D02*
X22671Y-70455D01*
X22962Y-70552D01*
X23212Y-70649D01*
X23420Y-70760D01*
X23503Y-70801D01*
X23572Y-70857D01*
X23628Y-70885D01*
X23669Y-70912D01*
X23683Y-70940D01*
X23697D01*
X23947Y-71162D01*
X24155Y-71425D01*
X24335Y-71689D01*
X24474Y-71939D01*
X24585Y-72174D01*
X24640Y-72271D01*
X24668Y-72368D01*
X24695Y-72438D01*
X24723Y-72493D01*
X24737Y-72521D01*
Y-72535D01*
X24793Y-72743D01*
X24848Y-72951D01*
X24931Y-73409D01*
X25001Y-73866D01*
X25042Y-74296D01*
X25056Y-74504D01*
X25070Y-74685D01*
Y-74851D01*
X25084Y-75003D01*
Y-75114D01*
Y-75212D01*
Y-75267D01*
Y-75281D01*
X25070Y-75766D01*
X25042Y-76224D01*
X25001Y-76640D01*
X24931Y-77028D01*
X24862Y-77389D01*
X24779Y-77708D01*
X24695Y-77999D01*
X24612Y-78249D01*
X24529Y-78471D01*
X24432Y-78665D01*
X24363Y-78831D01*
X24293Y-78956D01*
X24224Y-79067D01*
X24182Y-79136D01*
X24155Y-79178D01*
X24141Y-79192D01*
X23988Y-79358D01*
X23822Y-79511D01*
X23642Y-79649D01*
X23461Y-79760D01*
X23281Y-79857D01*
X23101Y-79941D01*
X22920Y-79996D01*
X22754Y-80052D01*
X22587Y-80093D01*
X22435Y-80121D01*
X22296Y-80149D01*
X22185Y-80163D01*
X22088Y-80176D01*
X21950D01*
X21575Y-80149D01*
X21228Y-80093D01*
X20937Y-79996D01*
X20687Y-79899D01*
X20480Y-79802D01*
X20410Y-79746D01*
X20341Y-79705D01*
X20285Y-79677D01*
X20244Y-79649D01*
X20230Y-79622D01*
X20216D01*
X19966Y-79386D01*
X19758Y-79136D01*
X19578Y-78859D01*
X19439Y-78609D01*
X19328Y-78373D01*
X19273Y-78276D01*
X19245Y-78179D01*
X19217Y-78110D01*
X19190Y-78055D01*
X19176Y-78027D01*
Y-78013D01*
X19107Y-77805D01*
X19051Y-77597D01*
X18968Y-77153D01*
X18899Y-76695D01*
X18857Y-76252D01*
X18843Y-76058D01*
X18829Y-75877D01*
Y-75711D01*
X18815Y-75558D01*
Y-75447D01*
Y-75350D01*
Y-75295D01*
Y-75281D01*
Y-75017D01*
X18829Y-74768D01*
Y-74546D01*
X18843Y-74324D01*
X18871Y-74130D01*
X18885Y-73936D01*
X18899Y-73769D01*
X18926Y-73617D01*
X18940Y-73478D01*
X18968Y-73353D01*
X18982Y-73256D01*
X18996Y-73173D01*
X19009Y-73103D01*
X19023Y-73062D01*
X19037Y-73034D01*
Y-73020D01*
X19120Y-72715D01*
X19217Y-72438D01*
X19328Y-72202D01*
X19412Y-71994D01*
X19509Y-71814D01*
X19564Y-71689D01*
X19620Y-71620D01*
X19634Y-71592D01*
X19786Y-71384D01*
X19939Y-71204D01*
X20105Y-71051D01*
X20258Y-70912D01*
X20396Y-70815D01*
X20507Y-70746D01*
X20577Y-70704D01*
X20591Y-70690D01*
X20604D01*
X20826Y-70580D01*
X21062Y-70510D01*
X21284Y-70455D01*
X21492Y-70413D01*
X21672Y-70385D01*
X21825Y-70371D01*
X21950D01*
X22324Y-70399D01*
D02*
G37*
G36*
X3671D02*
X4018Y-70455D01*
X4309Y-70552D01*
X4559Y-70649D01*
X4767Y-70760D01*
X4850Y-70801D01*
X4919Y-70857D01*
X4975Y-70885D01*
X5016Y-70912D01*
X5030Y-70940D01*
X5044D01*
X5294Y-71162D01*
X5502Y-71425D01*
X5682Y-71689D01*
X5821Y-71939D01*
X5932Y-72174D01*
X5987Y-72271D01*
X6015Y-72368D01*
X6043Y-72438D01*
X6070Y-72493D01*
X6084Y-72521D01*
Y-72535D01*
X6140Y-72743D01*
X6195Y-72951D01*
X6278Y-73409D01*
X6348Y-73866D01*
X6389Y-74296D01*
X6403Y-74504D01*
X6417Y-74685D01*
Y-74851D01*
X6431Y-75003D01*
Y-75114D01*
Y-75212D01*
Y-75267D01*
Y-75281D01*
X6417Y-75766D01*
X6389Y-76224D01*
X6348Y-76640D01*
X6278Y-77028D01*
X6209Y-77389D01*
X6126Y-77708D01*
X6043Y-77999D01*
X5959Y-78249D01*
X5876Y-78471D01*
X5779Y-78665D01*
X5710Y-78831D01*
X5640Y-78956D01*
X5571Y-79067D01*
X5529Y-79136D01*
X5502Y-79178D01*
X5488Y-79192D01*
X5335Y-79358D01*
X5169Y-79511D01*
X4988Y-79649D01*
X4808Y-79760D01*
X4628Y-79857D01*
X4448Y-79941D01*
X4267Y-79996D01*
X4101Y-80052D01*
X3934Y-80093D01*
X3782Y-80121D01*
X3643Y-80149D01*
X3532Y-80163D01*
X3435Y-80176D01*
X3297D01*
X2922Y-80149D01*
X2575Y-80093D01*
X2284Y-79996D01*
X2034Y-79899D01*
X1826Y-79802D01*
X1757Y-79746D01*
X1688Y-79705D01*
X1632Y-79677D01*
X1591Y-79649D01*
X1577Y-79622D01*
X1563D01*
X1313Y-79386D01*
X1105Y-79136D01*
X925Y-78859D01*
X786Y-78609D01*
X675Y-78373D01*
X620Y-78276D01*
X592Y-78179D01*
X564Y-78110D01*
X537Y-78055D01*
X523Y-78027D01*
Y-78013D01*
X454Y-77805D01*
X398Y-77597D01*
X315Y-77153D01*
X246Y-76695D01*
X204Y-76252D01*
X190Y-76058D01*
X176Y-75877D01*
Y-75711D01*
X162Y-75558D01*
Y-75447D01*
Y-75350D01*
Y-75295D01*
Y-75281D01*
Y-75017D01*
X176Y-74768D01*
Y-74546D01*
X190Y-74324D01*
X218Y-74130D01*
X232Y-73936D01*
X246Y-73769D01*
X273Y-73617D01*
X287Y-73478D01*
X315Y-73353D01*
X329Y-73256D01*
X343Y-73173D01*
X356Y-73103D01*
X370Y-73062D01*
X384Y-73034D01*
Y-73020D01*
X467Y-72715D01*
X564Y-72438D01*
X675Y-72202D01*
X759Y-71994D01*
X856Y-71814D01*
X911Y-71689D01*
X967Y-71620D01*
X980Y-71592D01*
X1133Y-71384D01*
X1286Y-71204D01*
X1452Y-71051D01*
X1605Y-70912D01*
X1743Y-70815D01*
X1854Y-70746D01*
X1924Y-70704D01*
X1937Y-70690D01*
X1951D01*
X2173Y-70580D01*
X2409Y-70510D01*
X2631Y-70455D01*
X2839Y-70413D01*
X3019Y-70385D01*
X3172Y-70371D01*
X3297D01*
X3671Y-70399D01*
D02*
G37*
G36*
X-18713D02*
X-18366Y-70455D01*
X-18075Y-70552D01*
X-17825Y-70649D01*
X-17617Y-70760D01*
X-17534Y-70801D01*
X-17464Y-70857D01*
X-17409Y-70885D01*
X-17367Y-70912D01*
X-17354Y-70940D01*
X-17340D01*
X-17090Y-71162D01*
X-16882Y-71425D01*
X-16702Y-71689D01*
X-16563Y-71939D01*
X-16452Y-72174D01*
X-16397Y-72271D01*
X-16369Y-72368D01*
X-16341Y-72438D01*
X-16313Y-72493D01*
X-16300Y-72521D01*
Y-72535D01*
X-16244Y-72743D01*
X-16188Y-72951D01*
X-16105Y-73409D01*
X-16036Y-73866D01*
X-15994Y-74296D01*
X-15980Y-74504D01*
X-15967Y-74685D01*
Y-74851D01*
X-15953Y-75003D01*
Y-75114D01*
Y-75212D01*
Y-75267D01*
Y-75281D01*
X-15967Y-75766D01*
X-15994Y-76224D01*
X-16036Y-76640D01*
X-16105Y-77028D01*
X-16175Y-77389D01*
X-16258Y-77708D01*
X-16341Y-77999D01*
X-16424Y-78249D01*
X-16508Y-78471D01*
X-16605Y-78665D01*
X-16674Y-78831D01*
X-16743Y-78956D01*
X-16813Y-79067D01*
X-16854Y-79136D01*
X-16882Y-79178D01*
X-16896Y-79192D01*
X-17048Y-79358D01*
X-17215Y-79511D01*
X-17395Y-79649D01*
X-17575Y-79760D01*
X-17756Y-79857D01*
X-17936Y-79941D01*
X-18116Y-79996D01*
X-18283Y-80052D01*
X-18449Y-80093D01*
X-18602Y-80121D01*
X-18740Y-80149D01*
X-18851Y-80163D01*
X-18948Y-80176D01*
X-19087D01*
X-19461Y-80149D01*
X-19808Y-80093D01*
X-20099Y-79996D01*
X-20349Y-79899D01*
X-20557Y-79802D01*
X-20626Y-79746D01*
X-20696Y-79705D01*
X-20751Y-79677D01*
X-20793Y-79649D01*
X-20807Y-79622D01*
X-20821D01*
X-21070Y-79386D01*
X-21278Y-79136D01*
X-21458Y-78859D01*
X-21597Y-78609D01*
X-21708Y-78373D01*
X-21764Y-78276D01*
X-21791Y-78179D01*
X-21819Y-78110D01*
X-21847Y-78055D01*
X-21861Y-78027D01*
Y-78013D01*
X-21930Y-77805D01*
X-21985Y-77597D01*
X-22069Y-77153D01*
X-22138Y-76695D01*
X-22180Y-76252D01*
X-22194Y-76058D01*
X-22207Y-75877D01*
Y-75711D01*
X-22221Y-75558D01*
Y-75447D01*
Y-75350D01*
Y-75295D01*
Y-75281D01*
Y-75017D01*
X-22207Y-74768D01*
Y-74546D01*
X-22194Y-74324D01*
X-22166Y-74130D01*
X-22152Y-73936D01*
X-22138Y-73769D01*
X-22110Y-73617D01*
X-22097Y-73478D01*
X-22069Y-73353D01*
X-22055Y-73256D01*
X-22041Y-73173D01*
X-22027Y-73103D01*
X-22013Y-73062D01*
X-21999Y-73034D01*
Y-73020D01*
X-21916Y-72715D01*
X-21819Y-72438D01*
X-21708Y-72202D01*
X-21625Y-71994D01*
X-21528Y-71814D01*
X-21472Y-71689D01*
X-21417Y-71620D01*
X-21403Y-71592D01*
X-21251Y-71384D01*
X-21098Y-71204D01*
X-20931Y-71051D01*
X-20779Y-70912D01*
X-20640Y-70815D01*
X-20529Y-70746D01*
X-20460Y-70704D01*
X-20446Y-70690D01*
X-20432D01*
X-20210Y-70580D01*
X-19975Y-70510D01*
X-19753Y-70455D01*
X-19545Y-70413D01*
X-19364Y-70385D01*
X-19212Y-70371D01*
X-19087D01*
X-18713Y-70399D01*
D02*
G37*
G36*
X-41096Y-70399D02*
X-40750Y-70455D01*
X-40458Y-70552D01*
X-40209Y-70649D01*
X-40001Y-70760D01*
X-39917Y-70801D01*
X-39848Y-70857D01*
X-39793Y-70885D01*
X-39751Y-70912D01*
X-39737Y-70940D01*
X-39723D01*
X-39474Y-71162D01*
X-39266Y-71425D01*
X-39085Y-71689D01*
X-38947Y-71939D01*
X-38836Y-72174D01*
X-38780Y-72271D01*
X-38752Y-72368D01*
X-38725Y-72438D01*
X-38697Y-72493D01*
X-38683Y-72521D01*
Y-72535D01*
X-38628Y-72743D01*
X-38572Y-72951D01*
X-38489Y-73409D01*
X-38420Y-73866D01*
X-38378Y-74296D01*
X-38364Y-74504D01*
X-38350Y-74685D01*
Y-74851D01*
X-38336Y-75003D01*
Y-75114D01*
Y-75212D01*
Y-75267D01*
Y-75281D01*
X-38350Y-75766D01*
X-38378Y-76224D01*
X-38420Y-76640D01*
X-38489Y-77028D01*
X-38558Y-77389D01*
X-38642Y-77708D01*
X-38725Y-77999D01*
X-38808Y-78249D01*
X-38891Y-78471D01*
X-38988Y-78665D01*
X-39058Y-78831D01*
X-39127Y-78956D01*
X-39196Y-79067D01*
X-39238Y-79136D01*
X-39266Y-79178D01*
X-39279Y-79192D01*
X-39432Y-79358D01*
X-39598Y-79511D01*
X-39779Y-79649D01*
X-39959Y-79760D01*
X-40139Y-79858D01*
X-40320Y-79941D01*
X-40500Y-79996D01*
X-40666Y-80052D01*
X-40833Y-80093D01*
X-40985Y-80121D01*
X-41124Y-80149D01*
X-41235Y-80163D01*
X-41332Y-80176D01*
X-41471D01*
X-41845Y-80149D01*
X-42192Y-80093D01*
X-42483Y-79996D01*
X-42733Y-79899D01*
X-42941Y-79802D01*
X-43010Y-79746D01*
X-43079Y-79705D01*
X-43135Y-79677D01*
X-43176Y-79649D01*
X-43190Y-79622D01*
X-43204D01*
X-43454Y-79386D01*
X-43662Y-79136D01*
X-43842Y-78859D01*
X-43981Y-78609D01*
X-44092Y-78374D01*
X-44147Y-78277D01*
X-44175Y-78179D01*
X-44203Y-78110D01*
X-44230Y-78055D01*
X-44244Y-78027D01*
Y-78013D01*
X-44314Y-77805D01*
X-44369Y-77597D01*
X-44452Y-77153D01*
X-44522Y-76695D01*
X-44563Y-76252D01*
X-44577Y-76058D01*
X-44591Y-75877D01*
Y-75711D01*
X-44605Y-75558D01*
Y-75447D01*
Y-75350D01*
Y-75295D01*
Y-75281D01*
Y-75017D01*
X-44591Y-74768D01*
Y-74546D01*
X-44577Y-74324D01*
X-44549Y-74130D01*
X-44535Y-73936D01*
X-44522Y-73769D01*
X-44494Y-73617D01*
X-44480Y-73478D01*
X-44452Y-73353D01*
X-44439Y-73256D01*
X-44425Y-73173D01*
X-44411Y-73104D01*
X-44397Y-73062D01*
X-44383Y-73034D01*
Y-73020D01*
X-44300Y-72715D01*
X-44203Y-72438D01*
X-44092Y-72202D01*
X-44008Y-71994D01*
X-43911Y-71814D01*
X-43856Y-71689D01*
X-43801Y-71620D01*
X-43787Y-71592D01*
X-43634Y-71384D01*
X-43481Y-71204D01*
X-43315Y-71051D01*
X-43163Y-70912D01*
X-43024Y-70815D01*
X-42913Y-70746D01*
X-42844Y-70704D01*
X-42830Y-70690D01*
X-42816D01*
X-42594Y-70580D01*
X-42358Y-70510D01*
X-42136Y-70455D01*
X-41928Y-70413D01*
X-41748Y-70385D01*
X-41595Y-70371D01*
X-41471D01*
X-41096Y-70399D01*
D02*
G37*
G36*
X-25758Y-67310D02*
X-26937Y-67310D01*
Y-63510D01*
X-26950Y-63219D01*
X-26964Y-62969D01*
X-26992Y-62747D01*
X-27034Y-62567D01*
X-27075Y-62428D01*
X-27103Y-62317D01*
X-27117Y-62262D01*
X-27131Y-62234D01*
X-27214Y-62068D01*
X-27311Y-61915D01*
X-27422Y-61790D01*
X-27533Y-61680D01*
X-27630Y-61596D01*
X-27713Y-61541D01*
X-27769Y-61499D01*
X-27782Y-61485D01*
X-27963Y-61388D01*
X-28129Y-61319D01*
X-28296Y-61277D01*
X-28434Y-61236D01*
X-28573Y-61222D01*
X-28670Y-61208D01*
X-28753D01*
X-29003Y-61222D01*
X-29225Y-61277D01*
X-29405Y-61333D01*
X-29558Y-61416D01*
X-29683Y-61485D01*
X-29766Y-61555D01*
X-29821Y-61610D01*
X-29835Y-61624D01*
X-29960Y-61790D01*
X-30057Y-61998D01*
X-30126Y-62207D01*
X-30182Y-62414D01*
X-30210Y-62609D01*
X-30223Y-62761D01*
Y-62817D01*
Y-62858D01*
Y-62886D01*
Y-62900D01*
Y-67310D01*
X-31402D01*
Y-62914D01*
X-31388Y-62553D01*
X-31361Y-62234D01*
X-31319Y-61971D01*
X-31277Y-61749D01*
X-31236Y-61568D01*
X-31194Y-61444D01*
X-31166Y-61374D01*
X-31153Y-61347D01*
X-31042Y-61153D01*
X-30917Y-60986D01*
X-30778Y-60847D01*
X-30653Y-60722D01*
X-30529Y-60626D01*
X-30431Y-60556D01*
X-30362Y-60514D01*
X-30334Y-60501D01*
X-30112Y-60404D01*
X-29890Y-60320D01*
X-29669Y-60265D01*
X-29461Y-60237D01*
X-29280Y-60209D01*
X-29128Y-60195D01*
X-29003D01*
X-28781Y-60209D01*
X-28559Y-60237D01*
X-28351Y-60279D01*
X-28157Y-60348D01*
X-27796Y-60501D01*
X-27644Y-60584D01*
X-27505Y-60667D01*
X-27380Y-60764D01*
X-27255Y-60847D01*
X-27158Y-60931D01*
X-27089Y-61000D01*
X-27020Y-61069D01*
X-26978Y-61111D01*
X-26950Y-61139D01*
X-26937Y-61153D01*
Y-57713D01*
X-25758Y-57713D01*
Y-67310D01*
D02*
G37*
G36*
X35749Y-60209D02*
X36040Y-60237D01*
X36317Y-60279D01*
X36539Y-60320D01*
X36733Y-60362D01*
X36872Y-60403D01*
X36927Y-60417D01*
X36969Y-60431D01*
X36983Y-60445D01*
X36997D01*
X37232Y-60542D01*
X37441Y-60667D01*
X37621Y-60778D01*
X37773Y-60889D01*
X37884Y-61000D01*
X37968Y-61083D01*
X38023Y-61139D01*
X38037Y-61152D01*
X38162Y-61333D01*
X38273Y-61527D01*
X38356Y-61721D01*
X38425Y-61901D01*
X38481Y-62082D01*
X38522Y-62206D01*
X38536Y-62262D01*
Y-62304D01*
X38550Y-62317D01*
Y-62331D01*
X37399Y-62484D01*
X37316Y-62234D01*
X37232Y-62012D01*
X37136Y-61832D01*
X37052Y-61693D01*
X36969Y-61582D01*
X36900Y-61513D01*
X36844Y-61471D01*
X36830Y-61458D01*
X36664Y-61361D01*
X36470Y-61291D01*
X36262Y-61236D01*
X36068Y-61208D01*
X35873Y-61180D01*
X35735Y-61166D01*
X35596D01*
X35277Y-61180D01*
X35000Y-61222D01*
X34778Y-61291D01*
X34584Y-61361D01*
X34445Y-61444D01*
X34334Y-61499D01*
X34265Y-61555D01*
X34251Y-61568D01*
X34140Y-61693D01*
X34057Y-61846D01*
X33987Y-62012D01*
X33946Y-62179D01*
X33918Y-62331D01*
X33904Y-62470D01*
Y-62553D01*
Y-62567D01*
Y-62581D01*
Y-62609D01*
Y-62664D01*
Y-62761D01*
X33918Y-62844D01*
Y-62872D01*
Y-62886D01*
X34057Y-62928D01*
X34209Y-62969D01*
X34528Y-63052D01*
X34889Y-63122D01*
X35222Y-63191D01*
X35388Y-63219D01*
X35541Y-63233D01*
X35679Y-63260D01*
X35790Y-63274D01*
X35887Y-63288D01*
X35957D01*
X36012Y-63302D01*
X36026D01*
X36276Y-63330D01*
X36484Y-63371D01*
X36664Y-63399D01*
X36803Y-63427D01*
X36914Y-63441D01*
X36997Y-63468D01*
X37052Y-63482D01*
X37066D01*
X37246Y-63538D01*
X37399Y-63593D01*
X37552Y-63663D01*
X37676Y-63718D01*
X37787Y-63774D01*
X37857Y-63829D01*
X37912Y-63857D01*
X37926Y-63871D01*
X38065Y-63968D01*
X38176Y-64079D01*
X38286Y-64190D01*
X38370Y-64301D01*
X38439Y-64398D01*
X38495Y-64481D01*
X38522Y-64536D01*
X38536Y-64550D01*
X38605Y-64703D01*
X38661Y-64869D01*
X38703Y-65022D01*
X38730Y-65174D01*
X38744Y-65299D01*
X38758Y-65396D01*
Y-65452D01*
Y-65479D01*
X38744Y-65646D01*
X38730Y-65785D01*
X38661Y-66076D01*
X38564Y-66311D01*
X38453Y-66519D01*
X38342Y-66686D01*
X38245Y-66811D01*
X38176Y-66880D01*
X38148Y-66908D01*
X37898Y-67088D01*
X37621Y-67227D01*
X37316Y-67324D01*
X37038Y-67393D01*
X36789Y-67435D01*
X36678Y-67449D01*
X36581D01*
X36497Y-67463D01*
X36387D01*
X36137Y-67449D01*
X35887Y-67421D01*
X35665Y-67393D01*
X35471Y-67352D01*
X35319Y-67310D01*
X35194Y-67268D01*
X35111Y-67255D01*
X35083Y-67241D01*
X34847Y-67144D01*
X34625Y-67019D01*
X34417Y-66880D01*
X34209Y-66755D01*
X34043Y-66630D01*
X33918Y-66533D01*
X33835Y-66464D01*
X33821Y-66436D01*
X33807D01*
X33779Y-66617D01*
X33752Y-66783D01*
X33724Y-66936D01*
X33682Y-67060D01*
X33641Y-67171D01*
X33613Y-67241D01*
X33599Y-67296D01*
X33585Y-67310D01*
X32351D01*
X32420Y-67157D01*
X32490Y-67005D01*
X32545Y-66866D01*
X32573Y-66741D01*
X32614Y-66630D01*
X32628Y-66547D01*
X32642Y-66492D01*
Y-66478D01*
X32656Y-66381D01*
X32670Y-66256D01*
Y-66117D01*
X32684Y-65965D01*
X32698Y-65618D01*
Y-65271D01*
X32711Y-64939D01*
Y-64786D01*
Y-64661D01*
Y-64550D01*
Y-64467D01*
Y-64412D01*
Y-64398D01*
Y-62817D01*
Y-62553D01*
X32725Y-62317D01*
X32739Y-62137D01*
Y-61985D01*
X32753Y-61874D01*
X32767Y-61790D01*
X32781Y-61749D01*
Y-61735D01*
X32822Y-61555D01*
X32878Y-61402D01*
X32933Y-61277D01*
X33003Y-61152D01*
X33058Y-61069D01*
X33100Y-61000D01*
X33128Y-60958D01*
X33141Y-60944D01*
X33252Y-60834D01*
X33377Y-60722D01*
X33516Y-60639D01*
X33654Y-60556D01*
X33779Y-60501D01*
X33876Y-60459D01*
X33946Y-60431D01*
X33974Y-60417D01*
X34195Y-60348D01*
X34431Y-60293D01*
X34667Y-60251D01*
X34903Y-60223D01*
X35111Y-60209D01*
X35263Y-60195D01*
X35416D01*
X35749Y-60209D01*
D02*
G37*
G36*
X29646Y-67310D02*
X28398D01*
X26998Y-61957D01*
X26720Y-63149D01*
X25611Y-67310D01*
X24404D01*
X22213Y-60348D01*
X23364D01*
X24557Y-64384D01*
X24959Y-65729D01*
X25306Y-64398D01*
X26346Y-60348D01*
X27552D01*
X28662Y-64439D01*
X28717Y-64675D01*
X28773Y-64883D01*
X28814Y-65063D01*
X28856Y-65216D01*
X28898Y-65355D01*
X28925Y-65465D01*
X28953Y-65563D01*
X28967Y-65646D01*
X28981Y-65715D01*
X28995Y-65757D01*
X29009Y-65826D01*
X29022Y-65854D01*
Y-65868D01*
X29411Y-64370D01*
X30520Y-60348D01*
X31755D01*
X29646Y-67310D01*
D02*
G37*
G36*
X-19919Y-57574D02*
X-19475Y-57644D01*
X-19087Y-57727D01*
X-18907Y-57782D01*
X-18740Y-57838D01*
X-18588Y-57893D01*
X-18449Y-57949D01*
X-18338Y-57990D01*
X-18227Y-58032D01*
X-18158Y-58074D01*
X-18102Y-58101D01*
X-18061Y-58115D01*
X-18047Y-58129D01*
X-17672Y-58365D01*
X-17354Y-58642D01*
X-17076Y-58920D01*
X-16840Y-59197D01*
X-16660Y-59447D01*
X-16591Y-59558D01*
X-16535Y-59655D01*
X-16480Y-59724D01*
X-16452Y-59780D01*
X-16438Y-59821D01*
X-16424Y-59835D01*
X-16230Y-60265D01*
X-16092Y-60709D01*
X-15994Y-61152D01*
X-15925Y-61555D01*
X-15897Y-61735D01*
X-15883Y-61915D01*
X-15870Y-62054D01*
Y-62193D01*
X-15856Y-62290D01*
Y-62373D01*
Y-62428D01*
Y-62442D01*
X-15883Y-62941D01*
X-15939Y-63427D01*
X-16008Y-63857D01*
X-16064Y-64065D01*
X-16105Y-64245D01*
X-16147Y-64412D01*
X-16202Y-64564D01*
X-16244Y-64703D01*
X-16272Y-64814D01*
X-16313Y-64897D01*
X-16327Y-64966D01*
X-16355Y-65008D01*
Y-65022D01*
X-16563Y-65438D01*
X-16799Y-65812D01*
X-17048Y-66131D01*
X-17173Y-66256D01*
X-17284Y-66381D01*
X-17395Y-66492D01*
X-17506Y-66589D01*
X-17603Y-66672D01*
X-17686Y-66727D01*
X-17742Y-66783D01*
X-17797Y-66825D01*
X-17825Y-66838D01*
X-17839Y-66852D01*
X-18033Y-66963D01*
X-18227Y-67060D01*
X-18643Y-67213D01*
X-19059Y-67324D01*
X-19461Y-67393D01*
X-19656Y-67421D01*
X-19822Y-67449D01*
X-19975Y-67463D01*
X-20099D01*
X-20210Y-67476D01*
X-20363D01*
X-20640Y-67463D01*
X-20904Y-67435D01*
X-21153Y-67407D01*
X-21389Y-67352D01*
X-21611Y-67282D01*
X-21819Y-67213D01*
X-22013Y-67144D01*
X-22194Y-67060D01*
X-22346Y-66991D01*
X-22499Y-66922D01*
X-22610Y-66852D01*
X-22721Y-66783D01*
X-22790Y-66727D01*
X-22859Y-66700D01*
X-22887Y-66672D01*
X-22901Y-66658D01*
X-23095Y-66492D01*
X-23261Y-66325D01*
X-23414Y-66131D01*
X-23567Y-65937D01*
X-23816Y-65549D01*
X-24010Y-65160D01*
X-24093Y-64980D01*
X-24163Y-64814D01*
X-24218Y-64661D01*
X-24260Y-64536D01*
X-24302Y-64425D01*
X-24329Y-64342D01*
X-24343Y-64287D01*
Y-64273D01*
X-23067Y-63954D01*
X-23012Y-64176D01*
X-22942Y-64384D01*
X-22873Y-64578D01*
X-22804Y-64758D01*
X-22721Y-64925D01*
X-22637Y-65063D01*
X-22540Y-65202D01*
X-22457Y-65327D01*
X-22388Y-65438D01*
X-22304Y-65521D01*
X-22235Y-65604D01*
X-22180Y-65673D01*
X-22124Y-65715D01*
X-22083Y-65757D01*
X-22069Y-65771D01*
X-22055Y-65785D01*
X-21916Y-65895D01*
X-21764Y-65979D01*
X-21458Y-66131D01*
X-21167Y-66242D01*
X-20876Y-66311D01*
X-20626Y-66367D01*
X-20529Y-66381D01*
X-20432D01*
X-20349Y-66395D01*
X-20252D01*
X-19933Y-66381D01*
X-19628Y-66325D01*
X-19351Y-66256D01*
X-19101Y-66173D01*
X-18907Y-66090D01*
X-18823Y-66048D01*
X-18754Y-66020D01*
X-18699Y-65992D01*
X-18657Y-65965D01*
X-18629Y-65951D01*
X-18615D01*
X-18352Y-65757D01*
X-18130Y-65549D01*
X-17936Y-65313D01*
X-17783Y-65091D01*
X-17659Y-64897D01*
X-17575Y-64731D01*
X-17548Y-64661D01*
X-17520Y-64619D01*
X-17506Y-64592D01*
Y-64578D01*
X-17395Y-64217D01*
X-17312Y-63857D01*
X-17242Y-63496D01*
X-17201Y-63163D01*
X-17187Y-63011D01*
X-17173Y-62872D01*
Y-62747D01*
X-17159Y-62650D01*
Y-62567D01*
Y-62498D01*
Y-62456D01*
Y-62442D01*
X-17173Y-62082D01*
X-17201Y-61749D01*
X-17256Y-61444D01*
X-17312Y-61166D01*
X-17354Y-60931D01*
X-17381Y-60834D01*
X-17409Y-60750D01*
X-17423Y-60681D01*
X-17437Y-60639D01*
X-17451Y-60612D01*
Y-60598D01*
X-17589Y-60279D01*
X-17742Y-59988D01*
X-17908Y-59752D01*
X-18089Y-59544D01*
X-18241Y-59377D01*
X-18366Y-59266D01*
X-18463Y-59197D01*
X-18477Y-59169D01*
X-18491D01*
X-18782Y-58989D01*
X-19101Y-58850D01*
X-19406Y-58753D01*
X-19697Y-58698D01*
X-19961Y-58656D01*
X-20072Y-58642D01*
X-20169D01*
X-20238Y-58628D01*
X-20349D01*
X-20696Y-58642D01*
X-21015Y-58698D01*
X-21278Y-58781D01*
X-21514Y-58864D01*
X-21694Y-58961D01*
X-21833Y-59031D01*
X-21916Y-59086D01*
X-21944Y-59114D01*
X-22166Y-59322D01*
X-22374Y-59558D01*
X-22540Y-59807D01*
X-22679Y-60057D01*
X-22790Y-60279D01*
X-22831Y-60390D01*
X-22859Y-60473D01*
X-22887Y-60542D01*
X-22915Y-60598D01*
X-22929Y-60625D01*
Y-60639D01*
X-24177Y-60348D01*
X-24093Y-60098D01*
X-24010Y-59876D01*
X-23899Y-59668D01*
X-23802Y-59461D01*
X-23691Y-59280D01*
X-23567Y-59114D01*
X-23456Y-58947D01*
X-23345Y-58809D01*
X-23234Y-58698D01*
X-23137Y-58587D01*
X-23040Y-58490D01*
X-22970Y-58420D01*
X-22901Y-58351D01*
X-22845Y-58309D01*
X-22818Y-58295D01*
X-22804Y-58282D01*
X-22610Y-58157D01*
X-22415Y-58032D01*
X-22221Y-57935D01*
X-22013Y-57852D01*
X-21597Y-57727D01*
X-21223Y-57644D01*
X-21042Y-57602D01*
X-20890Y-57588D01*
X-20737Y-57574D01*
X-20613Y-57561D01*
X-20515Y-57547D01*
X-20377D01*
X-19919Y-57574D01*
D02*
G37*
G36*
X14169Y-60209D02*
X14419Y-60237D01*
X14655Y-60279D01*
X14877Y-60348D01*
X15085Y-60417D01*
X15279Y-60501D01*
X15459Y-60584D01*
X15612Y-60681D01*
X15764Y-60764D01*
X15889Y-60861D01*
X16000Y-60944D01*
X16083Y-61014D01*
X16153Y-61083D01*
X16208Y-61125D01*
X16236Y-61152D01*
X16250Y-61166D01*
X16402Y-61361D01*
X16541Y-61568D01*
X16666Y-61776D01*
X16777Y-61998D01*
X16860Y-62234D01*
X16929Y-62456D01*
X17040Y-62900D01*
X17082Y-63094D01*
X17110Y-63288D01*
X17123Y-63455D01*
X17137Y-63607D01*
X17151Y-63732D01*
Y-63815D01*
Y-63885D01*
Y-63898D01*
X17137Y-64204D01*
X17110Y-64495D01*
X17068Y-64772D01*
X17012Y-65022D01*
X16943Y-65258D01*
X16874Y-65479D01*
X16790Y-65673D01*
X16707Y-65854D01*
X16624Y-66006D01*
X16541Y-66145D01*
X16472Y-66256D01*
X16402Y-66353D01*
X16347Y-66436D01*
X16305Y-66492D01*
X16277Y-66519D01*
X16264Y-66533D01*
X16083Y-66700D01*
X15903Y-66838D01*
X15709Y-66963D01*
X15501Y-67074D01*
X15307Y-67157D01*
X15099Y-67241D01*
X14710Y-67352D01*
X14530Y-67379D01*
X14363Y-67407D01*
X14211Y-67435D01*
X14086Y-67449D01*
X13989Y-67463D01*
X13836D01*
X13407Y-67435D01*
X13018Y-67365D01*
X12672Y-67282D01*
X12533Y-67227D01*
X12394Y-67171D01*
X12269Y-67116D01*
X12158Y-67060D01*
X12075Y-67019D01*
X11992Y-66977D01*
X11937Y-66936D01*
X11895Y-66908D01*
X11867Y-66880D01*
X11853D01*
X11576Y-66630D01*
X11354Y-66367D01*
X11160Y-66090D01*
X11021Y-65826D01*
X10910Y-65590D01*
X10869Y-65479D01*
X10827Y-65396D01*
X10799Y-65313D01*
X10785Y-65258D01*
X10772Y-65230D01*
Y-65216D01*
X11992Y-65063D01*
X12103Y-65327D01*
X12228Y-65549D01*
X12353Y-65743D01*
X12464Y-65895D01*
X12561Y-66006D01*
X12644Y-66090D01*
X12713Y-66145D01*
X12727Y-66159D01*
X12907Y-66270D01*
X13088Y-66353D01*
X13282Y-66409D01*
X13448Y-66450D01*
X13601Y-66478D01*
X13726Y-66492D01*
X13836D01*
X14003Y-66478D01*
X14155Y-66464D01*
X14433Y-66395D01*
X14683Y-66298D01*
X14904Y-66187D01*
X15071Y-66090D01*
X15196Y-65992D01*
X15279Y-65923D01*
X15293Y-65895D01*
X15307D01*
X15501Y-65646D01*
X15653Y-65368D01*
X15764Y-65063D01*
X15848Y-64786D01*
X15889Y-64536D01*
X15917Y-64425D01*
X15931Y-64328D01*
Y-64245D01*
X15944Y-64190D01*
Y-64148D01*
Y-64134D01*
X10744D01*
X10730Y-63995D01*
Y-63898D01*
Y-63843D01*
Y-63829D01*
X10744Y-63510D01*
X10772Y-63219D01*
X10813Y-62941D01*
X10869Y-62678D01*
X10938Y-62442D01*
X11007Y-62220D01*
X11091Y-62026D01*
X11174Y-61846D01*
X11257Y-61679D01*
X11340Y-61541D01*
X11410Y-61430D01*
X11479Y-61333D01*
X11534Y-61249D01*
X11576Y-61194D01*
X11604Y-61166D01*
X11618Y-61152D01*
X11784Y-60986D01*
X11964Y-60834D01*
X12158Y-60709D01*
X12353Y-60598D01*
X12547Y-60501D01*
X12727Y-60431D01*
X12921Y-60362D01*
X13088Y-60320D01*
X13268Y-60279D01*
X13420Y-60251D01*
X13559Y-60223D01*
X13670Y-60209D01*
X13767Y-60195D01*
X13906D01*
X14169Y-60209D01*
D02*
G37*
G36*
X-656D02*
X-351Y-60265D01*
X-60Y-60334D01*
X176Y-60403D01*
X384Y-60487D01*
X467Y-60528D01*
X537Y-60556D01*
X592Y-60584D01*
X634Y-60612D01*
X662Y-60625D01*
X675D01*
X939Y-60792D01*
X1175Y-61000D01*
X1369Y-61208D01*
X1535Y-61416D01*
X1660Y-61596D01*
X1743Y-61749D01*
X1771Y-61804D01*
X1799Y-61846D01*
X1813Y-61874D01*
Y-61887D01*
X1937Y-62220D01*
X2021Y-62553D01*
X2090Y-62886D01*
X2132Y-63191D01*
X2146Y-63330D01*
X2159Y-63455D01*
Y-63566D01*
X2173Y-63663D01*
Y-63746D01*
Y-63801D01*
Y-63843D01*
Y-63857D01*
X2159Y-64176D01*
X2132Y-64467D01*
X2090Y-64758D01*
X2034Y-65008D01*
X1979Y-65258D01*
X1896Y-65465D01*
X1826Y-65673D01*
X1743Y-65854D01*
X1660Y-66006D01*
X1591Y-66145D01*
X1507Y-66270D01*
X1452Y-66367D01*
X1397Y-66436D01*
X1355Y-66492D01*
X1327Y-66519D01*
X1313Y-66533D01*
X1147Y-66700D01*
X967Y-66838D01*
X786Y-66963D01*
X592Y-67074D01*
X398Y-67157D01*
X218Y-67241D01*
X-157Y-67352D01*
X-323Y-67379D01*
X-476Y-67407D01*
X-614Y-67435D01*
X-739Y-67449D01*
X-836Y-67463D01*
X-975D01*
X-1183Y-67449D01*
X-1391Y-67435D01*
X-1752Y-67352D01*
X-2084Y-67255D01*
X-2362Y-67130D01*
X-2473Y-67060D01*
X-2584Y-67005D01*
X-2681Y-66949D01*
X-2750Y-66894D01*
X-2806Y-66852D01*
X-2847Y-66825D01*
X-2875Y-66811D01*
X-2889Y-66797D01*
X-3027Y-66658D01*
X-3152Y-66519D01*
X-3374Y-66214D01*
X-3554Y-65895D01*
X-3679Y-65604D01*
X-3776Y-65327D01*
X-3804Y-65216D01*
X-3832Y-65105D01*
X-3846Y-65022D01*
X-3859Y-64966D01*
X-3873Y-64925D01*
Y-64911D01*
X-2709Y-64758D01*
X-2653Y-65063D01*
X-2570Y-65341D01*
X-2459Y-65563D01*
X-2362Y-65743D01*
X-2265Y-65895D01*
X-2182Y-65992D01*
X-2140Y-66062D01*
X-2112Y-66076D01*
X-1932Y-66214D01*
X-1738Y-66311D01*
X-1543Y-66395D01*
X-1363Y-66436D01*
X-1211Y-66464D01*
X-1072Y-66478D01*
X-989Y-66492D01*
X-961D01*
X-808Y-66478D01*
X-656Y-66464D01*
X-379Y-66395D01*
X-143Y-66298D01*
X65Y-66173D01*
X218Y-66062D01*
X343Y-65965D01*
X412Y-65895D01*
X440Y-65868D01*
X537Y-65743D01*
X620Y-65590D01*
X745Y-65285D01*
X842Y-64939D01*
X897Y-64606D01*
X939Y-64301D01*
X953Y-64176D01*
Y-64051D01*
X967Y-63968D01*
Y-63885D01*
Y-63843D01*
Y-63829D01*
Y-63579D01*
X939Y-63344D01*
X911Y-63122D01*
X883Y-62928D01*
X842Y-62747D01*
X786Y-62581D01*
X745Y-62428D01*
X689Y-62290D01*
X634Y-62179D01*
X592Y-62082D01*
X537Y-61998D01*
X495Y-61929D01*
X467Y-61874D01*
X440Y-61832D01*
X412Y-61818D01*
Y-61804D01*
X301Y-61693D01*
X190Y-61596D01*
X-46Y-61430D01*
X-295Y-61319D01*
X-517Y-61249D01*
X-725Y-61194D01*
X-878Y-61180D01*
X-947Y-61166D01*
X-1030D01*
X-1238Y-61180D01*
X-1433Y-61222D01*
X-1599Y-61277D01*
X-1752Y-61347D01*
X-1863Y-61416D01*
X-1960Y-61471D01*
X-2015Y-61513D01*
X-2029Y-61527D01*
X-2168Y-61666D01*
X-2292Y-61832D01*
X-2403Y-62012D01*
X-2473Y-62179D01*
X-2542Y-62331D01*
X-2584Y-62456D01*
X-2598Y-62539D01*
X-2611Y-62553D01*
Y-62567D01*
X-3762Y-62387D01*
X-3665Y-62012D01*
X-3527Y-61693D01*
X-3374Y-61416D01*
X-3222Y-61194D01*
X-3069Y-61014D01*
X-2944Y-60889D01*
X-2861Y-60806D01*
X-2847Y-60778D01*
X-2833D01*
X-2542Y-60584D01*
X-2237Y-60445D01*
X-1932Y-60334D01*
X-1641Y-60265D01*
X-1377Y-60223D01*
X-1266Y-60209D01*
X-1183D01*
X-1100Y-60195D01*
X-989D01*
X-656Y-60209D01*
D02*
G37*
G36*
X-7465D02*
X-7216Y-60237D01*
X-6980Y-60279D01*
X-6758Y-60348D01*
X-6550Y-60417D01*
X-6356Y-60501D01*
X-6176Y-60584D01*
X-6023Y-60681D01*
X-5870Y-60764D01*
X-5746Y-60861D01*
X-5635Y-60944D01*
X-5551Y-61014D01*
X-5482Y-61083D01*
X-5427Y-61125D01*
X-5399Y-61152D01*
X-5385Y-61166D01*
X-5232Y-61361D01*
X-5094Y-61568D01*
X-4969Y-61776D01*
X-4858Y-61998D01*
X-4775Y-62234D01*
X-4706Y-62456D01*
X-4595Y-62900D01*
X-4553Y-63094D01*
X-4525Y-63288D01*
X-4511Y-63455D01*
X-4498Y-63607D01*
X-4484Y-63732D01*
Y-63815D01*
Y-63885D01*
Y-63898D01*
X-4498Y-64204D01*
X-4525Y-64495D01*
X-4567Y-64772D01*
X-4622Y-65022D01*
X-4692Y-65258D01*
X-4761Y-65479D01*
X-4844Y-65673D01*
X-4927Y-65854D01*
X-5011Y-66006D01*
X-5094Y-66145D01*
X-5163Y-66256D01*
X-5232Y-66353D01*
X-5288Y-66436D01*
X-5330Y-66492D01*
X-5357Y-66519D01*
X-5371Y-66533D01*
X-5551Y-66700D01*
X-5732Y-66838D01*
X-5926Y-66963D01*
X-6134Y-67074D01*
X-6328Y-67157D01*
X-6536Y-67241D01*
X-6924Y-67352D01*
X-7105Y-67379D01*
X-7271Y-67407D01*
X-7424Y-67435D01*
X-7548Y-67449D01*
X-7646Y-67463D01*
X-7798D01*
X-8228Y-67435D01*
X-8616Y-67365D01*
X-8963Y-67282D01*
X-9102Y-67227D01*
X-9240Y-67171D01*
X-9365Y-67116D01*
X-9476Y-67060D01*
X-9559Y-67019D01*
X-9643Y-66977D01*
X-9698Y-66936D01*
X-9740Y-66908D01*
X-9768Y-66880D01*
X-9781D01*
X-10059Y-66630D01*
X-10281Y-66367D01*
X-10475Y-66090D01*
X-10613Y-65826D01*
X-10724Y-65590D01*
X-10766Y-65479D01*
X-10808Y-65396D01*
X-10835Y-65313D01*
X-10849Y-65258D01*
X-10863Y-65230D01*
Y-65216D01*
X-9643Y-65063D01*
X-9532Y-65327D01*
X-9407Y-65549D01*
X-9282Y-65743D01*
X-9171Y-65895D01*
X-9074Y-66006D01*
X-8991Y-66090D01*
X-8921Y-66145D01*
X-8908Y-66159D01*
X-8727Y-66270D01*
X-8547Y-66353D01*
X-8353Y-66409D01*
X-8187Y-66450D01*
X-8034Y-66478D01*
X-7909Y-66492D01*
X-7798D01*
X-7632Y-66478D01*
X-7479Y-66464D01*
X-7202Y-66395D01*
X-6952Y-66298D01*
X-6730Y-66187D01*
X-6564Y-66090D01*
X-6439Y-65992D01*
X-6356Y-65923D01*
X-6342Y-65895D01*
X-6328D01*
X-6134Y-65646D01*
X-5981Y-65368D01*
X-5870Y-65063D01*
X-5787Y-64786D01*
X-5746Y-64536D01*
X-5718Y-64425D01*
X-5704Y-64328D01*
Y-64245D01*
X-5690Y-64190D01*
Y-64148D01*
Y-64134D01*
X-10891D01*
X-10905Y-63995D01*
Y-63898D01*
Y-63843D01*
Y-63829D01*
X-10891Y-63510D01*
X-10863Y-63219D01*
X-10821Y-62941D01*
X-10766Y-62678D01*
X-10697Y-62442D01*
X-10627Y-62220D01*
X-10544Y-62026D01*
X-10461Y-61846D01*
X-10378Y-61679D01*
X-10295Y-61541D01*
X-10225Y-61430D01*
X-10156Y-61333D01*
X-10100Y-61249D01*
X-10059Y-61194D01*
X-10031Y-61166D01*
X-10017Y-61152D01*
X-9851Y-60986D01*
X-9670Y-60834D01*
X-9476Y-60709D01*
X-9282Y-60598D01*
X-9088Y-60501D01*
X-8908Y-60431D01*
X-8713Y-60362D01*
X-8547Y-60320D01*
X-8367Y-60279D01*
X-8214Y-60251D01*
X-8076Y-60223D01*
X-7965Y-60209D01*
X-7868Y-60195D01*
X-7729D01*
X-7465Y-60209D01*
D02*
G37*
G36*
X-35798Y-60209D02*
X-35549Y-60237D01*
X-35313Y-60279D01*
X-35091Y-60348D01*
X-34883Y-60417D01*
X-34689Y-60501D01*
X-34509Y-60584D01*
X-34356Y-60681D01*
X-34204Y-60764D01*
X-34079Y-60861D01*
X-33968Y-60944D01*
X-33885Y-61014D01*
X-33815Y-61083D01*
X-33760Y-61125D01*
X-33732Y-61153D01*
X-33718Y-61166D01*
X-33566Y-61361D01*
X-33427Y-61568D01*
X-33302Y-61776D01*
X-33191Y-61998D01*
X-33108Y-62234D01*
X-33039Y-62456D01*
X-32928Y-62900D01*
X-32886Y-63094D01*
X-32858Y-63288D01*
X-32845Y-63455D01*
X-32831Y-63607D01*
X-32817Y-63732D01*
Y-63815D01*
Y-63885D01*
Y-63898D01*
X-32831Y-64204D01*
X-32858Y-64495D01*
X-32900Y-64772D01*
X-32955Y-65022D01*
X-33025Y-65258D01*
X-33094Y-65479D01*
X-33177Y-65674D01*
X-33261Y-65854D01*
X-33344Y-66006D01*
X-33427Y-66145D01*
X-33496Y-66256D01*
X-33566Y-66353D01*
X-33621Y-66436D01*
X-33663Y-66492D01*
X-33691Y-66519D01*
X-33704Y-66533D01*
X-33885Y-66700D01*
X-34065Y-66838D01*
X-34259Y-66963D01*
X-34467Y-67074D01*
X-34661Y-67158D01*
X-34869Y-67241D01*
X-35258Y-67352D01*
X-35438Y-67379D01*
X-35604Y-67407D01*
X-35757Y-67435D01*
X-35882Y-67449D01*
X-35979Y-67463D01*
X-36131D01*
X-36561Y-67435D01*
X-36950Y-67365D01*
X-37296Y-67282D01*
X-37435Y-67227D01*
X-37574Y-67171D01*
X-37698Y-67116D01*
X-37809Y-67060D01*
X-37893Y-67019D01*
X-37976Y-66977D01*
X-38031Y-66936D01*
X-38073Y-66908D01*
X-38101Y-66880D01*
X-38115D01*
X-38392Y-66631D01*
X-38614Y-66367D01*
X-38808Y-66090D01*
X-38947Y-65826D01*
X-39058Y-65590D01*
X-39099Y-65479D01*
X-39141Y-65396D01*
X-39169Y-65313D01*
X-39182Y-65258D01*
X-39196Y-65230D01*
Y-65216D01*
X-37976Y-65063D01*
X-37865Y-65327D01*
X-37740Y-65549D01*
X-37615Y-65743D01*
X-37504Y-65895D01*
X-37407Y-66006D01*
X-37324Y-66090D01*
X-37255Y-66145D01*
X-37241Y-66159D01*
X-37060Y-66270D01*
X-36880Y-66353D01*
X-36686Y-66409D01*
X-36520Y-66450D01*
X-36367Y-66478D01*
X-36242Y-66492D01*
X-36131D01*
X-35965Y-66478D01*
X-35812Y-66464D01*
X-35535Y-66395D01*
X-35285Y-66298D01*
X-35063Y-66187D01*
X-34897Y-66090D01*
X-34772Y-65992D01*
X-34689Y-65923D01*
X-34675Y-65895D01*
X-34661D01*
X-34467Y-65646D01*
X-34314Y-65368D01*
X-34204Y-65063D01*
X-34120Y-64786D01*
X-34079Y-64536D01*
X-34051Y-64425D01*
X-34037Y-64328D01*
Y-64245D01*
X-34023Y-64190D01*
Y-64148D01*
Y-64134D01*
X-39224D01*
X-39238Y-63995D01*
Y-63898D01*
Y-63843D01*
Y-63829D01*
X-39224Y-63510D01*
X-39196Y-63219D01*
X-39155Y-62941D01*
X-39099Y-62678D01*
X-39030Y-62442D01*
X-38960Y-62220D01*
X-38877Y-62026D01*
X-38794Y-61846D01*
X-38711Y-61680D01*
X-38628Y-61541D01*
X-38558Y-61430D01*
X-38489Y-61333D01*
X-38433Y-61249D01*
X-38392Y-61194D01*
X-38364Y-61166D01*
X-38350Y-61153D01*
X-38184Y-60986D01*
X-38003Y-60834D01*
X-37809Y-60709D01*
X-37615Y-60598D01*
X-37421Y-60501D01*
X-37241Y-60431D01*
X-37047Y-60362D01*
X-36880Y-60320D01*
X-36700Y-60279D01*
X-36547Y-60251D01*
X-36409Y-60223D01*
X-36298Y-60209D01*
X-36201Y-60195D01*
X-36062D01*
X-35798Y-60209D01*
D02*
G37*
G36*
X45720Y-67310D02*
X39715D01*
Y-66173D01*
X44444D01*
Y-57713D01*
X45720D01*
Y-67310D01*
D02*
G37*
G36*
X18815Y-60209D02*
X18954Y-60237D01*
X19093Y-60279D01*
X19204Y-60320D01*
X19287Y-60362D01*
X19370Y-60403D01*
X19412Y-60431D01*
X19425Y-60445D01*
X19550Y-60556D01*
X19675Y-60695D01*
X19800Y-60861D01*
X19911Y-61014D01*
X20022Y-61166D01*
X20091Y-61291D01*
X20147Y-61388D01*
X20161Y-61402D01*
Y-60348D01*
X21228D01*
Y-67310D01*
X20050D01*
Y-63677D01*
X20036Y-63399D01*
X20022Y-63149D01*
X19994Y-62914D01*
X19952Y-62706D01*
X19911Y-62539D01*
X19883Y-62414D01*
X19869Y-62331D01*
X19855Y-62304D01*
X19800Y-62151D01*
X19731Y-62026D01*
X19661Y-61915D01*
X19592Y-61818D01*
X19523Y-61749D01*
X19481Y-61693D01*
X19439Y-61666D01*
X19425Y-61652D01*
X19315Y-61568D01*
X19190Y-61513D01*
X19065Y-61471D01*
X18968Y-61444D01*
X18871Y-61430D01*
X18801Y-61416D01*
X18732D01*
X18579Y-61430D01*
X18427Y-61458D01*
X18274Y-61499D01*
X18150Y-61541D01*
X18039Y-61582D01*
X17955Y-61624D01*
X17900Y-61652D01*
X17886Y-61666D01*
X17456Y-60584D01*
X17692Y-60459D01*
X17914Y-60362D01*
X18108Y-60293D01*
X18288Y-60237D01*
X18441Y-60209D01*
X18566Y-60195D01*
X18663D01*
X18815Y-60209D01*
D02*
G37*
G36*
X6292D02*
X6542Y-60251D01*
X6764Y-60307D01*
X6986Y-60376D01*
X7180Y-60459D01*
X7360Y-60556D01*
X7526Y-60667D01*
X7665Y-60764D01*
X7804Y-60875D01*
X7915Y-60986D01*
X8012Y-61083D01*
X8095Y-61166D01*
X8151Y-61236D01*
X8192Y-61291D01*
X8220Y-61333D01*
X8234Y-61347D01*
Y-60348D01*
X9288D01*
Y-67310D01*
X8109D01*
Y-63524D01*
Y-63288D01*
X8081Y-63052D01*
X8053Y-62858D01*
X8026Y-62678D01*
X7984Y-62512D01*
X7943Y-62359D01*
X7887Y-62220D01*
X7832Y-62109D01*
X7790Y-62012D01*
X7735Y-61929D01*
X7693Y-61860D01*
X7651Y-61804D01*
X7596Y-61735D01*
X7568Y-61707D01*
X7360Y-61541D01*
X7138Y-61430D01*
X6916Y-61347D01*
X6722Y-61277D01*
X6542Y-61249D01*
X6403Y-61236D01*
X6348Y-61222D01*
X6278D01*
X6112Y-61236D01*
X5945Y-61249D01*
X5807Y-61291D01*
X5696Y-61333D01*
X5599Y-61374D01*
X5515Y-61402D01*
X5474Y-61430D01*
X5460Y-61444D01*
X5335Y-61527D01*
X5224Y-61624D01*
X5141Y-61721D01*
X5072Y-61804D01*
X5030Y-61887D01*
X4988Y-61957D01*
X4961Y-61998D01*
Y-62012D01*
X4919Y-62165D01*
X4878Y-62331D01*
X4850Y-62512D01*
X4836Y-62692D01*
X4822Y-62844D01*
Y-62969D01*
Y-63066D01*
Y-63080D01*
Y-63094D01*
Y-67310D01*
X3643D01*
Y-63039D01*
Y-62747D01*
X3657Y-62512D01*
X3671Y-62317D01*
Y-62151D01*
X3685Y-62040D01*
X3699Y-61957D01*
X3713Y-61901D01*
Y-61887D01*
X3754Y-61707D01*
X3824Y-61541D01*
X3879Y-61402D01*
X3934Y-61263D01*
X4004Y-61166D01*
X4045Y-61097D01*
X4073Y-61041D01*
X4087Y-61028D01*
X4198Y-60889D01*
X4323Y-60778D01*
X4448Y-60667D01*
X4586Y-60584D01*
X4697Y-60514D01*
X4794Y-60473D01*
X4850Y-60445D01*
X4878Y-60431D01*
X5072Y-60348D01*
X5280Y-60293D01*
X5474Y-60251D01*
X5654Y-60223D01*
X5807Y-60209D01*
X5918Y-60195D01*
X6029D01*
X6292Y-60209D01*
D02*
G37*
G36*
X-43676Y-60209D02*
X-43426Y-60251D01*
X-43204Y-60307D01*
X-42982Y-60376D01*
X-42788Y-60459D01*
X-42608Y-60556D01*
X-42441Y-60667D01*
X-42303Y-60764D01*
X-42164Y-60875D01*
X-42053Y-60986D01*
X-41956Y-61083D01*
X-41873Y-61166D01*
X-41817Y-61236D01*
X-41776Y-61291D01*
X-41748Y-61333D01*
X-41734Y-61347D01*
Y-60348D01*
X-40680D01*
Y-67310D01*
X-41859D01*
Y-63524D01*
Y-63288D01*
X-41887Y-63052D01*
X-41914Y-62858D01*
X-41942Y-62678D01*
X-41984Y-62512D01*
X-42025Y-62359D01*
X-42081Y-62220D01*
X-42136Y-62109D01*
X-42178Y-62012D01*
X-42233Y-61929D01*
X-42275Y-61860D01*
X-42317Y-61804D01*
X-42372Y-61735D01*
X-42400Y-61707D01*
X-42608Y-61541D01*
X-42830Y-61430D01*
X-43052Y-61347D01*
X-43246Y-61277D01*
X-43426Y-61249D01*
X-43565Y-61236D01*
X-43620Y-61222D01*
X-43690D01*
X-43856Y-61236D01*
X-44022Y-61249D01*
X-44161Y-61291D01*
X-44272Y-61333D01*
X-44369Y-61374D01*
X-44452Y-61402D01*
X-44494Y-61430D01*
X-44508Y-61444D01*
X-44633Y-61527D01*
X-44744Y-61624D01*
X-44827Y-61721D01*
X-44896Y-61804D01*
X-44938Y-61887D01*
X-44979Y-61957D01*
X-45007Y-61998D01*
Y-62012D01*
X-45049Y-62165D01*
X-45090Y-62331D01*
X-45118Y-62512D01*
X-45132Y-62692D01*
X-45146Y-62844D01*
Y-62969D01*
Y-63066D01*
Y-63080D01*
Y-63094D01*
Y-67310D01*
X-46325D01*
Y-63039D01*
Y-62747D01*
X-46311Y-62512D01*
X-46297Y-62317D01*
Y-62151D01*
X-46283Y-62040D01*
X-46269Y-61957D01*
X-46255Y-61901D01*
Y-61887D01*
X-46214Y-61707D01*
X-46144Y-61541D01*
X-46089Y-61402D01*
X-46033Y-61263D01*
X-45964Y-61166D01*
X-45922Y-61097D01*
X-45895Y-61041D01*
X-45881Y-61028D01*
X-45770Y-60889D01*
X-45645Y-60778D01*
X-45520Y-60667D01*
X-45381Y-60584D01*
X-45271Y-60514D01*
X-45174Y-60473D01*
X-45118Y-60445D01*
X-45090Y-60431D01*
X-44896Y-60348D01*
X-44688Y-60293D01*
X-44494Y-60251D01*
X-44314Y-60223D01*
X-44161Y-60209D01*
X-44050Y-60195D01*
X-43939D01*
X-43676Y-60209D01*
D02*
G37*
%LPC*%
G36*
X27166Y191564D02*
X26944D01*
X26806Y191536D01*
X26542Y191467D01*
X26306Y191356D01*
X26112Y191245D01*
X25946Y191120D01*
X25821Y191009D01*
X25752Y190940D01*
X25724Y190926D01*
Y190912D01*
X25627Y190787D01*
X25530Y190648D01*
X25391Y190329D01*
X25294Y190010D01*
X25225Y189692D01*
X25183Y189414D01*
X25169Y189289D01*
Y189178D01*
X25155Y189095D01*
Y189026D01*
Y188984D01*
Y188970D01*
Y188734D01*
X25183Y188499D01*
X25211Y188291D01*
X25238Y188111D01*
X25280Y187930D01*
X25336Y187764D01*
X25377Y187625D01*
X25433Y187500D01*
X25488Y187375D01*
X25530Y187278D01*
X25585Y187195D01*
X25627Y187140D01*
X25654Y187084D01*
X25682Y187043D01*
X25710Y187029D01*
Y187015D01*
X25821Y186904D01*
X25932Y186807D01*
X26154Y186654D01*
X26390Y186543D01*
X26598Y186474D01*
X26792Y186418D01*
X26944Y186405D01*
X27000Y186391D01*
X27083D01*
X27236Y186405D01*
X27374Y186418D01*
X27638Y186488D01*
X27873Y186585D01*
X28068Y186710D01*
X28234Y186821D01*
X28345Y186918D01*
X28414Y186987D01*
X28442Y187015D01*
X28539Y187140D01*
X28622Y187278D01*
X28761Y187597D01*
X28844Y187916D01*
X28914Y188249D01*
X28955Y188540D01*
X28969Y188679D01*
Y188790D01*
X28983Y188887D01*
Y188956D01*
Y188998D01*
Y189012D01*
Y189248D01*
X28955Y189456D01*
X28928Y189650D01*
X28900Y189844D01*
X28858Y190010D01*
X28816Y190163D01*
X28761Y190315D01*
X28706Y190440D01*
X28664Y190551D01*
X28609Y190648D01*
X28567Y190732D01*
X28525Y190787D01*
X28498Y190842D01*
X28470Y190884D01*
X28442Y190898D01*
Y190912D01*
X28331Y191023D01*
X28220Y191134D01*
X27998Y191286D01*
X27776Y191411D01*
X27555Y191481D01*
X27374Y191536D01*
X27222Y191550D01*
X27166Y191564D01*
D02*
G37*
G36*
X32755Y188915D02*
X32741D01*
X32755Y188471D01*
X32769Y188194D01*
X32783Y187958D01*
X32811Y187764D01*
X32852Y187597D01*
X32894Y187472D01*
X32922Y187375D01*
X32935Y187320D01*
X32949Y187306D01*
X33060Y187126D01*
X33171Y186959D01*
X33310Y186821D01*
X33435Y186710D01*
X33546Y186613D01*
X33643Y186543D01*
X33698Y186502D01*
X33726Y186488D01*
X33934Y186391D01*
X34142Y186321D01*
X34336Y186266D01*
X34530Y186238D01*
X34683Y186210D01*
X34822Y186197D01*
X34932D01*
X35182Y186210D01*
X35390Y186238D01*
X35570Y186294D01*
X35723Y186349D01*
X35834Y186405D01*
X35917Y186460D01*
X35973Y186488D01*
X35986Y186502D01*
X36097Y186627D01*
X36181Y186765D01*
X36250Y186890D01*
X36292Y187015D01*
X36319Y187126D01*
X36333Y187209D01*
Y187278D01*
Y187292D01*
X36319Y187403D01*
X36305Y187514D01*
X36278Y187597D01*
X36250Y187680D01*
X36222Y187750D01*
X36208Y187805D01*
X36181Y187833D01*
Y187847D01*
X36042Y188013D01*
X35875Y188124D01*
X35820Y188166D01*
X35765Y188194D01*
X35723Y188221D01*
X35709D01*
X35570Y188277D01*
X35418Y188319D01*
X35251Y188360D01*
X35085Y188388D01*
X34932Y188416D01*
X34794Y188443D01*
X34711Y188457D01*
X34683D01*
X34447Y188499D01*
X34225Y188526D01*
X34031Y188568D01*
X33837Y188610D01*
X33657Y188651D01*
X33504Y188693D01*
X33352Y188721D01*
X33227Y188762D01*
X33116Y188790D01*
X33019Y188818D01*
X32935Y188846D01*
X32866Y188873D01*
X32811Y188887D01*
X32769Y188901D01*
X32755Y188915D01*
D02*
G37*
G36*
X12036Y191564D02*
X11953D01*
X11786Y191550D01*
X11634Y191536D01*
X11342Y191453D01*
X11093Y191342D01*
X10885Y191217D01*
X10718Y191092D01*
X10593Y190981D01*
X10524Y190898D01*
X10496Y190884D01*
Y190870D01*
X10372Y190690D01*
X10261Y190482D01*
X10191Y190274D01*
X10122Y190052D01*
X10080Y189872D01*
X10053Y189705D01*
Y189650D01*
X10039Y189608D01*
Y189580D01*
Y189567D01*
X13936D01*
X13894Y189886D01*
X13811Y190177D01*
X13714Y190427D01*
X13603Y190621D01*
X13506Y190787D01*
X13409Y190912D01*
X13353Y190981D01*
X13326Y191009D01*
X13104Y191189D01*
X12882Y191328D01*
X12646Y191425D01*
X12424Y191494D01*
X12244Y191536D01*
X12091Y191550D01*
X12036Y191564D01*
D02*
G37*
G36*
X-40928Y191564D02*
X-41011D01*
X-41177Y191550D01*
X-41330Y191536D01*
X-41621Y191453D01*
X-41871Y191342D01*
X-42079Y191217D01*
X-42245Y191092D01*
X-42370Y190981D01*
X-42439Y190898D01*
X-42467Y190884D01*
Y190870D01*
X-42592Y190690D01*
X-42703Y190482D01*
X-42772Y190274D01*
X-42842Y190052D01*
X-42883Y189872D01*
X-42911Y189705D01*
Y189650D01*
X-42925Y189608D01*
Y189580D01*
Y189567D01*
X-39028D01*
X-39069Y189886D01*
X-39153Y190177D01*
X-39250Y190427D01*
X-39361Y190621D01*
X-39458Y190787D01*
X-39555Y190912D01*
X-39610Y190981D01*
X-39638Y191009D01*
X-39860Y191189D01*
X-40082Y191328D01*
X-40318Y191425D01*
X-40539Y191494D01*
X-40720Y191536D01*
X-40872Y191550D01*
X-40928Y191564D01*
D02*
G37*
G36*
X-25964D02*
X-26047D01*
X-26213Y191550D01*
X-26366Y191536D01*
X-26643Y191467D01*
X-26893Y191356D01*
X-27101Y191231D01*
X-27267Y191106D01*
X-27392Y191009D01*
X-27475Y190926D01*
X-27503Y190912D01*
Y190898D01*
X-27614Y190773D01*
X-27697Y190621D01*
X-27850Y190315D01*
X-27961Y189983D01*
X-28030Y189678D01*
X-28072Y189386D01*
X-28085Y189261D01*
Y189151D01*
X-28099Y189067D01*
Y188998D01*
Y188956D01*
Y188943D01*
Y188693D01*
X-28072Y188457D01*
X-28044Y188249D01*
X-28002Y188041D01*
X-27961Y187861D01*
X-27905Y187694D01*
X-27864Y187542D01*
X-27808Y187403D01*
X-27753Y187292D01*
X-27697Y187181D01*
X-27642Y187098D01*
X-27600Y187029D01*
X-27559Y186973D01*
X-27531Y186932D01*
X-27517Y186918D01*
X-27503Y186904D01*
X-27392Y186793D01*
X-27267Y186682D01*
X-27032Y186516D01*
X-26782Y186405D01*
X-26560Y186321D01*
X-26352Y186280D01*
X-26199Y186252D01*
X-26130Y186238D01*
X-26047D01*
X-25880Y186252D01*
X-25728Y186266D01*
X-25437Y186335D01*
X-25187Y186446D01*
X-24979Y186571D01*
X-24813Y186682D01*
X-24688Y186793D01*
X-24605Y186862D01*
X-24591Y186890D01*
X-24577D01*
X-24480Y187029D01*
X-24383Y187167D01*
X-24244Y187486D01*
X-24133Y187819D01*
X-24064Y188152D01*
X-24022Y188443D01*
X-24008Y188568D01*
Y188679D01*
X-23994Y188776D01*
Y188846D01*
Y188887D01*
Y188901D01*
X-24008Y189137D01*
X-24022Y189373D01*
X-24050Y189580D01*
X-24091Y189775D01*
X-24133Y189955D01*
X-24175Y190121D01*
X-24230Y190260D01*
X-24286Y190399D01*
X-24341Y190510D01*
X-24397Y190621D01*
X-24438Y190704D01*
X-24480Y190773D01*
X-24521Y190829D01*
X-24549Y190870D01*
X-24577Y190884D01*
Y190898D01*
X-24688Y191009D01*
X-24813Y191120D01*
X-25048Y191286D01*
X-25298Y191397D01*
X-25534Y191481D01*
X-25742Y191536D01*
X-25894Y191550D01*
X-25964Y191564D01*
D02*
G37*
G36*
X-33231D02*
X-33300D01*
X-33453Y191550D01*
X-33591Y191536D01*
X-33855Y191453D01*
X-34091Y191356D01*
X-34285Y191231D01*
X-34437Y191106D01*
X-34562Y190995D01*
X-34631Y190912D01*
X-34659Y190898D01*
Y190884D01*
X-34756Y190745D01*
X-34839Y190607D01*
X-34978Y190274D01*
X-35075Y189927D01*
X-35145Y189594D01*
X-35172Y189428D01*
X-35186Y189275D01*
X-35200Y189137D01*
Y189026D01*
X-35214Y188929D01*
Y188859D01*
Y188804D01*
Y188790D01*
Y188554D01*
X-35186Y188332D01*
X-35158Y188138D01*
X-35131Y187944D01*
X-35089Y187778D01*
X-35034Y187611D01*
X-34992Y187472D01*
X-34936Y187348D01*
X-34881Y187237D01*
X-34839Y187126D01*
X-34784Y187056D01*
X-34742Y186987D01*
X-34715Y186932D01*
X-34687Y186890D01*
X-34659Y186876D01*
Y186862D01*
X-34562Y186751D01*
X-34451Y186654D01*
X-34229Y186502D01*
X-34007Y186391D01*
X-33799Y186321D01*
X-33619Y186266D01*
X-33466Y186252D01*
X-33411Y186238D01*
X-33342D01*
X-33203Y186252D01*
X-33064Y186266D01*
X-32815Y186335D01*
X-32579Y186446D01*
X-32385Y186571D01*
X-32232Y186682D01*
X-32107Y186793D01*
X-32038Y186862D01*
X-32024Y186890D01*
X-32010D01*
X-31913Y187029D01*
X-31830Y187167D01*
X-31691Y187486D01*
X-31594Y187819D01*
X-31525Y188138D01*
X-31483Y188429D01*
X-31469Y188554D01*
Y188665D01*
X-31456Y188762D01*
Y188832D01*
Y188873D01*
Y188887D01*
Y189137D01*
X-31483Y189373D01*
X-31511Y189594D01*
X-31539Y189788D01*
X-31580Y189969D01*
X-31622Y190135D01*
X-31664Y190288D01*
X-31719Y190427D01*
X-31774Y190537D01*
X-31816Y190634D01*
X-31858Y190718D01*
X-31899Y190787D01*
X-31941Y190842D01*
X-31955Y190884D01*
X-31983Y190898D01*
Y190912D01*
X-32080Y191023D01*
X-32191Y191134D01*
X-32413Y191286D01*
X-32634Y191411D01*
X-32842Y191481D01*
X-33023Y191536D01*
X-33175Y191550D01*
X-33231Y191564D01*
D02*
G37*
G36*
X22047Y-71342D02*
X21963D01*
X21811Y-71356D01*
X21658Y-71370D01*
X21520Y-71412D01*
X21395Y-71467D01*
X21159Y-71592D01*
X20951Y-71731D01*
X20798Y-71883D01*
X20674Y-72008D01*
X20632Y-72063D01*
X20604Y-72105D01*
X20577Y-72119D01*
Y-72133D01*
X20480Y-72299D01*
X20396Y-72493D01*
X20313Y-72715D01*
X20258Y-72951D01*
X20202Y-73201D01*
X20161Y-73464D01*
X20091Y-73991D01*
X20064Y-74255D01*
X20050Y-74490D01*
X20036Y-74712D01*
Y-74893D01*
X20022Y-75059D01*
Y-75184D01*
Y-75253D01*
Y-75267D01*
Y-75281D01*
Y-75711D01*
X20050Y-76099D01*
X20077Y-76446D01*
X20105Y-76779D01*
X20147Y-77056D01*
X20202Y-77319D01*
X20258Y-77541D01*
X20299Y-77750D01*
X20355Y-77916D01*
X20410Y-78055D01*
X20452Y-78179D01*
X20507Y-78276D01*
X20535Y-78346D01*
X20563Y-78387D01*
X20591Y-78415D01*
Y-78429D01*
X20701Y-78568D01*
X20812Y-78679D01*
X20923Y-78790D01*
X21034Y-78873D01*
X21270Y-79012D01*
X21478Y-79109D01*
X21672Y-79164D01*
X21811Y-79192D01*
X21866Y-79206D01*
X21950D01*
X22102Y-79192D01*
X22241Y-79178D01*
X22504Y-79081D01*
X22740Y-78956D01*
X22948Y-78817D01*
X23101Y-78679D01*
X23226Y-78554D01*
X23295Y-78457D01*
X23323Y-78443D01*
Y-78429D01*
X23420Y-78263D01*
X23503Y-78068D01*
X23586Y-77846D01*
X23642Y-77611D01*
X23697Y-77361D01*
X23739Y-77098D01*
X23808Y-76557D01*
X23836Y-76307D01*
X23849Y-76071D01*
X23863Y-75849D01*
Y-75669D01*
X23877Y-75503D01*
Y-75378D01*
Y-75309D01*
Y-75281D01*
X23863Y-74851D01*
X23849Y-74463D01*
X23822Y-74102D01*
X23780Y-73769D01*
X23739Y-73478D01*
X23683Y-73215D01*
X23628Y-72979D01*
X23572Y-72771D01*
X23517Y-72590D01*
X23475Y-72438D01*
X23420Y-72313D01*
X23378Y-72202D01*
X23336Y-72133D01*
X23309Y-72077D01*
X23281Y-72049D01*
Y-72036D01*
X23184Y-71911D01*
X23087Y-71800D01*
X22976Y-71717D01*
X22865Y-71634D01*
X22643Y-71509D01*
X22435Y-71425D01*
X22255Y-71384D01*
X22102Y-71356D01*
X22047Y-71342D01*
D02*
G37*
G36*
X3394D02*
X3310D01*
X3158Y-71356D01*
X3005Y-71370D01*
X2867Y-71412D01*
X2742Y-71467D01*
X2506Y-71592D01*
X2298Y-71731D01*
X2146Y-71883D01*
X2021Y-72008D01*
X1979Y-72063D01*
X1951Y-72105D01*
X1924Y-72119D01*
Y-72133D01*
X1826Y-72299D01*
X1743Y-72493D01*
X1660Y-72715D01*
X1605Y-72951D01*
X1549Y-73201D01*
X1507Y-73464D01*
X1438Y-73991D01*
X1410Y-74255D01*
X1397Y-74490D01*
X1383Y-74712D01*
Y-74893D01*
X1369Y-75059D01*
Y-75184D01*
Y-75253D01*
Y-75267D01*
Y-75281D01*
Y-75711D01*
X1397Y-76099D01*
X1424Y-76446D01*
X1452Y-76779D01*
X1494Y-77056D01*
X1549Y-77319D01*
X1605Y-77541D01*
X1646Y-77750D01*
X1702Y-77916D01*
X1757Y-78055D01*
X1799Y-78179D01*
X1854Y-78276D01*
X1882Y-78346D01*
X1910Y-78387D01*
X1937Y-78415D01*
Y-78429D01*
X2048Y-78568D01*
X2159Y-78679D01*
X2270Y-78790D01*
X2381Y-78873D01*
X2617Y-79012D01*
X2825Y-79109D01*
X3019Y-79164D01*
X3158Y-79192D01*
X3213Y-79206D01*
X3297D01*
X3449Y-79192D01*
X3588Y-79178D01*
X3851Y-79081D01*
X4087Y-78956D01*
X4295Y-78817D01*
X4448Y-78679D01*
X4572Y-78554D01*
X4642Y-78457D01*
X4669Y-78443D01*
Y-78429D01*
X4767Y-78263D01*
X4850Y-78068D01*
X4933Y-77846D01*
X4988Y-77611D01*
X5044Y-77361D01*
X5086Y-77098D01*
X5155Y-76557D01*
X5183Y-76307D01*
X5196Y-76071D01*
X5210Y-75849D01*
Y-75669D01*
X5224Y-75503D01*
Y-75378D01*
Y-75309D01*
Y-75281D01*
X5210Y-74851D01*
X5196Y-74463D01*
X5169Y-74102D01*
X5127Y-73769D01*
X5086Y-73478D01*
X5030Y-73215D01*
X4975Y-72979D01*
X4919Y-72771D01*
X4864Y-72590D01*
X4822Y-72438D01*
X4767Y-72313D01*
X4725Y-72202D01*
X4683Y-72133D01*
X4656Y-72077D01*
X4628Y-72049D01*
Y-72036D01*
X4531Y-71911D01*
X4434Y-71800D01*
X4323Y-71717D01*
X4212Y-71634D01*
X3990Y-71509D01*
X3782Y-71425D01*
X3602Y-71384D01*
X3449Y-71356D01*
X3394Y-71342D01*
D02*
G37*
G36*
X-18990D02*
X-19073D01*
X-19226Y-71356D01*
X-19378Y-71370D01*
X-19517Y-71412D01*
X-19642Y-71467D01*
X-19878Y-71592D01*
X-20086Y-71731D01*
X-20238Y-71883D01*
X-20363Y-72008D01*
X-20405Y-72063D01*
X-20432Y-72105D01*
X-20460Y-72119D01*
Y-72133D01*
X-20557Y-72299D01*
X-20640Y-72493D01*
X-20724Y-72715D01*
X-20779Y-72951D01*
X-20835Y-73201D01*
X-20876Y-73464D01*
X-20945Y-73991D01*
X-20973Y-74255D01*
X-20987Y-74490D01*
X-21001Y-74712D01*
Y-74893D01*
X-21015Y-75059D01*
Y-75184D01*
Y-75253D01*
Y-75267D01*
Y-75281D01*
Y-75711D01*
X-20987Y-76099D01*
X-20959Y-76446D01*
X-20931Y-76779D01*
X-20890Y-77056D01*
X-20835Y-77319D01*
X-20779Y-77541D01*
X-20737Y-77750D01*
X-20682Y-77916D01*
X-20626Y-78055D01*
X-20585Y-78179D01*
X-20529Y-78276D01*
X-20502Y-78346D01*
X-20474Y-78387D01*
X-20446Y-78415D01*
Y-78429D01*
X-20335Y-78568D01*
X-20224Y-78679D01*
X-20113Y-78790D01*
X-20002Y-78873D01*
X-19767Y-79012D01*
X-19559Y-79109D01*
X-19364Y-79164D01*
X-19226Y-79192D01*
X-19170Y-79206D01*
X-19087D01*
X-18935Y-79192D01*
X-18796Y-79178D01*
X-18532Y-79081D01*
X-18297Y-78956D01*
X-18089Y-78817D01*
X-17936Y-78679D01*
X-17811Y-78554D01*
X-17742Y-78457D01*
X-17714Y-78443D01*
Y-78429D01*
X-17617Y-78263D01*
X-17534Y-78068D01*
X-17451Y-77846D01*
X-17395Y-77611D01*
X-17340Y-77361D01*
X-17298Y-77098D01*
X-17229Y-76557D01*
X-17201Y-76307D01*
X-17187Y-76071D01*
X-17173Y-75849D01*
Y-75669D01*
X-17159Y-75503D01*
Y-75378D01*
Y-75309D01*
Y-75281D01*
X-17173Y-74851D01*
X-17187Y-74463D01*
X-17215Y-74102D01*
X-17256Y-73769D01*
X-17298Y-73478D01*
X-17354Y-73215D01*
X-17409Y-72979D01*
X-17464Y-72771D01*
X-17520Y-72590D01*
X-17562Y-72438D01*
X-17617Y-72313D01*
X-17659Y-72202D01*
X-17700Y-72133D01*
X-17728Y-72077D01*
X-17756Y-72049D01*
Y-72036D01*
X-17853Y-71911D01*
X-17950Y-71800D01*
X-18061Y-71717D01*
X-18172Y-71634D01*
X-18394Y-71509D01*
X-18602Y-71425D01*
X-18782Y-71384D01*
X-18935Y-71356D01*
X-18990Y-71342D01*
D02*
G37*
G36*
X-41374Y-71342D02*
X-41457D01*
X-41609Y-71356D01*
X-41762Y-71370D01*
X-41901Y-71412D01*
X-42025Y-71467D01*
X-42261Y-71592D01*
X-42469Y-71731D01*
X-42622Y-71883D01*
X-42747Y-72008D01*
X-42788Y-72063D01*
X-42816Y-72105D01*
X-42844Y-72119D01*
Y-72133D01*
X-42941Y-72299D01*
X-43024Y-72493D01*
X-43107Y-72715D01*
X-43163Y-72951D01*
X-43218Y-73201D01*
X-43260Y-73464D01*
X-43329Y-73991D01*
X-43357Y-74255D01*
X-43371Y-74490D01*
X-43384Y-74712D01*
Y-74893D01*
X-43398Y-75059D01*
Y-75184D01*
Y-75253D01*
Y-75267D01*
Y-75281D01*
Y-75711D01*
X-43371Y-76099D01*
X-43343Y-76446D01*
X-43315Y-76779D01*
X-43274Y-77056D01*
X-43218Y-77320D01*
X-43163Y-77541D01*
X-43121Y-77750D01*
X-43066Y-77916D01*
X-43010Y-78055D01*
X-42968Y-78179D01*
X-42913Y-78277D01*
X-42885Y-78346D01*
X-42857Y-78387D01*
X-42830Y-78415D01*
Y-78429D01*
X-42719Y-78568D01*
X-42608Y-78679D01*
X-42497Y-78790D01*
X-42386Y-78873D01*
X-42150Y-79012D01*
X-41942Y-79109D01*
X-41748Y-79164D01*
X-41609Y-79192D01*
X-41554Y-79206D01*
X-41471D01*
X-41318Y-79192D01*
X-41179Y-79178D01*
X-40916Y-79081D01*
X-40680Y-78956D01*
X-40472Y-78817D01*
X-40320Y-78679D01*
X-40195Y-78554D01*
X-40125Y-78457D01*
X-40098Y-78443D01*
Y-78429D01*
X-40001Y-78263D01*
X-39917Y-78068D01*
X-39834Y-77847D01*
X-39779Y-77611D01*
X-39723Y-77361D01*
X-39682Y-77098D01*
X-39612Y-76557D01*
X-39585Y-76307D01*
X-39571Y-76071D01*
X-39557Y-75849D01*
Y-75669D01*
X-39543Y-75503D01*
Y-75378D01*
Y-75309D01*
Y-75281D01*
X-39557Y-74851D01*
X-39571Y-74463D01*
X-39598Y-74102D01*
X-39640Y-73769D01*
X-39682Y-73478D01*
X-39737Y-73215D01*
X-39793Y-72979D01*
X-39848Y-72771D01*
X-39904Y-72590D01*
X-39945Y-72438D01*
X-40001Y-72313D01*
X-40042Y-72202D01*
X-40084Y-72133D01*
X-40111Y-72077D01*
X-40139Y-72050D01*
Y-72036D01*
X-40236Y-71911D01*
X-40333Y-71800D01*
X-40444Y-71717D01*
X-40555Y-71634D01*
X-40777Y-71509D01*
X-40985Y-71425D01*
X-41165Y-71384D01*
X-41318Y-71356D01*
X-41374Y-71342D01*
D02*
G37*
G36*
X33918Y-63815D02*
X33904D01*
X33918Y-64259D01*
X33932Y-64536D01*
X33946Y-64772D01*
X33974Y-64966D01*
X34015Y-65133D01*
X34057Y-65258D01*
X34084Y-65355D01*
X34098Y-65410D01*
X34112Y-65424D01*
X34223Y-65604D01*
X34334Y-65771D01*
X34473Y-65909D01*
X34597Y-66020D01*
X34708Y-66117D01*
X34806Y-66187D01*
X34861Y-66228D01*
X34889Y-66242D01*
X35097Y-66339D01*
X35305Y-66409D01*
X35499Y-66464D01*
X35693Y-66492D01*
X35846Y-66519D01*
X35984Y-66533D01*
X36095D01*
X36345Y-66519D01*
X36553Y-66492D01*
X36733Y-66436D01*
X36886Y-66381D01*
X36997Y-66325D01*
X37080Y-66270D01*
X37136Y-66242D01*
X37149Y-66228D01*
X37260Y-66103D01*
X37343Y-65965D01*
X37413Y-65840D01*
X37454Y-65715D01*
X37482Y-65604D01*
X37496Y-65521D01*
Y-65452D01*
Y-65438D01*
X37482Y-65327D01*
X37468Y-65216D01*
X37441Y-65133D01*
X37413Y-65050D01*
X37385Y-64980D01*
X37371Y-64925D01*
X37343Y-64897D01*
Y-64883D01*
X37205Y-64717D01*
X37038Y-64606D01*
X36983Y-64564D01*
X36927Y-64536D01*
X36886Y-64509D01*
X36872D01*
X36733Y-64453D01*
X36581Y-64412D01*
X36414Y-64370D01*
X36248Y-64342D01*
X36095Y-64314D01*
X35957Y-64287D01*
X35873Y-64273D01*
X35846D01*
X35610Y-64231D01*
X35388Y-64204D01*
X35194Y-64162D01*
X35000Y-64120D01*
X34819Y-64079D01*
X34667Y-64037D01*
X34514Y-64009D01*
X34390Y-63968D01*
X34279Y-63940D01*
X34181Y-63912D01*
X34098Y-63885D01*
X34029Y-63857D01*
X33974Y-63843D01*
X33932Y-63829D01*
X33918Y-63815D01*
D02*
G37*
G36*
X13975Y-61166D02*
X13892D01*
X13726Y-61180D01*
X13573Y-61194D01*
X13282Y-61277D01*
X13032Y-61388D01*
X12824Y-61513D01*
X12658Y-61638D01*
X12533Y-61749D01*
X12464Y-61832D01*
X12436Y-61846D01*
Y-61860D01*
X12311Y-62040D01*
X12200Y-62248D01*
X12131Y-62456D01*
X12061Y-62678D01*
X12020Y-62858D01*
X11992Y-63025D01*
Y-63080D01*
X11978Y-63122D01*
Y-63149D01*
Y-63163D01*
X15875D01*
X15834Y-62844D01*
X15750Y-62553D01*
X15653Y-62304D01*
X15542Y-62109D01*
X15445Y-61943D01*
X15348Y-61818D01*
X15293Y-61749D01*
X15265Y-61721D01*
X15043Y-61541D01*
X14821Y-61402D01*
X14585Y-61305D01*
X14363Y-61236D01*
X14183Y-61194D01*
X14031Y-61180D01*
X13975Y-61166D01*
D02*
G37*
G36*
X-7660D02*
X-7743D01*
X-7909Y-61180D01*
X-8062Y-61194D01*
X-8353Y-61277D01*
X-8602Y-61388D01*
X-8810Y-61513D01*
X-8977Y-61638D01*
X-9102Y-61749D01*
X-9171Y-61832D01*
X-9199Y-61846D01*
Y-61860D01*
X-9324Y-62040D01*
X-9435Y-62248D01*
X-9504Y-62456D01*
X-9573Y-62678D01*
X-9615Y-62858D01*
X-9643Y-63025D01*
Y-63080D01*
X-9657Y-63122D01*
Y-63149D01*
Y-63163D01*
X-5760D01*
X-5801Y-62844D01*
X-5884Y-62553D01*
X-5981Y-62304D01*
X-6092Y-62109D01*
X-6189Y-61943D01*
X-6287Y-61818D01*
X-6342Y-61749D01*
X-6370Y-61721D01*
X-6592Y-61541D01*
X-6813Y-61402D01*
X-7049Y-61305D01*
X-7271Y-61236D01*
X-7451Y-61194D01*
X-7604Y-61180D01*
X-7660Y-61166D01*
D02*
G37*
G36*
X-35993Y-61166D02*
X-36076D01*
X-36242Y-61180D01*
X-36395Y-61194D01*
X-36686Y-61277D01*
X-36936Y-61388D01*
X-37144Y-61513D01*
X-37310Y-61638D01*
X-37435Y-61749D01*
X-37504Y-61832D01*
X-37532Y-61846D01*
Y-61860D01*
X-37657Y-62040D01*
X-37768Y-62248D01*
X-37837Y-62456D01*
X-37906Y-62678D01*
X-37948Y-62858D01*
X-37976Y-63025D01*
Y-63080D01*
X-37990Y-63122D01*
Y-63149D01*
Y-63163D01*
X-34093D01*
X-34134Y-62844D01*
X-34218Y-62553D01*
X-34314Y-62304D01*
X-34425Y-62109D01*
X-34523Y-61943D01*
X-34620Y-61818D01*
X-34675Y-61749D01*
X-34703Y-61721D01*
X-34925Y-61541D01*
X-35147Y-61402D01*
X-35382Y-61305D01*
X-35604Y-61236D01*
X-35785Y-61194D01*
X-35937Y-61180D01*
X-35993Y-61166D01*
D02*
G37*
%LPD*%
D10*
X45000Y0D02*
X44928Y2546D01*
X44712Y5084D01*
X44353Y7605D01*
X43851Y10102D01*
X43210Y12567D01*
X42429Y14991D01*
X41513Y17368D01*
X40464Y19689D01*
X39286Y21946D01*
X37981Y24134D01*
X36555Y26244D01*
X35012Y28270D01*
X33356Y30205D01*
X31594Y32044D01*
X29730Y33780D01*
X27772Y35408D01*
X25724Y36923D01*
X23594Y38319D01*
X21388Y39592D01*
X19114Y40739D01*
X16779Y41755D01*
X14389Y42637D01*
X11954Y43383D01*
X9481Y43990D01*
X6977Y44456D01*
X4450Y44779D01*
X1910Y44960D01*
X-637Y44995D01*
X-3181Y44887D01*
X-5716Y44636D01*
X-8232Y44241D01*
X-10722Y43704D01*
X-13177Y43028D01*
X-15590Y42213D01*
X-17953Y41263D01*
X-20259Y40182D01*
X-22500Y38971D01*
X-24669Y37636D01*
X-26758Y36180D01*
X-28763Y34608D01*
X-30674Y32925D01*
X-32488Y31137D01*
X-34198Y29249D01*
X-35798Y27268D01*
X-37283Y25199D01*
X-38649Y23049D01*
X-39891Y20826D01*
X-41005Y18536D01*
X-41988Y16186D01*
X-42837Y13785D01*
X-43548Y11339D01*
X-44120Y8857D01*
X-44550Y6347D01*
X-44838Y3816D01*
X-44982Y1274D01*
X-44982Y-1273D01*
X-44838Y-3816D01*
X-44550Y-6347D01*
X-44120Y-8857D01*
X-43548Y-11339D01*
X-42837Y-13785D01*
X-41988Y-16186D01*
X-41005Y-18535D01*
X-39891Y-20826D01*
X-38649Y-23049D01*
X-37283Y-25199D01*
X-35798Y-27268D01*
X-34198Y-29249D01*
X-32488Y-31137D01*
X-30675Y-32925D01*
X-28763Y-34608D01*
X-26759Y-36180D01*
X-24669Y-37636D01*
X-22500Y-38971D01*
X-20259Y-40182D01*
X-17954Y-41263D01*
X-15590Y-42213D01*
X-13177Y-43028D01*
X-10722Y-43704D01*
X-8232Y-44241D01*
X-5716Y-44636D01*
X-3182Y-44887D01*
X-637Y-44995D01*
X1910Y-44960D01*
X4450Y-44779D01*
X6977Y-44456D01*
X9481Y-43990D01*
X11954Y-43383D01*
X14389Y-42637D01*
X16779Y-41755D01*
X19114Y-40739D01*
X21388Y-39592D01*
X23594Y-38319D01*
X25724Y-36923D01*
X27772Y-35408D01*
X29730Y-33780D01*
X31594Y-32044D01*
X33356Y-30205D01*
X35012Y-28270D01*
X36555Y-26244D01*
X37981Y-24134D01*
X39286Y-21946D01*
X40464Y-19688D01*
X41514Y-17368D01*
X42429Y-14991D01*
X43210Y-12567D01*
X43851Y-10102D01*
X44353Y-7605D01*
X44712Y-5083D01*
X44928Y-2546D01*
X45000Y0D01*
D12*
X-15000Y-25000D02*
X15000D01*
X-15000Y25000D02*
X15000D01*
X-15000Y-25000D02*
Y25000D01*
X15000Y-25000D02*
Y25000D01*
D15*
X-1905Y86360D02*
X1905D01*
D16*
X2858Y85407D02*
X3810Y84455D01*
X0Y88265D02*
X953Y87312D01*
X2858Y85407D01*
X-3810Y84455D02*
X0Y88265D01*
X-3810Y84455D02*
X3810D01*
D30*
X8000Y15000D02*
X6870Y17345D01*
X4333Y17925D01*
X2297Y16302D01*
Y13698D01*
X4333Y12075D01*
X6870Y12655D01*
X8000Y15000D01*
D31*
X28500Y27550D02*
X26625Y28633D01*
Y26467D01*
X28500Y27550D01*
M02*
