G04*
G04 #@! TF.GenerationSoftware,Altium Limited,Altium Designer,18.1.7 (191)*
G04*
G04 Layer_Color=2752767*
%FSLAX44Y44*%
%MOMM*%
G71*
G01*
G75*
%ADD32C,0.0508*%
%ADD33C,0.0677*%
D32*
X-90432Y86368D02*
Y90432D01*
X-86368D01*
Y86368D01*
X-90432D01*
Y-90432D02*
Y-86368D01*
X-86368D01*
Y-90432D01*
X-90432D01*
X86368D02*
Y-86368D01*
X90432D01*
Y-90432D01*
X86368D01*
Y86368D02*
Y90432D01*
X90432D01*
Y86368D01*
X86368D01*
D33*
X-10668Y115570D02*
X-12072Y117503D01*
X-14344Y116764D01*
Y114376D01*
X-12072Y113637D01*
X-10668Y115570D01*
X2032Y100330D02*
X628Y102263D01*
X-1644Y101524D01*
Y99136D01*
X628Y98397D01*
X2032Y100330D01*
X38862Y106680D02*
X37458Y108613D01*
X35186Y107874D01*
Y105486D01*
X37458Y104747D01*
X38862Y106680D01*
X41402Y-50800D02*
X39998Y-48867D01*
X37726Y-49606D01*
Y-51994D01*
X39998Y-52733D01*
X41402Y-50800D01*
X33782Y31750D02*
X32378Y33683D01*
X30106Y32944D01*
Y30556D01*
X32378Y29817D01*
X33782Y31750D01*
X47752Y-19050D02*
X46348Y-17117D01*
X44076Y-17856D01*
Y-20244D01*
X46348Y-20983D01*
X47752Y-19050D01*
X-15748Y-31750D02*
X-17152Y-29817D01*
X-19424Y-30556D01*
Y-32944D01*
X-17152Y-33683D01*
X-15748Y-31750D01*
X-30988Y39370D02*
X-32392Y41303D01*
X-34664Y40564D01*
Y38176D01*
X-32392Y37437D01*
X-30988Y39370D01*
X-6858Y55880D02*
X-8262Y57813D01*
X-10534Y57074D01*
Y54686D01*
X-8262Y53947D01*
X-6858Y55880D01*
M02*
