G04*
G04 #@! TF.GenerationSoftware,Altium Limited,Altium Designer,18.1.7 (191)*
G04*
G04 Layer_Physical_Order=1*
G04 Layer_Color=5020405*
%FSLAX44Y44*%
%MOMM*%
G71*
G01*
G75*
%ADD11C,0.5000*%
%ADD17R,0.6000X1.5000*%
%ADD18R,1.2000X3.0000*%
%ADD19R,0.9800X0.9300*%
%ADD20R,0.8800X1.5600*%
%ADD26C,6.0000*%
%ADD27C,1.0000*%
G36*
X34710Y172150D02*
X51719D01*
Y111363D01*
X52015Y109876D01*
X52857Y108616D01*
X53580Y108133D01*
X52649Y106616D01*
X50240Y100799D01*
X48770Y94677D01*
X48276Y88400D01*
X48770Y82123D01*
X50240Y76001D01*
X52649Y70184D01*
X55939Y64816D01*
X60028Y60028D01*
X64816Y55939D01*
X70184Y52649D01*
X76001Y50240D01*
X82123Y48770D01*
X88400Y48276D01*
X94677Y48770D01*
X100799Y50240D01*
X101305Y50450D01*
X102086Y49448D01*
X100548Y47375D01*
X96246Y40197D01*
X92668Y32633D01*
X89849Y24753D01*
X87816Y16636D01*
X86588Y8358D01*
X86177Y0D01*
X86588Y-8358D01*
X87816Y-16636D01*
X89849Y-24753D01*
X92668Y-32633D01*
X96246Y-40197D01*
X100548Y-47375D01*
X102086Y-49448D01*
X101305Y-50450D01*
X100799Y-50240D01*
X94677Y-48770D01*
X88400Y-48276D01*
X82123Y-48770D01*
X76001Y-50240D01*
X70184Y-52649D01*
X64816Y-55939D01*
X60028Y-60028D01*
X55939Y-64816D01*
X52649Y-70184D01*
X50240Y-76001D01*
X48770Y-82123D01*
X48276Y-88400D01*
X48770Y-94677D01*
X50240Y-100799D01*
X50476Y-101369D01*
X49475Y-102151D01*
X47355Y-100578D01*
X40177Y-96276D01*
X32613Y-92698D01*
X24733Y-89879D01*
X16616Y-87846D01*
X8338Y-86618D01*
X19Y-86209D01*
X0Y-86205D01*
Y-86177D01*
X-8358Y-86588D01*
X-16636Y-87816D01*
X-24753Y-89849D01*
X-32633Y-92668D01*
X-40197Y-96246D01*
X-47375Y-100548D01*
X-49448Y-102086D01*
X-50450Y-101305D01*
X-50240Y-100799D01*
X-48770Y-94677D01*
X-48276Y-88400D01*
X-48770Y-82123D01*
X-50240Y-76001D01*
X-52649Y-70184D01*
X-55939Y-64816D01*
X-60028Y-60028D01*
X-64816Y-55939D01*
X-70184Y-52649D01*
X-76001Y-50240D01*
X-82123Y-48770D01*
X-88400Y-48276D01*
X-94677Y-48770D01*
X-100799Y-50240D01*
X-101305Y-50450D01*
X-102086Y-49448D01*
X-100548Y-47375D01*
X-96246Y-40197D01*
X-92668Y-32633D01*
X-89849Y-24753D01*
X-87816Y-16636D01*
X-86588Y-8358D01*
X-86177Y0D01*
X-86588Y8358D01*
X-87816Y16636D01*
X-89849Y24753D01*
X-92668Y32633D01*
X-96246Y40197D01*
X-100548Y47375D01*
X-102086Y49448D01*
X-101305Y50450D01*
X-100799Y50240D01*
X-94677Y48770D01*
X-88400Y48276D01*
X-82123Y48770D01*
X-76001Y50240D01*
X-70184Y52649D01*
X-64816Y55939D01*
X-60028Y60028D01*
X-55939Y64816D01*
X-52649Y70184D01*
X-50240Y76001D01*
X-48770Y82123D01*
X-48276Y88400D01*
X-48770Y94677D01*
X-50240Y100799D01*
X-52649Y106616D01*
X-53572Y108122D01*
X-52907Y108566D01*
X-52065Y109826D01*
X-51769Y111313D01*
Y172150D01*
X-34710D01*
Y203125D01*
X34710D01*
Y172150D01*
D02*
G37*
%LPC*%
G36*
X-6960Y171730D02*
X-11230D01*
Y162960D01*
X-6960D01*
Y171730D01*
D02*
G37*
G36*
X-13770D02*
X-18040D01*
Y162960D01*
X-13770D01*
Y171730D01*
D02*
G37*
G36*
X-6960Y160420D02*
X-11230D01*
Y151650D01*
X-6960D01*
Y160420D01*
D02*
G37*
G36*
X-13770D02*
X-18040D01*
Y151650D01*
X-13770D01*
Y160420D01*
D02*
G37*
G36*
X38100Y114118D02*
Y107950D01*
X44268D01*
X44176Y108648D01*
X43416Y110483D01*
X42208Y112058D01*
X40633Y113266D01*
X38798Y114026D01*
X38100Y114118D01*
D02*
G37*
G36*
X44268Y105410D02*
X38100D01*
Y99242D01*
X38798Y99334D01*
X40633Y100094D01*
X42208Y101302D01*
X43416Y102878D01*
X44176Y104712D01*
X44268Y105410D01*
D02*
G37*
G36*
X30540Y171730D02*
X19460D01*
Y151650D01*
X19861D01*
Y91898D01*
X17772Y89809D01*
X16786Y90619D01*
X17248Y91310D01*
X17639Y93277D01*
Y151650D01*
X18040D01*
Y171730D01*
X6960D01*
Y151650D01*
X7361D01*
Y105209D01*
X6091Y104777D01*
X5378Y105708D01*
X5139Y105891D01*
Y151650D01*
X5540D01*
Y171730D01*
X-5540D01*
Y151650D01*
X-5139D01*
Y120188D01*
X-6409Y119757D01*
X-7322Y120948D01*
X-8898Y122156D01*
X-10732Y122916D01*
X-11430Y123008D01*
Y115570D01*
Y108132D01*
X-10732Y108224D01*
X-8898Y108984D01*
X-7322Y110192D01*
X-6409Y111383D01*
X-5139Y110952D01*
Y105891D01*
X-5378Y105708D01*
X-6586Y104132D01*
X-7346Y102298D01*
X-7605Y100330D01*
X-7346Y98362D01*
X-6586Y96528D01*
X-5378Y94952D01*
X-3803Y93744D01*
X-1968Y92984D01*
X0Y92725D01*
X1968Y92984D01*
X3803Y93744D01*
X4237Y94077D01*
X5076Y93120D01*
X-22564Y65480D01*
X-23678Y63813D01*
X-24069Y61847D01*
Y44509D01*
X-27459D01*
X-27642Y44748D01*
X-29218Y45956D01*
X-31052Y46716D01*
X-33020Y46975D01*
X-34988Y46716D01*
X-36823Y45956D01*
X-38398Y44748D01*
X-39606Y43172D01*
X-40366Y41338D01*
X-40625Y39370D01*
X-40366Y37402D01*
X-39606Y35568D01*
X-38398Y33992D01*
X-36823Y32784D01*
X-34988Y32024D01*
X-33020Y31765D01*
X-31052Y32024D01*
X-29218Y32784D01*
X-27642Y33992D01*
X-27459Y34231D01*
X-25240D01*
Y22100D01*
X-25240D01*
Y21080D01*
X-25240D01*
Y18949D01*
X-26750D01*
X-28716Y18557D01*
X-30384Y17444D01*
X-34114Y13714D01*
X-35228Y12047D01*
X-35619Y10080D01*
Y-13970D01*
X-35228Y-15936D01*
X-34114Y-17604D01*
X-28954Y-22764D01*
X-27287Y-23878D01*
X-25320Y-24269D01*
X-25240D01*
Y-26320D01*
X-24718D01*
X-24092Y-27590D01*
X-24366Y-27947D01*
X-25126Y-29782D01*
X-25385Y-31750D01*
X-25126Y-33718D01*
X-24366Y-35552D01*
X-23158Y-37128D01*
X-21583Y-38336D01*
X-19748Y-39096D01*
X-17780Y-39355D01*
X-17499Y-39318D01*
X-15084Y-41734D01*
X-13417Y-42848D01*
X-13290Y-42873D01*
Y-48440D01*
X1511D01*
Y-50911D01*
X411Y-52011D01*
X-25812D01*
X-58361Y-19461D01*
Y42322D01*
X-21366Y79316D01*
X-20252Y80983D01*
X-19861Y82950D01*
Y110431D01*
X-18591Y110862D01*
X-18078Y110192D01*
X-16502Y108984D01*
X-14668Y108224D01*
X-13970Y108132D01*
Y115570D01*
Y123008D01*
X-14668Y122916D01*
X-16502Y122156D01*
X-18078Y120948D01*
X-18591Y120278D01*
X-19861Y120709D01*
Y151650D01*
X-19460D01*
Y171730D01*
X-30540D01*
Y151650D01*
X-30139D01*
Y85078D01*
X-67134Y48084D01*
X-68248Y46417D01*
X-68639Y44450D01*
Y-21590D01*
X-68248Y-23556D01*
X-67134Y-25224D01*
X-31574Y-60784D01*
X-29906Y-61898D01*
X-27940Y-62289D01*
X2540D01*
X4507Y-61898D01*
X6174Y-60784D01*
X10284Y-56674D01*
X11398Y-55006D01*
X11789Y-53040D01*
Y-48440D01*
X13590D01*
X13590Y-48440D01*
Y-48440D01*
X13590Y-48440D01*
X14755Y-48693D01*
X20496Y-54434D01*
X22164Y-55548D01*
X24130Y-55939D01*
X33809D01*
X33992Y-56178D01*
X35568Y-57386D01*
X37402Y-58146D01*
X39370Y-58405D01*
X41338Y-58146D01*
X43172Y-57386D01*
X44748Y-56178D01*
X45956Y-54602D01*
X46716Y-52768D01*
X46975Y-50800D01*
X46716Y-48832D01*
X45956Y-46997D01*
X44748Y-45422D01*
X43172Y-44214D01*
X41338Y-43454D01*
X39370Y-43195D01*
X37402Y-43454D01*
X35568Y-44214D01*
X33992Y-45422D01*
X33809Y-45661D01*
X26258D01*
X22919Y-42322D01*
Y-26320D01*
X25220D01*
Y-12190D01*
X25220Y-11940D01*
Y-10920D01*
X25220Y-10670D01*
Y-5000D01*
X17780D01*
X10340D01*
Y-10670D01*
X10340Y-10920D01*
Y-11940D01*
X10340Y-12190D01*
Y-13991D01*
X7440D01*
Y-12190D01*
X7440Y-11940D01*
Y-10920D01*
X7440Y-10670D01*
Y-5000D01*
X0D01*
X-7440D01*
Y-10670D01*
X-7440Y-10920D01*
Y-11940D01*
X-7440Y-12190D01*
Y-26320D01*
X-6278D01*
X-6187Y-26490D01*
X-6947Y-27760D01*
X-10136D01*
X-10266Y-27551D01*
X-10360Y-26320D01*
X-10360D01*
Y-12190D01*
X-10360Y-11940D01*
Y-10920D01*
X-10360Y-10670D01*
Y-5000D01*
X-17800D01*
Y-3730D01*
X-19070D01*
Y3460D01*
X-25240Y3460D01*
X-25341Y4688D01*
Y5472D01*
X-25240Y6700D01*
X-10360D01*
Y8671D01*
X-7460D01*
Y6620D01*
X7420D01*
Y21000D01*
X7420D01*
Y22020D01*
X7420D01*
Y36400D01*
X5119D01*
Y55880D01*
Y62621D01*
X28634Y86136D01*
X29748Y87803D01*
X30139Y89770D01*
Y100928D01*
X31409Y101359D01*
X31452Y101302D01*
X33028Y100094D01*
X34862Y99334D01*
X35560Y99242D01*
Y106680D01*
Y114118D01*
X34862Y114026D01*
X33028Y113266D01*
X31452Y112058D01*
X31409Y112001D01*
X30139Y112432D01*
Y151650D01*
X30540D01*
Y171730D01*
D02*
G37*
G36*
X31750Y39355D02*
X29782Y39096D01*
X27947Y38336D01*
X26372Y37128D01*
X26189Y36889D01*
X20220D01*
X18254Y36498D01*
X18227Y36480D01*
X10320D01*
Y22350D01*
X10320Y22100D01*
Y21080D01*
X10320Y20830D01*
Y15160D01*
X17760D01*
X25200D01*
Y20830D01*
X25200Y21080D01*
Y22100D01*
X25200Y22350D01*
Y25814D01*
X26046Y26217D01*
X26470Y26298D01*
X27947Y25164D01*
X29782Y24404D01*
X31750Y24145D01*
X33718Y24404D01*
X35552Y25164D01*
X37128Y26372D01*
X38336Y27947D01*
X39096Y29782D01*
X39355Y31750D01*
X39096Y33718D01*
X38336Y35552D01*
X37128Y37128D01*
X35552Y38336D01*
X33718Y39096D01*
X31750Y39355D01*
D02*
G37*
G36*
X25200Y12620D02*
X19030D01*
Y6700D01*
X25200D01*
Y12620D01*
D02*
G37*
G36*
X16490D02*
X10320D01*
Y6700D01*
X16490D01*
Y12620D01*
D02*
G37*
G36*
X25220Y3460D02*
X19050D01*
Y-2460D01*
X25220D01*
Y3460D01*
D02*
G37*
G36*
X7440D02*
X1270D01*
Y-2460D01*
X7440D01*
Y3460D01*
D02*
G37*
G36*
X16510D02*
X10340D01*
Y-2460D01*
X16510D01*
Y3460D01*
D02*
G37*
G36*
X-1270D02*
X-7440D01*
Y-2460D01*
X-1270D01*
Y3460D01*
D02*
G37*
G36*
X-16530D02*
Y-2460D01*
X-10360D01*
Y3460D01*
X-16530D01*
D02*
G37*
G36*
X46990Y-11612D02*
Y-17780D01*
X53158D01*
X53066Y-17082D01*
X52306Y-15247D01*
X51098Y-13672D01*
X49523Y-12464D01*
X47688Y-11704D01*
X46990Y-11612D01*
D02*
G37*
G36*
X44450D02*
X43752Y-11704D01*
X41918Y-12464D01*
X40342Y-13672D01*
X39134Y-15247D01*
X38374Y-17082D01*
X38282Y-17780D01*
X44450D01*
Y-11612D01*
D02*
G37*
G36*
X53158Y-20320D02*
X46990D01*
Y-26488D01*
X47688Y-26396D01*
X49523Y-25636D01*
X51098Y-24428D01*
X52306Y-22852D01*
X53066Y-21018D01*
X53158Y-20320D01*
D02*
G37*
G36*
X44450D02*
X38282D01*
X38374Y-21018D01*
X39134Y-22852D01*
X40342Y-24428D01*
X41918Y-25636D01*
X43752Y-26396D01*
X44450Y-26488D01*
Y-20320D01*
D02*
G37*
%LPD*%
D11*
X-25000Y82950D02*
Y161690D01*
X-63500Y44450D02*
X-25000Y82950D01*
X-12700Y115570D02*
Y161490D01*
X-12500Y161690D01*
X0Y100330D02*
Y161690D01*
X46990Y22860D02*
Y39370D01*
X36830Y49530D02*
X46990Y39370D01*
X36830Y49530D02*
Y106680D01*
X-26750Y13810D02*
X-20D01*
X-17790Y-31760D02*
X-11450Y-38100D01*
X-17800Y-31750D02*
Y-19130D01*
X20220Y31750D02*
X31750D01*
X17760Y29290D02*
X20220Y31750D01*
X-27940Y-57150D02*
X2540D01*
X-63500Y-21590D02*
X-27940Y-57150D01*
X-63500Y-21590D02*
Y44450D01*
X17780Y-44450D02*
Y-19130D01*
Y-44450D02*
X24130Y-50800D01*
X39370D01*
X38020Y13890D02*
X46990Y22860D01*
X17760Y13890D02*
X38020D01*
X45720Y-19050D02*
Y-11430D01*
X38020Y-3730D02*
X45720Y-11430D01*
X17780Y-3730D02*
X38020D01*
X0Y-25122D02*
Y-19130D01*
Y-25122D02*
X6650Y-31772D01*
Y-38100D02*
Y-31772D01*
X17760Y13890D02*
X17780Y13870D01*
Y-3730D02*
Y13870D01*
X0Y-3730D02*
X17780D01*
X-17800D02*
X0D01*
X-18930Y30420D02*
Y39370D01*
Y30420D02*
X-17800Y29290D01*
X-33020Y39370D02*
X-18930D01*
X-25320Y-19130D02*
X-17800D01*
X-30480Y-13970D02*
X-25320Y-19130D01*
X-30480Y-13970D02*
Y10080D01*
X-26750Y13810D01*
X-11450Y-38100D02*
X-6350D01*
X6650Y-53040D02*
Y-38100D01*
X2540Y-57150D02*
X6650Y-53040D01*
X-18930Y39370D02*
Y61847D01*
X-20Y55880D02*
Y64750D01*
Y29210D02*
Y55880D01*
X-8890D02*
X-20D01*
X-18930Y61847D02*
X12500Y93277D01*
X-20Y64750D02*
X25000Y89770D01*
Y161690D01*
X12500Y93277D02*
Y161690D01*
X-0D02*
X0Y161690D01*
Y-19130D02*
X17780D01*
D17*
X-0Y161690D02*
D03*
X12500D02*
D03*
X25000D02*
D03*
X-25000D02*
D03*
X-12500D02*
D03*
D18*
X43250Y189690D02*
D03*
X-43250D02*
D03*
D19*
X-17800Y-3730D02*
D03*
Y-19130D02*
D03*
X0Y-3730D02*
D03*
Y-19130D02*
D03*
X17780Y-3730D02*
D03*
Y-19130D02*
D03*
X17760Y13890D02*
D03*
Y29290D02*
D03*
X-20Y29210D02*
D03*
Y13810D02*
D03*
X-17800Y29290D02*
D03*
Y13890D02*
D03*
D20*
X-6350Y-38100D02*
D03*
X6650D02*
D03*
D26*
X-88400Y88400D02*
D03*
Y-88400D02*
D03*
X88400D02*
D03*
Y88400D02*
D03*
D27*
X-12700Y115570D02*
D03*
X0Y100330D02*
D03*
X36830Y106680D02*
D03*
X39370Y-50800D02*
D03*
X31750Y31750D02*
D03*
X45720Y-19050D02*
D03*
X-17780Y-31750D02*
D03*
X-33020Y39370D02*
D03*
X-8890Y55880D02*
D03*
M02*
