G04*
G04 #@! TF.GenerationSoftware,Altium Limited,Altium Designer,18.1.7 (191)*
G04*
G04 Layer_Color=128*
%FSLAX44Y44*%
%MOMM*%
G71*
G01*
G75*
%ADD32C,0.0508*%
D32*
X-103400Y88400D02*
X-73400D01*
X-88400Y73400D02*
Y103400D01*
X-103400Y-88400D02*
X-73400D01*
X-88400Y-103400D02*
Y-73400D01*
X73400Y-88400D02*
X103400D01*
X88400Y-103400D02*
Y-73400D01*
X73400Y88400D02*
X103400D01*
X88400Y73400D02*
Y103400D01*
X-15200Y115570D02*
X-10200D01*
X-12700Y113070D02*
Y118070D01*
X-2500Y100330D02*
X2500D01*
X0Y97830D02*
Y102830D01*
X34330Y106680D02*
X39330D01*
X36830Y104180D02*
Y109180D01*
X36870Y-50800D02*
X41870D01*
X39370Y-53300D02*
Y-48300D01*
X29250Y31750D02*
X34250D01*
X31750Y29250D02*
Y34250D01*
X43220Y-19050D02*
X48220D01*
X45720Y-21550D02*
Y-16550D01*
X-20280Y-31750D02*
X-15280D01*
X-17780Y-34250D02*
Y-29250D01*
X-35520Y39370D02*
X-30520D01*
X-33020Y36870D02*
Y41870D01*
X-11390Y55880D02*
X-6390D01*
X-8890Y53380D02*
Y58380D01*
M02*
