G04*
G04 #@! TF.GenerationSoftware,Altium Limited,Altium Designer,18.1.7 (191)*
G04*
G04 Layer_Physical_Order=2*
G04 Layer_Color=8421376*
%FSLAX44Y44*%
%MOMM*%
G71*
G01*
G75*
%ADD11C,0.5000*%
%ADD26C,6.0000*%
%ADD27C,1.0000*%
%ADD28R,1.6000X0.6000*%
G36*
X51719Y111363D02*
X52015Y109876D01*
X52857Y108616D01*
X53580Y108133D01*
X52649Y106616D01*
X50240Y100799D01*
X48770Y94677D01*
X48276Y88400D01*
X48770Y82123D01*
X50240Y76001D01*
X52649Y70184D01*
X55939Y64816D01*
X60028Y60028D01*
X64816Y55939D01*
X70184Y52649D01*
X76001Y50240D01*
X82123Y48770D01*
X88400Y48276D01*
X94677Y48770D01*
X100799Y50240D01*
X101305Y50450D01*
X102086Y49448D01*
X100548Y47375D01*
X96246Y40197D01*
X92668Y32633D01*
X89849Y24753D01*
X87816Y16636D01*
X86588Y8358D01*
X86177Y0D01*
X86588Y-8358D01*
X87816Y-16636D01*
X89849Y-24753D01*
X92668Y-32633D01*
X96246Y-40197D01*
X100548Y-47375D01*
X102086Y-49448D01*
X101305Y-50450D01*
X100799Y-50240D01*
X94677Y-48770D01*
X88400Y-48276D01*
X82123Y-48770D01*
X76001Y-50240D01*
X70184Y-52649D01*
X64816Y-55939D01*
X60028Y-60028D01*
X55939Y-64816D01*
X52649Y-70184D01*
X50240Y-76001D01*
X48770Y-82123D01*
X48276Y-88400D01*
X48770Y-94677D01*
X50240Y-100799D01*
X50476Y-101369D01*
X49475Y-102151D01*
X47355Y-100578D01*
X40177Y-96276D01*
X32613Y-92698D01*
X24733Y-89879D01*
X16616Y-87846D01*
X8338Y-86618D01*
X19Y-86209D01*
X0Y-86205D01*
Y-86177D01*
X-8358Y-86588D01*
X-16636Y-87816D01*
X-24753Y-89849D01*
X-32633Y-92668D01*
X-40197Y-96246D01*
X-47375Y-100548D01*
X-49448Y-102086D01*
X-50450Y-101305D01*
X-50240Y-100799D01*
X-48770Y-94677D01*
X-48276Y-88400D01*
X-48770Y-82123D01*
X-50240Y-76001D01*
X-52649Y-70184D01*
X-55939Y-64816D01*
X-60028Y-60028D01*
X-64816Y-55939D01*
X-70184Y-52649D01*
X-76001Y-50240D01*
X-82123Y-48770D01*
X-88400Y-48276D01*
X-94677Y-48770D01*
X-100799Y-50240D01*
X-101305Y-50450D01*
X-102086Y-49448D01*
X-100548Y-47375D01*
X-96246Y-40197D01*
X-92668Y-32633D01*
X-89849Y-24753D01*
X-87816Y-16636D01*
X-86588Y-8358D01*
X-86177Y0D01*
X-86588Y8358D01*
X-87816Y16636D01*
X-89849Y24753D01*
X-92668Y32633D01*
X-96246Y40197D01*
X-100548Y47375D01*
X-102086Y49448D01*
X-101305Y50450D01*
X-100799Y50240D01*
X-94677Y48770D01*
X-88400Y48276D01*
X-82123Y48770D01*
X-76001Y50240D01*
X-70184Y52649D01*
X-64816Y55939D01*
X-60028Y60028D01*
X-55939Y64816D01*
X-52649Y70184D01*
X-50240Y76001D01*
X-48770Y82123D01*
X-48276Y88400D01*
X-48770Y94677D01*
X-50240Y100799D01*
X-52649Y106616D01*
X-53572Y108122D01*
X-52907Y108566D01*
X-52065Y109826D01*
X-51769Y111313D01*
Y203125D01*
X51719D01*
Y111363D01*
D02*
G37*
%LPC*%
G36*
X-11430Y123008D02*
Y116840D01*
X-5262D01*
X-5354Y117538D01*
X-6114Y119373D01*
X-7322Y120948D01*
X-8898Y122156D01*
X-10732Y122916D01*
X-11430Y123008D01*
D02*
G37*
G36*
X-13970D02*
X-14668Y122916D01*
X-16502Y122156D01*
X-18078Y120948D01*
X-19286Y119373D01*
X-20046Y117538D01*
X-20138Y116840D01*
X-13970D01*
Y123008D01*
D02*
G37*
G36*
X-5262Y114300D02*
X-11430D01*
Y108132D01*
X-10732Y108224D01*
X-8898Y108984D01*
X-7322Y110192D01*
X-6114Y111768D01*
X-5354Y113602D01*
X-5262Y114300D01*
D02*
G37*
G36*
X-13970D02*
X-20138D01*
X-20046Y113602D01*
X-19286Y111768D01*
X-18078Y110192D01*
X-16502Y108984D01*
X-14668Y108224D01*
X-13970Y108132D01*
Y114300D01*
D02*
G37*
G36*
X38100Y114118D02*
Y107950D01*
X44268D01*
X44176Y108648D01*
X43416Y110483D01*
X42208Y112058D01*
X40633Y113266D01*
X38798Y114026D01*
X38100Y114118D01*
D02*
G37*
G36*
X35560D02*
X34862Y114026D01*
X33028Y113266D01*
X31452Y112058D01*
X30244Y110483D01*
X29484Y108648D01*
X29392Y107950D01*
X35560D01*
Y114118D01*
D02*
G37*
G36*
X44268Y105410D02*
X38100D01*
Y99242D01*
X38798Y99334D01*
X40633Y100094D01*
X42208Y101302D01*
X43416Y102878D01*
X44176Y104712D01*
X44268Y105410D01*
D02*
G37*
G36*
X35560D02*
X29392D01*
X29484Y104712D01*
X30244Y102878D01*
X31452Y101302D01*
X33028Y100094D01*
X34862Y99334D01*
X35560Y99242D01*
Y105410D01*
D02*
G37*
G36*
X-8890Y63485D02*
X-10858Y63226D01*
X-12693Y62466D01*
X-14268Y61258D01*
X-14451Y61019D01*
X-34740D01*
X-36706Y60628D01*
X-38373Y59514D01*
X-58244Y39643D01*
X-59358Y37976D01*
X-59749Y36010D01*
Y7620D01*
X-59358Y5653D01*
X-58244Y3986D01*
X-44274Y-9984D01*
X-42607Y-11098D01*
X-40640Y-11489D01*
X-37790D01*
Y-11890D01*
X-16710D01*
Y-810D01*
X-37790D01*
Y-810D01*
X-39017Y-706D01*
X-40021Y299D01*
X-39396Y1469D01*
X-38100Y1211D01*
X-37790D01*
Y810D01*
X-16710D01*
Y11890D01*
X-35493D01*
X-35727Y12240D01*
X-35048Y13510D01*
X-16710D01*
Y24590D01*
X-37790D01*
Y15103D01*
X-39060Y14577D01*
X-40581Y16099D01*
Y24541D01*
X-33319Y31804D01*
X-33020Y31765D01*
X-31052Y32024D01*
X-29218Y32784D01*
X-27642Y33992D01*
X-26434Y35568D01*
X-25674Y37402D01*
X-25415Y39370D01*
X-25674Y41338D01*
X-26434Y43172D01*
X-27642Y44748D01*
X-29218Y45956D01*
X-31052Y46716D01*
X-33020Y46975D01*
X-34818Y46738D01*
X-35136Y47081D01*
X-35463Y47889D01*
X-32611Y50741D01*
X-14451D01*
X-14268Y50502D01*
X-12693Y49294D01*
X-10858Y48534D01*
X-8890Y48275D01*
X-6922Y48534D01*
X-5088Y49294D01*
X-3512Y50502D01*
X-2304Y52077D01*
X-1544Y53912D01*
X-1285Y55880D01*
X-1544Y57848D01*
X-2304Y59682D01*
X-3512Y61258D01*
X-5088Y62466D01*
X-6922Y63226D01*
X-8890Y63485D01*
D02*
G37*
G36*
X0Y107935D02*
X-1968Y107676D01*
X-3803Y106916D01*
X-5378Y105708D01*
X-6586Y104132D01*
X-7346Y102298D01*
X-7605Y100330D01*
X-7346Y98362D01*
X-6586Y96528D01*
X-5378Y94952D01*
X-5139Y94769D01*
Y68580D01*
X-4748Y66613D01*
X-3634Y64946D01*
X1211Y60101D01*
Y3810D01*
X1602Y1843D01*
X2716Y176D01*
X12876Y-9984D01*
X14543Y-11098D01*
X16510Y-11489D01*
X16710D01*
Y-11890D01*
X37790D01*
Y-810D01*
X19117D01*
X18883Y-460D01*
X19562Y810D01*
X37790D01*
Y1211D01*
X48395D01*
X53281Y-3675D01*
Y-14432D01*
X52011Y-14863D01*
X51098Y-13672D01*
X49523Y-12464D01*
X47688Y-11704D01*
X46990Y-11612D01*
Y-19050D01*
Y-26488D01*
X47688Y-26396D01*
X49523Y-25636D01*
X51098Y-24428D01*
X51527Y-23868D01*
X52862Y-24214D01*
X52958Y-24865D01*
X44861Y-32961D01*
X-9301D01*
X-10214Y-32048D01*
X-10175Y-31750D01*
X-10434Y-29782D01*
X-11194Y-27947D01*
X-12402Y-26372D01*
X-13978Y-25164D01*
X-15812Y-24404D01*
X-16710Y-24286D01*
Y-13510D01*
X-37790D01*
Y-24590D01*
X-32959D01*
Y-42030D01*
X-32568Y-43997D01*
X-31454Y-45664D01*
X-12644Y-64474D01*
X-10977Y-65588D01*
X-9010Y-65979D01*
X47110D01*
X49076Y-65588D01*
X50744Y-64474D01*
X77214Y-38004D01*
X78328Y-36337D01*
X78719Y-34370D01*
Y6933D01*
X78328Y8900D01*
X77214Y10567D01*
X52397Y35384D01*
X50730Y36498D01*
X48763Y36889D01*
X37311D01*
X37128Y37128D01*
X35552Y38336D01*
X33718Y39096D01*
X31750Y39355D01*
X29782Y39096D01*
X27947Y38336D01*
X26372Y37128D01*
X25164Y35552D01*
X24404Y33718D01*
X24145Y31750D01*
X24404Y29782D01*
X25164Y27947D01*
X26372Y26372D01*
X27040Y25860D01*
X26609Y24590D01*
X16710D01*
Y13510D01*
X37790D01*
Y13911D01*
X48671D01*
X49824Y12759D01*
X49298Y11489D01*
X37790D01*
Y11890D01*
X16710D01*
Y2513D01*
X15440Y1987D01*
X11489Y5939D01*
Y62230D01*
X11098Y64197D01*
X9984Y65864D01*
X5139Y70708D01*
Y94769D01*
X5378Y94952D01*
X6586Y96528D01*
X7346Y98362D01*
X7605Y100330D01*
X7346Y102298D01*
X6586Y104132D01*
X5378Y105708D01*
X3803Y106916D01*
X1968Y107676D01*
X0Y107935D01*
D02*
G37*
G36*
X44450Y-11612D02*
X43752Y-11704D01*
X41918Y-12464D01*
X40342Y-13672D01*
X39134Y-15247D01*
X39060Y-15426D01*
X37790Y-15173D01*
Y-13510D01*
X28520D01*
Y-19050D01*
Y-24590D01*
X37790D01*
Y-22927D01*
X39060Y-22674D01*
X39134Y-22852D01*
X40342Y-24428D01*
X41918Y-25636D01*
X43752Y-26396D01*
X44450Y-26488D01*
Y-19050D01*
Y-11612D01*
D02*
G37*
G36*
X25980Y-13510D02*
X16710D01*
Y-17780D01*
X25980D01*
Y-13510D01*
D02*
G37*
G36*
Y-20320D02*
X16710D01*
Y-24590D01*
X25980D01*
Y-20320D01*
D02*
G37*
%LPD*%
D11*
X-9010Y-60840D02*
X47110D01*
X-27820Y-42030D02*
X-9010Y-60840D01*
X47110D02*
X73580Y-34370D01*
X-12700Y115570D02*
X27940D01*
X0Y68580D02*
Y100330D01*
X27940Y115570D02*
X36830Y106680D01*
X6350Y3810D02*
Y62230D01*
X0Y68580D02*
X6350Y62230D01*
X16510Y-6350D02*
X27250D01*
X6350Y3810D02*
X16510Y-6350D01*
X46990Y-38100D02*
X58420Y-26670D01*
X-11430Y-38100D02*
X46990D01*
X-17780Y-31750D02*
X-11430Y-38100D01*
X48763Y31750D02*
X73580Y6933D01*
X31750Y31750D02*
X48763D01*
X73580Y-34370D02*
Y6933D01*
X50800Y19050D02*
X66040Y3810D01*
Y-30480D02*
Y3810D01*
X45720Y-50800D02*
X66040Y-30480D01*
X58420Y-26670D02*
Y-1546D01*
X50524Y6350D02*
X58420Y-1546D01*
X39370Y-50800D02*
X45720D01*
X-27820Y-42030D02*
Y-19620D01*
X27250Y19050D02*
X50800D01*
X27250Y-19050D02*
X45720D01*
X27250Y6350D02*
X50524D01*
X-27820Y-19620D02*
X-27250Y-19050D01*
X-45720Y26670D02*
X-33020Y39370D01*
X-34740Y55880D02*
X-8890D01*
X-54610Y36010D02*
X-34740Y55880D01*
X-54610Y7620D02*
Y36010D01*
Y7620D02*
X-40640Y-6350D01*
X-27250D01*
X-38100Y6350D02*
X-27250D01*
X-45720Y13970D02*
X-38100Y6350D01*
X-45720Y13970D02*
Y26670D01*
D26*
X-88400Y88400D02*
D03*
Y-88400D02*
D03*
X88400D02*
D03*
Y88400D02*
D03*
D27*
X-12700Y115570D02*
D03*
X0Y100330D02*
D03*
X36830Y106680D02*
D03*
X39370Y-50800D02*
D03*
X31750Y31750D02*
D03*
X45720Y-19050D02*
D03*
X-17780Y-31750D02*
D03*
X-33020Y39370D02*
D03*
X-8890Y55880D02*
D03*
D28*
X-27250Y-19050D02*
D03*
Y-6350D02*
D03*
Y6350D02*
D03*
Y19050D02*
D03*
X27250Y-19050D02*
D03*
Y-6350D02*
D03*
Y6350D02*
D03*
Y19050D02*
D03*
M02*
